<ttFont>
<head>
    <!-- Most of this table will be recalculated by the compiler -->
    <tableVersion value="1.0"/>
    <fontRevision value="1.2"/>
    <checkSumAdjustment value="0x58f7b3ef"/>
    <magicNumber value="0x5f0f3cf5"/>
    <flags value="00000000 00000001"/>
    <unitsPerEm value="1000"/>
    <created value="Mon Jun 22 21:59:44 2020"/>
    <modified value="Mon Jun 22 22:21:07 2020"/>
    <xMin value="-31"/>
    <yMin value="-200"/>
    <xMax value="4384"/>
    <yMax value="845"/>
    <macStyle value="00000000 00000000"/>
    <lowestRecPPEM value="3"/>
    <fontDirectionHint value="2"/>
    <indexToLocFormat value="0"/>
    <glyphDataFormat value="0"/>
  </head>
    <TTGlyph name=".notdef" xMin="50" yMin="-200" xMax="450" yMax="800">
      <contour>
        <pt x="50" y="-200" on="1"/>
        <pt x="450" y="-200" on="1"/>
        <pt x="450" y="800" on="1"/>
        <pt x="50" y="800" on="1"/>
      </contour>
      <contour>
        <pt x="100" y="-150" on="1"/>
        <pt x="100" y="750" on="1"/>
        <pt x="400" y="750" on="1"/>
        <pt x="400" y="-150" on="1"/>
      </contour>
    </TTGlyph>
    <TTGlyph name="A" xMin="-3" yMin="51" xMax="554" yMax="703">
      <contour>
        <pt x="219" y="370" on="1"/>
        <pt x="378" y="351" on="1"/>
        <pt x="477" y="339" on="0"/>
        <pt x="554" y="296" on="0"/>
        <pt x="554" y="266" on="1"/>
        <pt x="554" y="232" on="0"/>
        <pt x="497" y="198" on="0"/>
        <pt x="459" y="198" on="1"/>
        <pt x="425" y="198" on="0"/>
        <pt x="345" y="224" on="0"/>
        <pt x="291" y="247" on="1"/>
        <pt x="170" y="299" on="1"/>
        <pt x="149" y="285" on="1"/>
        <pt x="241" y="225" on="1"/>
        <pt x="301" y="186" on="0"/>
        <pt x="344" y="142" on="0"/>
        <pt x="344" y="123" on="1"/>
        <pt x="344" y="95" on="0"/>
        <pt x="281" y="51" on="0"/>
        <pt x="242" y="51" on="1"/>
        <pt x="201" y="51" on="0"/>
        <pt x="151" y="85" on="0"/>
        <pt x="120" y="125" on="1"/>
        <pt x="-3" y="286" on="1"/>
        <pt x="-3" y="306" on="1"/>
        <pt x="41" y="312" on="0"/>
        <pt x="102" y="348" on="0"/>
        <pt x="102" y="377" on="1"/>
        <pt x="102" y="406" on="0"/>
        <pt x="41" y="442" on="0"/>
        <pt x="-3" y="448" on="1"/>
        <pt x="-3" y="468" on="1"/>
        <pt x="120" y="629" on="1"/>
        <pt x="151" y="669" on="0"/>
        <pt x="201" y="703" on="0"/>
        <pt x="242" y="703" on="1"/>
        <pt x="281" y="703" on="0"/>
        <pt x="344" y="659" on="0"/>
        <pt x="344" y="631" on="1"/>
        <pt x="344" y="612" on="0"/>
        <pt x="301" y="568" on="0"/>
        <pt x="241" y="529" on="1"/>
        <pt x="149" y="469" on="1"/>
        <pt x="170" y="455" on="1"/>
        <pt x="291" y="507" on="1"/>
        <pt x="345" y="530" on="0"/>
        <pt x="425" y="556" on="0"/>
        <pt x="459" y="556" on="1"/>
        <pt x="497" y="556" on="0"/>
        <pt x="554" y="522" on="0"/>
        <pt x="554" y="488" on="1"/>
        <pt x="554" y="458" on="0"/>
        <pt x="477" y="415" on="0"/>
        <pt x="378" y="403" on="1"/>
        <pt x="219" y="384" on="1"/>
      </contour>
    </TTGlyph>
    <TTGlyph name="AE" xMin="0" yMin="-60" xMax="762" yMax="814">
      <contour>
        <pt x="0" y="671" on="1"/>
        <pt x="381" y="814" on="1"/>
        <pt x="762" y="671" on="1"/>
        <pt x="762" y="83" on="1"/>
        <pt x="381" y="-60" on="1"/>
        <pt x="0" y="83" on="1"/>
      </contour>
    </TTGlyph>
    <TTGlyph name="Aring" xMin="-3" yMin="-1" xMax="1647" yMax="756">
      <contour>
        <pt x="822" y="756" on="1"/>
        <pt x="918" y="756" on="0"/>
        <pt x="1087" y="700" on="0"/>
        <pt x="1157" y="656" on="1"/>
        <pt x="1221" y="700" on="0"/>
        <pt x="1366" y="752" on="0"/>
        <pt x="1427" y="752" on="1"/>
        <pt x="1513" y="752" on="0"/>
        <pt x="1647" y="653" on="0"/>
        <pt x="1647" y="561" on="1"/>
        <pt x="1647" y="491" on="0"/>
        <pt x="1560" y="417" on="0"/>
        <pt x="1514" y="417" on="1"/>
        <pt x="1476" y="417" on="0"/>
        <pt x="1416" y="471" on="0"/>
        <pt x="1416" y="506" on="1"/>
        <pt x="1416" y="543" on="0"/>
        <pt x="1461" y="588" on="0"/>
        <pt x="1499" y="588" on="1"/>
        <pt x="1516" y="588" on="0"/>
        <pt x="1547" y="571" on="0"/>
        <pt x="1560" y="558" on="1"/>
        <pt x="1559" y="614" on="0"/>
        <pt x="1483" y="668" on="0"/>
        <pt x="1432" y="668" on="1"/>
        <pt x="1381" y="668" on="0"/>
        <pt x="1281" y="630" on="0"/>
        <pt x="1232" y="602" on="1"/>
        <pt x="1295" y="551" on="0"/>
        <pt x="1396" y="435" on="0"/>
        <pt x="1435" y="381" on="1"/>
        <pt x="1435" y="374" on="1"/>
        <pt x="1396" y="320" on="0"/>
        <pt x="1295" y="204" on="0"/>
        <pt x="1232" y="153" on="1"/>
        <pt x="1281" y="125" on="0"/>
        <pt x="1381" y="87" on="0"/>
        <pt x="1432" y="87" on="1"/>
        <pt x="1483" y="87" on="0"/>
        <pt x="1559" y="141" on="0"/>
        <pt x="1560" y="197" on="1"/>
        <pt x="1547" y="184" on="0"/>
        <pt x="1516" y="167" on="0"/>
        <pt x="1499" y="167" on="1"/>
        <pt x="1461" y="167" on="0"/>
        <pt x="1416" y="212" on="0"/>
        <pt x="1416" y="249" on="1"/>
        <pt x="1416" y="284" on="0"/>
        <pt x="1476" y="338" on="0"/>
        <pt x="1514" y="338" on="1"/>
        <pt x="1560" y="338" on="0"/>
        <pt x="1647" y="264" on="0"/>
        <pt x="1647" y="194" on="1"/>
        <pt x="1647" y="102" on="0"/>
        <pt x="1513" y="3" on="0"/>
        <pt x="1427" y="3" on="1"/>
        <pt x="1366" y="3" on="0"/>
        <pt x="1221" y="55" on="0"/>
        <pt x="1157" y="99" on="1"/>
        <pt x="1087" y="55" on="0"/>
        <pt x="918" y="-1" on="0"/>
        <pt x="822" y="-1" on="1"/>
        <pt x="726" y="-1" on="0"/>
        <pt x="557" y="55" on="0"/>
        <pt x="487" y="99" on="1"/>
        <pt x="423" y="55" on="0"/>
        <pt x="278" y="3" on="0"/>
        <pt x="217" y="3" on="1"/>
        <pt x="131" y="3" on="0"/>
        <pt x="-3" y="102" on="0"/>
        <pt x="-3" y="194" on="1"/>
        <pt x="-3" y="264" on="0"/>
        <pt x="84" y="338" on="0"/>
        <pt x="130" y="338" on="1"/>
        <pt x="168" y="338" on="0"/>
        <pt x="228" y="284" on="0"/>
        <pt x="228" y="249" on="1"/>
        <pt x="228" y="212" on="0"/>
        <pt x="183" y="167" on="0"/>
        <pt x="145" y="167" on="1"/>
        <pt x="128" y="167" on="0"/>
        <pt x="97" y="184" on="0"/>
        <pt x="84" y="197" on="1"/>
        <pt x="85" y="141" on="0"/>
        <pt x="161" y="87" on="0"/>
        <pt x="212" y="87" on="1"/>
        <pt x="263" y="87" on="0"/>
        <pt x="363" y="125" on="0"/>
        <pt x="412" y="153" on="1"/>
        <pt x="349" y="204" on="0"/>
        <pt x="248" y="320" on="0"/>
        <pt x="209" y="374" on="1"/>
        <pt x="209" y="381" on="1"/>
        <pt x="248" y="435" on="0"/>
        <pt x="349" y="551" on="0"/>
        <pt x="412" y="602" on="1"/>
        <pt x="363" y="630" on="0"/>
        <pt x="263" y="668" on="0"/>
        <pt x="212" y="668" on="1"/>
        <pt x="161" y="668" on="0"/>
        <pt x="85" y="614" on="0"/>
        <pt x="84" y="558" on="1"/>
        <pt x="97" y="571" on="0"/>
        <pt x="128" y="588" on="0"/>
        <pt x="145" y="588" on="1"/>
        <pt x="183" y="588" on="0"/>
        <pt x="228" y="543" on="0"/>
        <pt x="228" y="506" on="1"/>
        <pt x="228" y="471" on="0"/>
        <pt x="168" y="417" on="0"/>
        <pt x="130" y="417" on="1"/>
        <pt x="84" y="417" on="0"/>
        <pt x="-3" y="491" on="0"/>
        <pt x="-3" y="561" on="1"/>
        <pt x="-3" y="653" on="0"/>
        <pt x="131" y="752" on="0"/>
        <pt x="217" y="752" on="1"/>
        <pt x="278" y="752" on="0"/>
        <pt x="423" y="700" on="0"/>
        <pt x="487" y="656" on="1"/>
        <pt x="557" y="700" on="0"/>
        <pt x="726" y="756" on="0"/>
      </contour>
    </TTGlyph>
    <TTGlyph name="B" xMin="-10" yMin="38" xMax="1332" yMax="715">
      <contour>
        <pt x="1123" y="518" on="1"/>
        <pt x="1215" y="518" on="0"/>
        <pt x="1332" y="443" on="0"/>
        <pt x="1332" y="376" on="1"/>
        <pt x="1332" y="309" on="0"/>
        <pt x="1215" y="235" on="0"/>
        <pt x="1123" y="235" on="1"/>
        <pt x="1060" y="235" on="0"/>
        <pt x="959" y="264" on="0"/>
        <pt x="919" y="288" on="1"/>
        <pt x="941" y="244" on="0"/>
        <pt x="962" y="163" on="0"/>
        <pt x="965" y="122" on="1"/>
        <pt x="967" y="91" on="0"/>
        <pt x="950" y="56" on="0"/>
        <pt x="925" y="56" on="1"/>
        <pt x="915" y="56" on="0"/>
        <pt x="895" y="69" on="0"/>
        <pt x="891" y="76" on="1"/>
        <pt x="825" y="184" on="0"/>
        <pt x="629" y="347" on="0"/>
        <pt x="424" y="347" on="1"/>
        <pt x="521" y="318" on="0"/>
        <pt x="627" y="225" on="0"/>
        <pt x="627" y="166" on="1"/>
        <pt x="627" y="113" on="0"/>
        <pt x="546" y="38" on="0"/>
        <pt x="482" y="38" on="1"/>
        <pt x="320" y="38" on="0"/>
        <pt x="218" y="340" on="0"/>
        <pt x="-10" y="340" on="1"/>
        <pt x="-10" y="413" on="1"/>
        <pt x="218" y="413" on="0"/>
        <pt x="320" y="715" on="0"/>
        <pt x="482" y="715" on="1"/>
        <pt x="546" y="715" on="0"/>
        <pt x="627" y="640" on="0"/>
        <pt x="627" y="587" on="1"/>
        <pt x="627" y="528" on="0"/>
        <pt x="521" y="435" on="0"/>
        <pt x="424" y="406" on="1"/>
        <pt x="629" y="406" on="0"/>
        <pt x="825" y="569" on="0"/>
        <pt x="891" y="677" on="1"/>
        <pt x="895" y="684" on="0"/>
        <pt x="915" y="697" on="0"/>
        <pt x="925" y="697" on="1"/>
        <pt x="950" y="697" on="0"/>
        <pt x="967" y="662" on="0"/>
        <pt x="965" y="631" on="1"/>
        <pt x="962" y="590" on="0"/>
        <pt x="941" y="509" on="0"/>
        <pt x="919" y="465" on="1"/>
        <pt x="959" y="489" on="0"/>
        <pt x="1060" y="518" on="0"/>
      </contour>
    </TTGlyph>
    <TTGlyph name="C" xMin="-10" yMin="-16" xMax="1263" yMax="770">
      <contour>
        <pt x="-10" y="413" on="1"/>
        <pt x="353" y="413" on="0"/>
        <pt x="500" y="770" on="0"/>
        <pt x="643" y="770" on="1"/>
        <pt x="705" y="770" on="0"/>
        <pt x="718" y="686" on="0"/>
        <pt x="744" y="655" on="1"/>
        <pt x="768" y="626" on="0"/>
        <pt x="826" y="588" on="0"/>
        <pt x="826" y="557" on="1"/>
        <pt x="826" y="520" on="0"/>
        <pt x="693" y="446" on="0"/>
        <pt x="533" y="422" on="1"/>
        <pt x="536" y="402" on="1"/>
        <pt x="687" y="418" on="1"/>
        <pt x="855" y="436" on="0"/>
        <pt x="1004" y="546" on="0"/>
        <pt x="1083" y="546" on="1"/>
        <pt x="1177" y="546" on="0"/>
        <pt x="1263" y="433" on="0"/>
        <pt x="1263" y="377" on="1"/>
        <pt x="1263" y="321" on="0"/>
        <pt x="1177" y="208" on="0"/>
        <pt x="1083" y="208" on="1"/>
        <pt x="1004" y="208" on="0"/>
        <pt x="855" y="318" on="0"/>
        <pt x="687" y="336" on="1"/>
        <pt x="536" y="352" on="1"/>
        <pt x="533" y="332" on="1"/>
        <pt x="693" y="308" on="0"/>
        <pt x="826" y="234" on="0"/>
        <pt x="826" y="197" on="1"/>
        <pt x="826" y="166" on="0"/>
        <pt x="768" y="128" on="0"/>
        <pt x="744" y="99" on="1"/>
        <pt x="718" y="68" on="0"/>
        <pt x="705" y="-16" on="0"/>
        <pt x="643" y="-16" on="1"/>
        <pt x="500" y="-16" on="0"/>
        <pt x="353" y="341" on="0"/>
        <pt x="-10" y="341" on="1"/>
      </contour>
    </TTGlyph>
    <TTGlyph name="Ccedilla" xMin="-10" yMin="49" xMax="1382" yMax="705">
      <contour>
        <pt x="-10" y="341" on="1"/>
        <pt x="-10" y="413" on="1"/>
        <pt x="259" y="413" on="0"/>
        <pt x="600" y="604" on="0"/>
        <pt x="667" y="705" on="1"/>
        <pt x="705" y="705" on="1"/>
        <pt x="772" y="604" on="0"/>
        <pt x="1113" y="413" on="0"/>
        <pt x="1382" y="413" on="1"/>
        <pt x="1382" y="341" on="1"/>
        <pt x="1113" y="341" on="0"/>
        <pt x="772" y="150" on="0"/>
        <pt x="705" y="49" on="1"/>
        <pt x="667" y="49" on="1"/>
        <pt x="600" y="150" on="0"/>
        <pt x="259" y="341" on="0"/>
      </contour>
    </TTGlyph>
    <TTGlyph name="D" xMin="-3" yMin="-7" xMax="1153" yMax="761">
      <contour>
        <pt x="985" y="-7" on="1"/>
        <pt x="743" y="-7" on="0"/>
        <pt x="518" y="14" on="0"/>
        <pt x="428" y="51" on="1"/>
        <pt x="360" y="79" on="0"/>
        <pt x="263" y="223" on="0"/>
        <pt x="229" y="316" on="1"/>
        <pt x="213" y="293" on="0"/>
        <pt x="150" y="251" on="0"/>
        <pt x="116" y="251" on="1"/>
        <pt x="54" y="251" on="0"/>
        <pt x="-3" y="327" on="0"/>
        <pt x="-3" y="377" on="1"/>
        <pt x="-3" y="427" on="0"/>
        <pt x="54" y="502" on="0"/>
        <pt x="116" y="502" on="1"/>
        <pt x="150" y="502" on="0"/>
        <pt x="213" y="461" on="0"/>
        <pt x="229" y="438" on="1"/>
        <pt x="263" y="531" on="0"/>
        <pt x="360" y="674" on="0"/>
        <pt x="428" y="702" on="1"/>
        <pt x="518" y="739" on="0"/>
        <pt x="743" y="761" on="0"/>
        <pt x="985" y="761" on="1"/>
        <pt x="1003" y="728" on="1"/>
        <pt x="993" y="718" on="0"/>
        <pt x="891" y="554" on="0"/>
        <pt x="875" y="523" on="1"/>
        <pt x="949" y="508" on="0"/>
        <pt x="1134" y="410" on="0"/>
        <pt x="1153" y="385" on="1"/>
        <pt x="1153" y="369" on="1"/>
        <pt x="1134" y="344" on="0"/>
        <pt x="949" y="245" on="0"/>
        <pt x="875" y="230" on="1"/>
        <pt x="891" y="199" on="0"/>
        <pt x="993" y="35" on="0"/>
        <pt x="1003" y="26" on="1"/>
      </contour>
    </TTGlyph>
    <TTGlyph name="E" xMin="-3" yMin="20" xMax="938" yMax="734">
      <contour>
        <pt x="-3" y="377" on="1"/>
        <pt x="-3" y="520" on="0"/>
        <pt x="233" y="734" on="0"/>
        <pt x="397" y="727" on="1"/>
        <pt x="406" y="714" on="1"/>
        <pt x="405" y="622" on="0"/>
        <pt x="324" y="474" on="0"/>
        <pt x="240" y="420" on="1"/>
        <pt x="300" y="424" on="0"/>
        <pt x="422" y="439" on="0"/>
        <pt x="466" y="446" on="1"/>
        <pt x="447" y="473" on="0"/>
        <pt x="453" y="547" on="0"/>
        <pt x="481" y="575" on="1"/>
        <pt x="517" y="611" on="0"/>
        <pt x="604" y="601" on="0"/>
        <pt x="635" y="565" on="1"/>
        <pt x="648" y="605" on="0"/>
        <pt x="718" y="646" on="0"/>
        <pt x="762" y="631" on="1"/>
        <pt x="811" y="614" on="0"/>
        <pt x="840" y="526" on="0"/>
        <pt x="820" y="481" on="1"/>
        <pt x="867" y="488" on="0"/>
        <pt x="938" y="431" on="0"/>
        <pt x="938" y="377" on="1"/>
        <pt x="938" y="323" on="0"/>
        <pt x="867" y="266" on="0"/>
        <pt x="820" y="273" on="1"/>
        <pt x="840" y="228" on="0"/>
        <pt x="811" y="140" on="0"/>
        <pt x="762" y="123" on="1"/>
        <pt x="718" y="108" on="0"/>
        <pt x="648" y="149" on="0"/>
        <pt x="635" y="189" on="1"/>
        <pt x="604" y="153" on="0"/>
        <pt x="517" y="143" on="0"/>
        <pt x="481" y="179" on="1"/>
        <pt x="453" y="207" on="0"/>
        <pt x="447" y="281" on="0"/>
        <pt x="466" y="308" on="1"/>
        <pt x="422" y="315" on="0"/>
        <pt x="300" y="330" on="0"/>
        <pt x="240" y="334" on="1"/>
        <pt x="324" y="280" on="0"/>
        <pt x="405" y="132" on="0"/>
        <pt x="406" y="40" on="1"/>
        <pt x="397" y="27" on="1"/>
        <pt x="233" y="20" on="0"/>
        <pt x="-3" y="234" on="0"/>
      </contour>
    </TTGlyph>
    <TTGlyph name="Euro" xMin="0" yMin="189" xMax="558" yMax="565">
      <contour>
        <pt x="279" y="565" on="1"/>
        <pt x="433" y="565" on="0"/>
        <pt x="558" y="448" on="0"/>
        <pt x="558" y="377" on="1"/>
        <pt x="558" y="306" on="0"/>
        <pt x="433" y="189" on="0"/>
        <pt x="279" y="189" on="1"/>
        <pt x="125" y="189" on="0"/>
        <pt x="0" y="306" on="0"/>
        <pt x="0" y="377" on="1"/>
        <pt x="0" y="448" on="0"/>
        <pt x="125" y="565" on="0"/>
      </contour>
    </TTGlyph>
    <TTGlyph name="F" xMin="-31" yMin="-32" xMax="1432" yMax="786">
      <contour>
        <pt x="1432" y="375" on="1"/>
        <pt x="1360" y="294" on="0"/>
        <pt x="1206" y="240" on="0"/>
        <pt x="1060" y="269" on="1"/>
        <pt x="1057" y="267" on="1"/>
        <pt x="1109" y="214" on="0"/>
        <pt x="1125" y="120" on="0"/>
        <pt x="1125" y="74" on="1"/>
        <pt x="1123" y="71" on="1"/>
        <pt x="1006" y="45" on="0"/>
        <pt x="864" y="137" on="0"/>
        <pt x="830" y="215" on="1"/>
        <pt x="814" y="193" on="0"/>
        <pt x="758" y="160" on="0"/>
        <pt x="715" y="156" on="1"/>
        <pt x="723" y="140" on="0"/>
        <pt x="738" y="104" on="0"/>
        <pt x="744" y="84" on="1"/>
        <pt x="739" y="76" on="1"/>
        <pt x="613" y="52" on="0"/>
        <pt x="393" y="114" on="0"/>
        <pt x="301" y="189" on="1"/>
        <pt x="297" y="185" on="1"/>
        <pt x="325" y="127" on="0"/>
        <pt x="324" y="13" on="0"/>
        <pt x="296" y="-29" on="1"/>
        <pt x="285" y="-32" on="1"/>
        <pt x="191" y="7" on="0"/>
        <pt x="86" y="188" on="0"/>
        <pt x="85" y="310" on="1"/>
        <pt x="75" y="318" on="0"/>
        <pt x="0" y="334" on="0"/>
        <pt x="-28" y="341" on="1"/>
        <pt x="-29" y="351" on="0"/>
        <pt x="-31" y="369" on="0"/>
        <pt x="-31" y="377" on="1"/>
        <pt x="-31" y="385" on="0"/>
        <pt x="-29" y="403" on="0"/>
        <pt x="-28" y="413" on="1"/>
        <pt x="0" y="420" on="0"/>
        <pt x="75" y="436" on="0"/>
        <pt x="85" y="444" on="1"/>
        <pt x="86" y="566" on="0"/>
        <pt x="191" y="747" on="0"/>
        <pt x="285" y="786" on="1"/>
        <pt x="296" y="783" on="1"/>
        <pt x="324" y="741" on="0"/>
        <pt x="325" y="627" on="0"/>
        <pt x="297" y="569" on="1"/>
        <pt x="301" y="565" on="1"/>
        <pt x="393" y="640" on="0"/>
        <pt x="613" y="702" on="0"/>
        <pt x="739" y="678" on="1"/>
        <pt x="744" y="670" on="1"/>
        <pt x="738" y="650" on="0"/>
        <pt x="723" y="614" on="0"/>
        <pt x="715" y="598" on="1"/>
        <pt x="758" y="594" on="0"/>
        <pt x="814" y="561" on="0"/>
        <pt x="830" y="539" on="1"/>
        <pt x="864" y="617" on="0"/>
        <pt x="1006" y="709" on="0"/>
        <pt x="1123" y="683" on="1"/>
        <pt x="1125" y="680" on="1"/>
        <pt x="1125" y="634" on="0"/>
        <pt x="1109" y="540" on="0"/>
        <pt x="1057" y="487" on="1"/>
        <pt x="1060" y="485" on="1"/>
        <pt x="1206" y="514" on="0"/>
        <pt x="1360" y="460" on="0"/>
        <pt x="1432" y="379" on="1"/>
      </contour>
      <contour>
        <pt x="426" y="374" on="1"/>
        <pt x="494" y="365" on="0"/>
        <pt x="620" y="318" on="0"/>
        <pt x="645" y="280" on="1"/>
        <pt x="660" y="312" on="0"/>
        <pt x="717" y="364" on="0"/>
        <pt x="753" y="377" on="1"/>
        <pt x="717" y="390" on="0"/>
        <pt x="660" y="441" on="0"/>
        <pt x="645" y="473" on="1"/>
        <pt x="620" y="435" on="0"/>
        <pt x="494" y="388" on="0"/>
        <pt x="426" y="380" on="1"/>
      </contour>
    </TTGlyph>
    <TTGlyph name="G" xMin="-7" yMin="-9" xMax="1161" yMax="763">
      <contour>
        <pt x="1161" y="377" on="1"/>
        <pt x="1161" y="258" on="0"/>
        <pt x="958" y="105" on="0"/>
        <pt x="791" y="137" on="1"/>
        <pt x="755" y="70" on="0"/>
        <pt x="645" y="-9" on="0"/>
        <pt x="567" y="-9" on="1"/>
        <pt x="480" y="-9" on="0"/>
        <pt x="305" y="90" on="0"/>
        <pt x="187" y="216" on="1"/>
        <pt x="117" y="291" on="0"/>
        <pt x="54" y="334" on="0"/>
        <pt x="-7" y="341" on="1"/>
        <pt x="-7" y="413" on="1"/>
        <pt x="54" y="420" on="0"/>
        <pt x="117" y="463" on="0"/>
        <pt x="187" y="538" on="1"/>
        <pt x="305" y="664" on="0"/>
        <pt x="480" y="763" on="0"/>
        <pt x="567" y="763" on="1"/>
        <pt x="645" y="763" on="0"/>
        <pt x="755" y="684" on="0"/>
        <pt x="791" y="617" on="1"/>
        <pt x="958" y="649" on="0"/>
        <pt x="1161" y="496" on="0"/>
      </contour>
    </TTGlyph>
    <TTGlyph name="H" xMin="-10" yMin="-9" xMax="1335" yMax="763">
      <contour>
        <pt x="-10" y="341" on="1"/>
        <pt x="-10" y="413" on="1"/>
        <pt x="314" y="442" on="0"/>
        <pt x="710" y="628" on="0"/>
        <pt x="843" y="759" on="1"/>
        <pt x="859" y="761" on="0"/>
        <pt x="888" y="763" on="0"/>
        <pt x="898" y="763" on="1"/>
        <pt x="1061" y="763" on="0"/>
        <pt x="1335" y="538" on="0"/>
        <pt x="1335" y="377" on="1"/>
        <pt x="1335" y="216" on="0"/>
        <pt x="1061" y="-9" on="0"/>
        <pt x="898" y="-9" on="1"/>
        <pt x="888" y="-9" on="0"/>
        <pt x="859" y="-7" on="0"/>
        <pt x="843" y="-5" on="1"/>
        <pt x="710" y="126" on="0"/>
        <pt x="314" y="312" on="0"/>
      </contour>
    </TTGlyph>
    <TTGlyph name="I" xMin="-3" yMin="-15" xMax="1195" yMax="769">
      <contour>
        <pt x="1195" y="357" on="1"/>
        <pt x="1162" y="290" on="0"/>
        <pt x="1043" y="201" on="0"/>
        <pt x="961" y="201" on="1"/>
        <pt x="921" y="201" on="0"/>
        <pt x="813" y="230" on="0"/>
        <pt x="740" y="261" on="1"/>
        <pt x="762" y="238" on="0"/>
        <pt x="782" y="188" on="0"/>
        <pt x="782" y="160" on="1"/>
        <pt x="782" y="102" on="0"/>
        <pt x="697" y="11" on="0"/>
        <pt x="628" y="11" on="1"/>
        <pt x="563" y="11" on="0"/>
        <pt x="484" y="87" on="0"/>
        <pt x="484" y="132" on="1"/>
        <pt x="484" y="192" on="0"/>
        <pt x="587" y="258" on="0"/>
        <pt x="656" y="242" on="1"/>
        <pt x="622" y="276" on="0"/>
        <pt x="522" y="313" on="0"/>
        <pt x="461" y="323" on="1"/>
        <pt x="410" y="331" on="0"/>
        <pt x="331" y="338" on="0"/>
        <pt x="224" y="340" on="1"/>
        <pt x="325" y="295" on="0"/>
        <pt x="417" y="132" on="0"/>
        <pt x="417" y="7" on="1"/>
        <pt x="411" y="-1" on="1"/>
        <pt x="224" y="-15" on="0"/>
        <pt x="-3" y="214" on="0"/>
        <pt x="-3" y="377" on="1"/>
        <pt x="-3" y="540" on="0"/>
        <pt x="224" y="769" on="0"/>
        <pt x="411" y="755" on="1"/>
        <pt x="417" y="747" on="1"/>
        <pt x="417" y="622" on="0"/>
        <pt x="325" y="459" on="0"/>
        <pt x="224" y="414" on="1"/>
        <pt x="331" y="416" on="0"/>
        <pt x="410" y="423" on="0"/>
        <pt x="461" y="431" on="1"/>
        <pt x="522" y="441" on="0"/>
        <pt x="622" y="478" on="0"/>
        <pt x="656" y="512" on="1"/>
        <pt x="587" y="496" on="0"/>
        <pt x="484" y="562" on="0"/>
        <pt x="484" y="622" on="1"/>
        <pt x="484" y="667" on="0"/>
        <pt x="563" y="743" on="0"/>
        <pt x="628" y="743" on="1"/>
        <pt x="697" y="743" on="0"/>
        <pt x="782" y="652" on="0"/>
        <pt x="782" y="594" on="1"/>
        <pt x="782" y="566" on="0"/>
        <pt x="762" y="516" on="0"/>
        <pt x="740" y="493" on="1"/>
        <pt x="813" y="524" on="0"/>
        <pt x="921" y="553" on="0"/>
        <pt x="961" y="553" on="1"/>
        <pt x="1043" y="553" on="0"/>
        <pt x="1162" y="464" on="0"/>
        <pt x="1195" y="397" on="1"/>
      </contour>
    </TTGlyph>
    <TTGlyph name="J" xMin="-3" yMin="-16" xMax="2291" yMax="770">
      <contour>
        <pt x="101" y="377" on="1"/>
        <pt x="62" y="390" on="0"/>
        <pt x="-3" y="470" on="0"/>
        <pt x="-3" y="539" on="1"/>
        <pt x="-3" y="616" on="0"/>
        <pt x="141" y="770" on="0"/>
        <pt x="321" y="770" on="1"/>
        <pt x="605" y="770" on="0"/>
        <pt x="1073" y="511" on="0"/>
        <pt x="1339" y="511" on="1"/>
        <pt x="1579" y="511" on="0"/>
        <pt x="1806" y="752" on="0"/>
        <pt x="1963" y="752" on="1"/>
        <pt x="2041" y="752" on="0"/>
        <pt x="2101" y="692" on="0"/>
        <pt x="2101" y="659" on="1"/>
        <pt x="2101" y="624" on="0"/>
        <pt x="2049" y="556" on="0"/>
        <pt x="2010" y="534" on="1"/>
        <pt x="2137" y="540" on="0"/>
        <pt x="2291" y="447" on="0"/>
        <pt x="2291" y="377" on="1"/>
        <pt x="2291" y="307" on="0"/>
        <pt x="2137" y="214" on="0"/>
        <pt x="2010" y="220" on="1"/>
        <pt x="2049" y="198" on="0"/>
        <pt x="2101" y="130" on="0"/>
        <pt x="2101" y="95" on="1"/>
        <pt x="2101" y="62" on="0"/>
        <pt x="2041" y="2" on="0"/>
        <pt x="1963" y="2" on="1"/>
        <pt x="1806" y="2" on="0"/>
        <pt x="1579" y="243" on="0"/>
        <pt x="1339" y="243" on="1"/>
        <pt x="1073" y="243" on="0"/>
        <pt x="605" y="-16" on="0"/>
        <pt x="321" y="-16" on="1"/>
        <pt x="141" y="-16" on="0"/>
        <pt x="-3" y="138" on="0"/>
        <pt x="-3" y="215" on="1"/>
        <pt x="-3" y="284" on="0"/>
        <pt x="62" y="364" on="0"/>
      </contour>
      <contour>
        <pt x="495" y="377" on="1"/>
        <pt x="495" y="508" on="0"/>
        <pt x="358" y="673" on="0"/>
        <pt x="259" y="673" on="1"/>
        <pt x="172" y="673" on="0"/>
        <pt x="85" y="581" on="0"/>
        <pt x="85" y="532" on="1"/>
        <pt x="85" y="495" on="0"/>
        <pt x="129" y="435" on="0"/>
        <pt x="168" y="422" on="1"/>
        <pt x="174" y="501" on="0"/>
        <pt x="240" y="590" on="0"/>
        <pt x="281" y="590" on="1"/>
        <pt x="321" y="590" on="0"/>
        <pt x="363" y="542" on="0"/>
        <pt x="363" y="502" on="1"/>
        <pt x="363" y="462" on="0"/>
        <pt x="289" y="387" on="0"/>
        <pt x="237" y="377" on="1"/>
        <pt x="289" y="367" on="0"/>
        <pt x="363" y="292" on="0"/>
        <pt x="363" y="252" on="1"/>
        <pt x="363" y="212" on="0"/>
        <pt x="321" y="164" on="0"/>
        <pt x="281" y="164" on="1"/>
        <pt x="240" y="164" on="0"/>
        <pt x="174" y="253" on="0"/>
        <pt x="168" y="332" on="1"/>
        <pt x="129" y="319" on="0"/>
        <pt x="85" y="259" on="0"/>
        <pt x="85" y="222" on="1"/>
        <pt x="85" y="173" on="0"/>
        <pt x="172" y="81" on="0"/>
        <pt x="259" y="81" on="1"/>
        <pt x="358" y="81" on="0"/>
        <pt x="495" y="246" on="0"/>
      </contour>
    </TTGlyph>
    <TTGlyph name="K" xMin="-3" yMin="-19" xMax="755" yMax="773">
      <contour>
        <pt x="-3" y="377" on="1"/>
        <pt x="-3" y="533" on="0"/>
        <pt x="225" y="767" on="0"/>
        <pt x="423" y="770" on="1"/>
        <pt x="615" y="773" on="0"/>
        <pt x="755" y="608" on="0"/>
        <pt x="755" y="536" on="1"/>
        <pt x="755" y="487" on="0"/>
        <pt x="687" y="401" on="0"/>
        <pt x="611" y="377" on="1"/>
        <pt x="687" y="353" on="0"/>
        <pt x="755" y="267" on="0"/>
        <pt x="755" y="218" on="1"/>
        <pt x="755" y="146" on="0"/>
        <pt x="615" y="-19" on="0"/>
        <pt x="423" y="-16" on="1"/>
        <pt x="225" y="-13" on="0"/>
        <pt x="-3" y="221" on="0"/>
      </contour>
    </TTGlyph>
    <TTGlyph name="L" xMin="-3" yMin="4" xMax="696" yMax="750">
      <contour>
        <pt x="400" y="750" on="1"/>
        <pt x="519" y="750" on="0"/>
        <pt x="696" y="644" on="0"/>
        <pt x="696" y="561" on="1"/>
        <pt x="696" y="557" on="1"/>
        <pt x="696" y="509" on="0"/>
        <pt x="627" y="441" on="0"/>
        <pt x="579" y="441" on="1"/>
        <pt x="531" y="441" on="0"/>
        <pt x="463" y="509" on="0"/>
        <pt x="463" y="557" on="1"/>
        <pt x="463" y="593" on="0"/>
        <pt x="509" y="651" on="0"/>
        <pt x="534" y="664" on="1"/>
        <pt x="440" y="649" on="0"/>
        <pt x="321" y="493" on="0"/>
        <pt x="321" y="377" on="1"/>
        <pt x="321" y="261" on="0"/>
        <pt x="440" y="104" on="0"/>
        <pt x="535" y="90" on="1"/>
        <pt x="510" y="103" on="0"/>
        <pt x="463" y="161" on="0"/>
        <pt x="463" y="197" on="1"/>
        <pt x="463" y="245" on="0"/>
        <pt x="531" y="313" on="0"/>
        <pt x="579" y="313" on="1"/>
        <pt x="627" y="313" on="0"/>
        <pt x="696" y="245" on="0"/>
        <pt x="696" y="197" on="1"/>
        <pt x="696" y="193" on="1"/>
        <pt x="696" y="110" on="0"/>
        <pt x="519" y="4" on="0"/>
        <pt x="400" y="4" on="1"/>
        <pt x="230" y="4" on="0"/>
        <pt x="-3" y="217" on="0"/>
        <pt x="-3" y="377" on="1"/>
        <pt x="-3" y="537" on="0"/>
        <pt x="230" y="750" on="0"/>
      </contour>
    </TTGlyph>
    <TTGlyph name="M" xMin="-3" yMin="-35" xMax="1925" yMax="769">
      <contour>
        <pt x="1218" y="417" on="1"/>
        <pt x="1304" y="432" on="0"/>
        <pt x="1459" y="516" on="0"/>
        <pt x="1516" y="584" on="1"/>
        <pt x="1507" y="597" on="0"/>
        <pt x="1500" y="622" on="0"/>
        <pt x="1500" y="638" on="1"/>
        <pt x="1500" y="689" on="0"/>
        <pt x="1609" y="769" on="0"/>
        <pt x="1693" y="769" on="1"/>
        <pt x="1784" y="769" on="0"/>
        <pt x="1905" y="678" on="0"/>
        <pt x="1905" y="609" on="1"/>
        <pt x="1905" y="573" on="0"/>
        <pt x="1861" y="506" on="0"/>
        <pt x="1816" y="492" on="1"/>
        <pt x="1878" y="452" on="0"/>
        <pt x="1925" y="377" on="0"/>
        <pt x="1925" y="344" on="1"/>
        <pt x="1925" y="310" on="0"/>
        <pt x="1868" y="259" on="0"/>
        <pt x="1819" y="242" on="1"/>
        <pt x="1864" y="205" on="0"/>
        <pt x="1906" y="136" on="0"/>
        <pt x="1905" y="102" on="1"/>
        <pt x="1901" y="36" on="0"/>
        <pt x="1788" y="-35" on="0"/>
        <pt x="1719" y="-35" on="1"/>
        <pt x="1653" y="-35" on="0"/>
        <pt x="1521" y="39" on="0"/>
        <pt x="1491" y="103" on="1"/>
        <pt x="1506" y="113" on="0"/>
        <pt x="1522" y="129" on="0"/>
        <pt x="1522" y="140" on="1"/>
        <pt x="1522" y="178" on="0"/>
        <pt x="1370" y="262" on="0"/>
        <pt x="1260" y="254" on="1"/>
        <pt x="1261" y="174" on="0"/>
        <pt x="1188" y="81" on="0"/>
        <pt x="1129" y="81" on="1"/>
        <pt x="1089" y="81" on="0"/>
        <pt x="1003" y="133" on="0"/>
        <pt x="971" y="190" on="1"/>
        <pt x="864" y="61" on="0"/>
        <pt x="571" y="-35" on="0"/>
        <pt x="443" y="-35" on="1"/>
        <pt x="217" y="-35" on="0"/>
        <pt x="-3" y="203" on="0"/>
        <pt x="-3" y="354" on="1"/>
        <pt x="-3" y="496" on="0"/>
        <pt x="185" y="714" on="0"/>
        <pt x="342" y="714" on="1"/>
        <pt x="457" y="714" on="0"/>
        <pt x="620" y="566" on="0"/>
        <pt x="620" y="459" on="1"/>
        <pt x="620" y="373" on="0"/>
        <pt x="510" y="259" on="0"/>
        <pt x="429" y="259" on="1"/>
        <pt x="350" y="259" on="0"/>
        <pt x="279" y="344" on="0"/>
        <pt x="279" y="395" on="1"/>
        <pt x="279" y="453" on="0"/>
        <pt x="358" y="530" on="0"/>
        <pt x="418" y="530" on="1"/>
        <pt x="443" y="530" on="0"/>
        <pt x="490" y="517" on="0"/>
        <pt x="515" y="504" on="1"/>
        <pt x="497" y="576" on="0"/>
        <pt x="388" y="628" on="0"/>
        <pt x="339" y="628" on="1"/>
        <pt x="239" y="628" on="0"/>
        <pt x="93" y="474" on="0"/>
        <pt x="93" y="359" on="1"/>
        <pt x="93" y="234" on="0"/>
        <pt x="258" y="64" on="0"/>
        <pt x="370" y="64" on="1"/>
        <pt x="577" y="64" on="0"/>
        <pt x="666" y="395" on="0"/>
        <pt x="803" y="395" on="1"/>
        <pt x="836" y="395" on="0"/>
        <pt x="900" y="368" on="0"/>
        <pt x="928" y="349" on="1"/>
        <pt x="925" y="438" on="0"/>
        <pt x="1006" y="531" on="0"/>
        <pt x="1060" y="531" on="1"/>
        <pt x="1102" y="531" on="0"/>
        <pt x="1184" y="478" on="0"/>
      </contour>
    </TTGlyph>
    <TTGlyph name="N" xMin="-3" yMin="-36" xMax="1925" yMax="768">
      <contour>
        <pt x="1218" y="316" on="1"/>
        <pt x="1184" y="255" on="0"/>
        <pt x="1102" y="202" on="0"/>
        <pt x="1060" y="202" on="1"/>
        <pt x="1006" y="202" on="0"/>
        <pt x="925" y="295" on="0"/>
        <pt x="928" y="384" on="1"/>
        <pt x="900" y="365" on="0"/>
        <pt x="836" y="338" on="0"/>
        <pt x="803" y="338" on="1"/>
        <pt x="666" y="338" on="0"/>
        <pt x="577" y="669" on="0"/>
        <pt x="370" y="669" on="1"/>
        <pt x="258" y="669" on="0"/>
        <pt x="93" y="499" on="0"/>
        <pt x="93" y="374" on="1"/>
        <pt x="93" y="259" on="0"/>
        <pt x="239" y="105" on="0"/>
        <pt x="339" y="105" on="1"/>
        <pt x="388" y="105" on="0"/>
        <pt x="497" y="157" on="0"/>
        <pt x="515" y="229" on="1"/>
        <pt x="490" y="216" on="0"/>
        <pt x="443" y="203" on="0"/>
        <pt x="418" y="203" on="1"/>
        <pt x="358" y="203" on="0"/>
        <pt x="279" y="280" on="0"/>
        <pt x="279" y="338" on="1"/>
        <pt x="279" y="389" on="0"/>
        <pt x="350" y="474" on="0"/>
        <pt x="429" y="474" on="1"/>
        <pt x="510" y="474" on="0"/>
        <pt x="620" y="360" on="0"/>
        <pt x="620" y="274" on="1"/>
        <pt x="620" y="167" on="0"/>
        <pt x="457" y="19" on="0"/>
        <pt x="342" y="19" on="1"/>
        <pt x="185" y="19" on="0"/>
        <pt x="-3" y="237" on="0"/>
        <pt x="-3" y="379" on="1"/>
        <pt x="-3" y="530" on="0"/>
        <pt x="217" y="768" on="0"/>
        <pt x="443" y="768" on="1"/>
        <pt x="571" y="768" on="0"/>
        <pt x="864" y="672" on="0"/>
        <pt x="971" y="543" on="1"/>
        <pt x="1003" y="600" on="0"/>
        <pt x="1089" y="652" on="0"/>
        <pt x="1129" y="652" on="1"/>
        <pt x="1188" y="652" on="0"/>
        <pt x="1261" y="559" on="0"/>
        <pt x="1260" y="479" on="1"/>
        <pt x="1370" y="471" on="0"/>
        <pt x="1522" y="555" on="0"/>
        <pt x="1522" y="593" on="1"/>
        <pt x="1522" y="604" on="0"/>
        <pt x="1506" y="620" on="0"/>
        <pt x="1491" y="630" on="1"/>
        <pt x="1521" y="694" on="0"/>
        <pt x="1653" y="768" on="0"/>
        <pt x="1719" y="768" on="1"/>
        <pt x="1788" y="768" on="0"/>
        <pt x="1901" y="697" on="0"/>
        <pt x="1905" y="631" on="1"/>
        <pt x="1906" y="597" on="0"/>
        <pt x="1864" y="528" on="0"/>
        <pt x="1819" y="491" on="1"/>
        <pt x="1868" y="474" on="0"/>
        <pt x="1925" y="423" on="0"/>
        <pt x="1925" y="389" on="1"/>
        <pt x="1925" y="356" on="0"/>
        <pt x="1878" y="281" on="0"/>
        <pt x="1816" y="241" on="1"/>
        <pt x="1861" y="227" on="0"/>
        <pt x="1905" y="160" on="0"/>
        <pt x="1905" y="124" on="1"/>
        <pt x="1905" y="55" on="0"/>
        <pt x="1784" y="-36" on="0"/>
        <pt x="1693" y="-36" on="1"/>
        <pt x="1609" y="-36" on="0"/>
        <pt x="1500" y="44" on="0"/>
        <pt x="1500" y="95" on="1"/>
        <pt x="1500" y="111" on="0"/>
        <pt x="1507" y="136" on="0"/>
        <pt x="1516" y="149" on="1"/>
        <pt x="1459" y="217" on="0"/>
        <pt x="1304" y="301" on="0"/>
      </contour>
    </TTGlyph>
    <TTGlyph name="O" xMin="-3" yMin="-17" xMax="2422" yMax="780">
      <contour>
        <pt x="2164" y="630" on="1"/>
        <pt x="2287" y="630" on="0"/>
        <pt x="2422" y="505" on="0"/>
        <pt x="2422" y="398" on="1"/>
        <pt x="2422" y="300" on="0"/>
        <pt x="2275" y="162" on="0"/>
        <pt x="2180" y="162" on="1"/>
        <pt x="2116" y="162" on="0"/>
        <pt x="2052" y="223" on="0"/>
        <pt x="2052" y="265" on="1"/>
        <pt x="2052" y="327" on="0"/>
        <pt x="2187" y="451" on="0"/>
        <pt x="2321" y="458" on="1"/>
        <pt x="2302" y="509" on="0"/>
        <pt x="2214" y="541" on="0"/>
        <pt x="2164" y="541" on="1"/>
        <pt x="2091" y="541" on="0"/>
        <pt x="1953" y="467" on="0"/>
        <pt x="1895" y="423" on="1"/>
        <pt x="1929" y="416" on="0"/>
        <pt x="1994" y="410" on="0"/>
        <pt x="2022" y="406" on="1"/>
        <pt x="2026" y="398" on="1"/>
        <pt x="1961" y="302" on="0"/>
        <pt x="1783" y="220" on="0"/>
        <pt x="1734" y="236" on="1"/>
        <pt x="1772" y="219" on="0"/>
        <pt x="1829" y="172" on="0"/>
        <pt x="1834" y="149" on="1"/>
        <pt x="1747" y="92" on="0"/>
        <pt x="1485" y="68" on="0"/>
        <pt x="1399" y="126" on="1"/>
        <pt x="1432" y="95" on="0"/>
        <pt x="1470" y="34" on="0"/>
        <pt x="1470" y="3" on="1"/>
        <pt x="1331" y="-17" on="0"/>
        <pt x="1113" y="37" on="0"/>
        <pt x="1013" y="102" on="1"/>
        <pt x="1024" y="79" on="0"/>
        <pt x="1034" y="38" on="0"/>
        <pt x="1033" y="23" on="1"/>
        <pt x="888" y="-4" on="0"/>
        <pt x="767" y="106" on="0"/>
        <pt x="707" y="135" on="1"/>
        <pt x="713" y="92" on="0"/>
        <pt x="696" y="26" on="0"/>
        <pt x="679" y="21" on="1"/>
        <pt x="652" y="73" on="0"/>
        <pt x="442" y="145" on="0"/>
        <pt x="317" y="152" on="1"/>
        <pt x="168" y="163" on="0"/>
        <pt x="-3" y="315" on="0"/>
        <pt x="-3" y="434" on="1"/>
        <pt x="-3" y="532" on="0"/>
        <pt x="129" y="650" on="0"/>
        <pt x="209" y="650" on="1"/>
        <pt x="289" y="650" on="0"/>
        <pt x="367" y="562" on="0"/>
        <pt x="367" y="507" on="1"/>
        <pt x="367" y="454" on="0"/>
        <pt x="282" y="368" on="0"/>
        <pt x="213" y="368" on="1"/>
        <pt x="185" y="368" on="0"/>
        <pt x="120" y="392" on="0"/>
        <pt x="87" y="420" on="1"/>
        <pt x="91" y="338" on="0"/>
        <pt x="206" y="267" on="0"/>
        <pt x="257" y="267" on="1"/>
        <pt x="347" y="267" on="0"/>
        <pt x="515" y="393" on="0"/>
        <pt x="531" y="501" on="1"/>
        <pt x="543" y="508" on="1"/>
        <pt x="563" y="499" on="0"/>
        <pt x="607" y="449" on="0"/>
        <pt x="614" y="418" on="1"/>
        <pt x="658" y="515" on="0"/>
        <pt x="765" y="670" on="0"/>
        <pt x="866" y="700" on="1"/>
        <pt x="885" y="679" on="0"/>
        <pt x="901" y="582" on="0"/>
        <pt x="865" y="525" on="1"/>
        <pt x="949" y="647" on="0"/>
        <pt x="1165" y="780" on="0"/>
        <pt x="1340" y="767" on="1"/>
        <pt x="1342" y="745" on="0"/>
        <pt x="1329" y="688" on="0"/>
        <pt x="1309" y="660" on="1"/>
        <pt x="1384" y="714" on="0"/>
        <pt x="1604" y="749" on="0"/>
        <pt x="1671" y="726" on="1"/>
        <pt x="1668" y="707" on="0"/>
        <pt x="1651" y="664" on="0"/>
        <pt x="1635" y="641" on="1"/>
        <pt x="1731" y="701" on="0"/>
        <pt x="1906" y="703" on="0"/>
        <pt x="1947" y="687" on="1"/>
        <pt x="1949" y="651" on="0"/>
        <pt x="1922" y="564" on="0"/>
        <pt x="1873" y="509" on="1"/>
        <pt x="1922" y="549" on="0"/>
        <pt x="2083" y="630" on="0"/>
      </contour>
    </TTGlyph>
    <TTGlyph name="OE" xMin="-10" yMin="2" xMax="716" yMax="752">
      <contour>
        <pt x="-10" y="341" on="1"/>
        <pt x="-10" y="413" on="1"/>
        <pt x="231" y="481" on="1"/>
        <pt x="318" y="752" on="1"/>
        <pt x="388" y="752" on="1"/>
        <pt x="475" y="481" on="1"/>
        <pt x="716" y="413" on="1"/>
        <pt x="716" y="341" on="1"/>
        <pt x="475" y="273" on="1"/>
        <pt x="388" y="2" on="1"/>
        <pt x="318" y="2" on="1"/>
        <pt x="231" y="273" on="1"/>
      </contour>
    </TTGlyph>
    <TTGlyph name="Oslash" xMin="-3" yMin="-21" xMax="755" yMax="776">
      <contour>
        <pt x="376" y="-21" on="1"/>
        <pt x="211" y="-21" on="0"/>
        <pt x="-3" y="214" on="0"/>
        <pt x="-3" y="377" on="1"/>
        <pt x="-3" y="540" on="0"/>
        <pt x="211" y="776" on="0"/>
        <pt x="376" y="776" on="1"/>
        <pt x="541" y="776" on="0"/>
        <pt x="755" y="540" on="0"/>
        <pt x="755" y="377" on="1"/>
        <pt x="755" y="214" on="0"/>
        <pt x="541" y="-21" on="0"/>
      </contour>
    </TTGlyph>
    <TTGlyph name="P" xMin="-3" yMin="-26" xMax="2422" yMax="771">
      <contour>
        <pt x="2164" y="124" on="1"/>
        <pt x="2083" y="124" on="0"/>
        <pt x="1922" y="205" on="0"/>
        <pt x="1873" y="245" on="1"/>
        <pt x="1922" y="190" on="0"/>
        <pt x="1949" y="103" on="0"/>
        <pt x="1947" y="67" on="1"/>
        <pt x="1906" y="51" on="0"/>
        <pt x="1731" y="53" on="0"/>
        <pt x="1635" y="113" on="1"/>
        <pt x="1651" y="90" on="0"/>
        <pt x="1668" y="47" on="0"/>
        <pt x="1671" y="28" on="1"/>
        <pt x="1604" y="5" on="0"/>
        <pt x="1384" y="40" on="0"/>
        <pt x="1309" y="94" on="1"/>
        <pt x="1329" y="66" on="0"/>
        <pt x="1342" y="9" on="0"/>
        <pt x="1340" y="-13" on="1"/>
        <pt x="1165" y="-26" on="0"/>
        <pt x="949" y="107" on="0"/>
        <pt x="865" y="229" on="1"/>
        <pt x="901" y="172" on="0"/>
        <pt x="885" y="75" on="0"/>
        <pt x="866" y="54" on="1"/>
        <pt x="765" y="84" on="0"/>
        <pt x="658" y="239" on="0"/>
        <pt x="614" y="336" on="1"/>
        <pt x="607" y="305" on="0"/>
        <pt x="563" y="255" on="0"/>
        <pt x="543" y="246" on="1"/>
        <pt x="531" y="253" on="1"/>
        <pt x="515" y="361" on="0"/>
        <pt x="347" y="487" on="0"/>
        <pt x="257" y="487" on="1"/>
        <pt x="206" y="487" on="0"/>
        <pt x="91" y="416" on="0"/>
        <pt x="87" y="334" on="1"/>
        <pt x="120" y="362" on="0"/>
        <pt x="185" y="386" on="0"/>
        <pt x="213" y="386" on="1"/>
        <pt x="282" y="386" on="0"/>
        <pt x="367" y="300" on="0"/>
        <pt x="367" y="247" on="1"/>
        <pt x="367" y="192" on="0"/>
        <pt x="289" y="104" on="0"/>
        <pt x="209" y="104" on="1"/>
        <pt x="129" y="104" on="0"/>
        <pt x="-3" y="222" on="0"/>
        <pt x="-3" y="320" on="1"/>
        <pt x="-3" y="439" on="0"/>
        <pt x="168" y="591" on="0"/>
        <pt x="317" y="602" on="1"/>
        <pt x="442" y="609" on="0"/>
        <pt x="652" y="681" on="0"/>
        <pt x="679" y="733" on="1"/>
        <pt x="696" y="728" on="0"/>
        <pt x="713" y="662" on="0"/>
        <pt x="707" y="619" on="1"/>
        <pt x="767" y="648" on="0"/>
        <pt x="888" y="758" on="0"/>
        <pt x="1033" y="731" on="1"/>
        <pt x="1034" y="716" on="0"/>
        <pt x="1024" y="675" on="0"/>
        <pt x="1013" y="652" on="1"/>
        <pt x="1113" y="717" on="0"/>
        <pt x="1331" y="771" on="0"/>
        <pt x="1470" y="751" on="1"/>
        <pt x="1470" y="720" on="0"/>
        <pt x="1432" y="659" on="0"/>
        <pt x="1399" y="628" on="1"/>
        <pt x="1485" y="686" on="0"/>
        <pt x="1747" y="662" on="0"/>
        <pt x="1834" y="605" on="1"/>
        <pt x="1829" y="582" on="0"/>
        <pt x="1772" y="535" on="0"/>
        <pt x="1734" y="518" on="1"/>
        <pt x="1783" y="534" on="0"/>
        <pt x="1961" y="452" on="0"/>
        <pt x="2026" y="356" on="1"/>
        <pt x="2022" y="348" on="1"/>
        <pt x="1994" y="344" on="0"/>
        <pt x="1929" y="338" on="0"/>
        <pt x="1895" y="331" on="1"/>
        <pt x="1953" y="287" on="0"/>
        <pt x="2091" y="213" on="0"/>
        <pt x="2164" y="213" on="1"/>
        <pt x="2214" y="213" on="0"/>
        <pt x="2302" y="245" on="0"/>
        <pt x="2321" y="296" on="1"/>
        <pt x="2187" y="303" on="0"/>
        <pt x="2052" y="427" on="0"/>
        <pt x="2052" y="489" on="1"/>
        <pt x="2052" y="531" on="0"/>
        <pt x="2116" y="592" on="0"/>
        <pt x="2180" y="592" on="1"/>
        <pt x="2275" y="592" on="0"/>
        <pt x="2422" y="454" on="0"/>
        <pt x="2422" y="356" on="1"/>
        <pt x="2422" y="249" on="0"/>
        <pt x="2287" y="124" on="0"/>
      </contour>
    </TTGlyph>
    <TTGlyph name="Q" xMin="-3" yMin="5" xMax="2093" yMax="785">
      <contour>
        <pt x="1828" y="118" on="1"/>
        <pt x="1903" y="125" on="0"/>
        <pt x="2008" y="225" on="0"/>
        <pt x="2008" y="312" on="1"/>
        <pt x="2008" y="411" on="0"/>
        <pt x="1882" y="532" on="0"/>
        <pt x="1790" y="532" on="1"/>
        <pt x="1621" y="532" on="0"/>
        <pt x="1485" y="221" on="0"/>
        <pt x="1283" y="221" on="1"/>
        <pt x="1245" y="221" on="0"/>
        <pt x="1167" y="247" on="0"/>
        <pt x="1133" y="267" on="1"/>
        <pt x="1151" y="209" on="0"/>
        <pt x="1118" y="77" on="0"/>
        <pt x="1072" y="31" on="1"/>
        <pt x="1055" y="28" on="1"/>
        <pt x="1037" y="93" on="0"/>
        <pt x="924" y="152" on="0"/>
        <pt x="863" y="152" on="1"/>
        <pt x="725" y="152" on="0"/>
        <pt x="509" y="5" on="0"/>
        <pt x="294" y="5" on="1"/>
        <pt x="148" y="5" on="0"/>
        <pt x="-3" y="186" on="0"/>
        <pt x="-3" y="295" on="1"/>
        <pt x="-3" y="393" on="0"/>
        <pt x="74" y="537" on="0"/>
        <pt x="125" y="580" on="1"/>
        <pt x="186" y="631" on="0"/>
        <pt x="377" y="668" on="0"/>
        <pt x="433" y="600" on="1"/>
        <pt x="496" y="526" on="0"/>
        <pt x="426" y="343" on="0"/>
        <pt x="377" y="298" on="1"/>
        <pt x="317" y="243" on="0"/>
        <pt x="179" y="207" on="0"/>
        <pt x="120" y="235" on="1"/>
        <pt x="116" y="237" on="0"/>
        <pt x="109" y="241" on="0"/>
        <pt x="106" y="243" on="1"/>
        <pt x="119" y="194" on="0"/>
        <pt x="182" y="123" on="0"/>
        <pt x="246" y="123" on="1"/>
        <pt x="361" y="123" on="0"/>
        <pt x="559" y="258" on="0"/>
        <pt x="668" y="375" on="1"/>
        <pt x="832" y="551" on="0"/>
        <pt x="1224" y="785" on="0"/>
        <pt x="1465" y="785" on="1"/>
        <pt x="1772" y="785" on="0"/>
        <pt x="2093" y="513" on="0"/>
        <pt x="2093" y="326" on="1"/>
        <pt x="2093" y="183" on="0"/>
        <pt x="1925" y="40" on="0"/>
        <pt x="1813" y="40" on="1"/>
        <pt x="1716" y="40" on="0"/>
        <pt x="1601" y="144" on="0"/>
        <pt x="1601" y="231" on="1"/>
        <pt x="1601" y="291" on="0"/>
        <pt x="1686" y="387" on="0"/>
        <pt x="1761" y="387" on="1"/>
        <pt x="1824" y="387" on="0"/>
        <pt x="1905" y="300" on="0"/>
        <pt x="1905" y="243" on="1"/>
        <pt x="1905" y="217" on="0"/>
        <pt x="1870" y="142" on="0"/>
        <pt x="1827" y="126" on="1"/>
      </contour>
    </TTGlyph>
    <TTGlyph name="R" xMin="-3" yMin="-33" xMax="2093" yMax="747">
      <contour>
        <pt x="1828" y="634" on="1"/>
        <pt x="1827" y="626" on="1"/>
        <pt x="1870" y="610" on="0"/>
        <pt x="1905" y="535" on="0"/>
        <pt x="1905" y="509" on="1"/>
        <pt x="1905" y="452" on="0"/>
        <pt x="1824" y="365" on="0"/>
        <pt x="1761" y="365" on="1"/>
        <pt x="1686" y="365" on="0"/>
        <pt x="1601" y="461" on="0"/>
        <pt x="1601" y="521" on="1"/>
        <pt x="1601" y="608" on="0"/>
        <pt x="1716" y="712" on="0"/>
        <pt x="1813" y="712" on="1"/>
        <pt x="1925" y="712" on="0"/>
        <pt x="2093" y="569" on="0"/>
        <pt x="2093" y="426" on="1"/>
        <pt x="2093" y="239" on="0"/>
        <pt x="1772" y="-33" on="0"/>
        <pt x="1465" y="-33" on="1"/>
        <pt x="1224" y="-33" on="0"/>
        <pt x="832" y="201" on="0"/>
        <pt x="668" y="377" on="1"/>
        <pt x="559" y="494" on="0"/>
        <pt x="361" y="629" on="0"/>
        <pt x="246" y="629" on="1"/>
        <pt x="182" y="629" on="0"/>
        <pt x="119" y="558" on="0"/>
        <pt x="106" y="509" on="1"/>
        <pt x="109" y="511" on="0"/>
        <pt x="116" y="515" on="0"/>
        <pt x="120" y="517" on="1"/>
        <pt x="179" y="545" on="0"/>
        <pt x="317" y="509" on="0"/>
        <pt x="377" y="454" on="1"/>
        <pt x="426" y="409" on="0"/>
        <pt x="496" y="226" on="0"/>
        <pt x="433" y="152" on="1"/>
        <pt x="377" y="84" on="0"/>
        <pt x="186" y="121" on="0"/>
        <pt x="125" y="172" on="1"/>
        <pt x="74" y="215" on="0"/>
        <pt x="-3" y="359" on="0"/>
        <pt x="-3" y="457" on="1"/>
        <pt x="-3" y="566" on="0"/>
        <pt x="148" y="747" on="0"/>
        <pt x="294" y="747" on="1"/>
        <pt x="509" y="747" on="0"/>
        <pt x="725" y="600" on="0"/>
        <pt x="863" y="600" on="1"/>
        <pt x="924" y="600" on="0"/>
        <pt x="1037" y="659" on="0"/>
        <pt x="1055" y="724" on="1"/>
        <pt x="1072" y="721" on="1"/>
        <pt x="1118" y="675" on="0"/>
        <pt x="1151" y="543" on="0"/>
        <pt x="1133" y="485" on="1"/>
        <pt x="1167" y="505" on="0"/>
        <pt x="1245" y="531" on="0"/>
        <pt x="1283" y="531" on="1"/>
        <pt x="1485" y="531" on="0"/>
        <pt x="1621" y="220" on="0"/>
        <pt x="1790" y="220" on="1"/>
        <pt x="1882" y="220" on="0"/>
        <pt x="2008" y="341" on="0"/>
        <pt x="2008" y="440" on="1"/>
        <pt x="2008" y="527" on="0"/>
        <pt x="1903" y="627" on="0"/>
      </contour>
    </TTGlyph>
    <TTGlyph name="S" xMin="-3" yMin="-9" xMax="1727" yMax="823">
      <contour>
        <pt x="1613" y="211" on="1"/>
        <pt x="1625" y="231" on="0"/>
        <pt x="1641" y="283" on="0"/>
        <pt x="1641" y="328" on="1"/>
        <pt x="1641" y="423" on="0"/>
        <pt x="1522" y="559" on="0"/>
        <pt x="1412" y="559" on="1"/>
        <pt x="1169" y="559" on="0"/>
        <pt x="696" y="66" on="0"/>
        <pt x="373" y="66" on="1"/>
        <pt x="201" y="66" on="0"/>
        <pt x="-3" y="241" on="0"/>
        <pt x="-3" y="386" on="1"/>
        <pt x="-3" y="506" on="0"/>
        <pt x="138" y="635" on="0"/>
        <pt x="216" y="635" on="1"/>
        <pt x="273" y="635" on="0"/>
        <pt x="355" y="556" on="0"/>
        <pt x="355" y="496" on="1"/>
        <pt x="355" y="434" on="0"/>
        <pt x="271" y="359" on="0"/>
        <pt x="216" y="359" on="1"/>
        <pt x="162" y="359" on="0"/>
        <pt x="93" y="421" on="0"/>
        <pt x="91" y="474" on="1"/>
        <pt x="84" y="474" on="1"/>
        <pt x="80" y="464" on="0"/>
        <pt x="76" y="438" on="0"/>
        <pt x="76" y="422" on="1"/>
        <pt x="76" y="360" on="0"/>
        <pt x="165" y="270" on="0"/>
        <pt x="240" y="270" on="1"/>
        <pt x="445" y="270" on="0"/>
        <pt x="831" y="823" on="0"/>
        <pt x="1230" y="823" on="1"/>
        <pt x="1471" y="823" on="0"/>
        <pt x="1727" y="557" on="0"/>
        <pt x="1727" y="370" on="1"/>
        <pt x="1727" y="195" on="0"/>
        <pt x="1538" y="-9" on="0"/>
        <pt x="1427" y="-9" on="1"/>
        <pt x="1346" y="-9" on="0"/>
        <pt x="1225" y="94" on="0"/>
        <pt x="1225" y="181" on="1"/>
        <pt x="1225" y="275" on="0"/>
        <pt x="1348" y="385" on="0"/>
        <pt x="1427" y="385" on="1"/>
        <pt x="1505" y="385" on="0"/>
        <pt x="1606" y="285" on="0"/>
        <pt x="1607" y="213" on="1"/>
      </contour>
    </TTGlyph>
    <TTGlyph name="T" xMin="-3" yMin="-67" xMax="1727" yMax="765">
      <contour>
        <pt x="1613" y="545" on="1"/>
        <pt x="1607" y="543" on="1"/>
        <pt x="1606" y="471" on="0"/>
        <pt x="1505" y="371" on="0"/>
        <pt x="1427" y="371" on="1"/>
        <pt x="1348" y="371" on="0"/>
        <pt x="1225" y="481" on="0"/>
        <pt x="1225" y="575" on="1"/>
        <pt x="1225" y="662" on="0"/>
        <pt x="1346" y="765" on="0"/>
        <pt x="1427" y="765" on="1"/>
        <pt x="1538" y="765" on="0"/>
        <pt x="1727" y="561" on="0"/>
        <pt x="1727" y="386" on="1"/>
        <pt x="1727" y="199" on="0"/>
        <pt x="1471" y="-67" on="0"/>
        <pt x="1230" y="-67" on="1"/>
        <pt x="831" y="-67" on="0"/>
        <pt x="445" y="486" on="0"/>
        <pt x="240" y="486" on="1"/>
        <pt x="165" y="486" on="0"/>
        <pt x="76" y="396" on="0"/>
        <pt x="76" y="334" on="1"/>
        <pt x="76" y="318" on="0"/>
        <pt x="80" y="292" on="0"/>
        <pt x="84" y="282" on="1"/>
        <pt x="91" y="282" on="1"/>
        <pt x="93" y="335" on="0"/>
        <pt x="162" y="397" on="0"/>
        <pt x="216" y="397" on="1"/>
        <pt x="271" y="397" on="0"/>
        <pt x="355" y="322" on="0"/>
        <pt x="355" y="260" on="1"/>
        <pt x="355" y="200" on="0"/>
        <pt x="273" y="121" on="0"/>
        <pt x="216" y="121" on="1"/>
        <pt x="138" y="121" on="0"/>
        <pt x="-3" y="250" on="0"/>
        <pt x="-3" y="370" on="1"/>
        <pt x="-3" y="515" on="0"/>
        <pt x="201" y="690" on="0"/>
        <pt x="373" y="690" on="1"/>
        <pt x="696" y="690" on="0"/>
        <pt x="1169" y="197" on="0"/>
        <pt x="1412" y="197" on="1"/>
        <pt x="1522" y="197" on="0"/>
        <pt x="1641" y="333" on="0"/>
        <pt x="1641" y="428" on="1"/>
        <pt x="1641" y="473" on="0"/>
        <pt x="1625" y="525" on="0"/>
      </contour>
    </TTGlyph>
    <TTGlyph name="U" xMin="-3" yMin="-25" xMax="3738" yMax="784">
      <contour>
        <pt x="510" y="754" on="1"/>
        <pt x="1111" y="754" on="0"/>
        <pt x="1523" y="86" on="0"/>
        <pt x="1775" y="86" on="1"/>
        <pt x="1829" y="86" on="0"/>
        <pt x="1915" y="119" on="0"/>
        <pt x="1937" y="147" on="1"/>
        <pt x="1931" y="162" on="1"/>
        <pt x="1777" y="147" on="0"/>
        <pt x="1540" y="323" on="0"/>
        <pt x="1540" y="470" on="1"/>
        <pt x="1540" y="570" on="0"/>
        <pt x="1754" y="784" on="0"/>
        <pt x="2047" y="784" on="1"/>
        <pt x="2663" y="784" on="0"/>
        <pt x="3151" y="113" on="0"/>
        <pt x="3397" y="113" on="1"/>
        <pt x="3486" y="113" on="0"/>
        <pt x="3592" y="198" on="0"/>
        <pt x="3611" y="257" on="1"/>
        <pt x="3591" y="244" on="0"/>
        <pt x="3541" y="231" on="0"/>
        <pt x="3514" y="231" on="1"/>
        <pt x="3418" y="231" on="0"/>
        <pt x="3192" y="400" on="0"/>
        <pt x="3192" y="546" on="1"/>
        <pt x="3192" y="628" on="0"/>
        <pt x="3296" y="730" on="0"/>
        <pt x="3373" y="730" on="1"/>
        <pt x="3511" y="730" on="0"/>
        <pt x="3738" y="520" on="0"/>
        <pt x="3738" y="364" on="1"/>
        <pt x="3738" y="187" on="0"/>
        <pt x="3466" y="5" on="0"/>
        <pt x="3215" y="5" on="1"/>
        <pt x="2577" y="5" on="0"/>
        <pt x="2102" y="660" on="0"/>
        <pt x="1848" y="660" on="1"/>
        <pt x="1798" y="660" on="0"/>
        <pt x="1720" y="631" on="0"/>
        <pt x="1697" y="609" on="1"/>
        <pt x="1705" y="596" on="1"/>
        <pt x="1900" y="583" on="0"/>
        <pt x="2062" y="367" on="0"/>
        <pt x="2062" y="263" on="1"/>
        <pt x="2062" y="150" on="0"/>
        <pt x="1862" y="-25" on="0"/>
        <pt x="1592" y="-25" on="1"/>
        <pt x="940" y="-25" on="0"/>
        <pt x="569" y="632" on="0"/>
        <pt x="309" y="632" on="1"/>
        <pt x="211" y="632" on="0"/>
        <pt x="110" y="523" on="0"/>
        <pt x="108" y="449" on="1"/>
        <pt x="130" y="468" on="0"/>
        <pt x="189" y="487" on="0"/>
        <pt x="221" y="487" on="1"/>
        <pt x="317" y="487" on="0"/>
        <pt x="543" y="318" on="0"/>
        <pt x="543" y="172" on="1"/>
        <pt x="543" y="90" on="0"/>
        <pt x="439" y="-12" on="0"/>
        <pt x="362" y="-12" on="1"/>
        <pt x="224" y="-12" on="0"/>
        <pt x="-3" y="216" on="0"/>
        <pt x="-3" y="400" on="1"/>
        <pt x="-3" y="564" on="0"/>
        <pt x="272" y="754" on="0"/>
      </contour>
    </TTGlyph>
    <TTGlyph name="Uacute" xMin="-20" yMin="133" xMax="1724" yMax="621">
      <contour>
        <pt x="1724" y="377" on="1"/>
        <pt x="1481" y="133" on="1"/>
        <pt x="222" y="133" on="1"/>
        <pt x="-20" y="377" on="1"/>
        <pt x="222" y="621" on="1"/>
        <pt x="1481" y="621" on="1"/>
      </contour>
    </TTGlyph>
    <TTGlyph name="V" xMin="-3" yMin="-1" xMax="1682" yMax="755">
      <contour>
        <pt x="1571" y="568" on="1"/>
        <pt x="1572" y="497" on="0"/>
        <pt x="1486" y="397" on="0"/>
        <pt x="1407" y="397" on="1"/>
        <pt x="1335" y="397" on="0"/>
        <pt x="1224" y="497" on="0"/>
        <pt x="1224" y="582" on="1"/>
        <pt x="1224" y="662" on="0"/>
        <pt x="1333" y="755" on="0"/>
        <pt x="1407" y="755" on="1"/>
        <pt x="1508" y="755" on="0"/>
        <pt x="1682" y="569" on="0"/>
        <pt x="1682" y="411" on="1"/>
        <pt x="1682" y="241" on="0"/>
        <pt x="1440" y="-1" on="0"/>
        <pt x="1221" y="-1" on="1"/>
        <pt x="858" y="-1" on="0"/>
        <pt x="498" y="519" on="0"/>
        <pt x="279" y="519" on="1"/>
        <pt x="186" y="519" on="0"/>
        <pt x="81" y="412" on="0"/>
        <pt x="81" y="319" on="1"/>
        <pt x="81" y="280" on="0"/>
        <pt x="94" y="220" on="0"/>
        <pt x="104" y="199" on="1"/>
        <pt x="108" y="200" on="1"/>
        <pt x="112" y="266" on="0"/>
        <pt x="197" y="357" on="0"/>
        <pt x="272" y="357" on="1"/>
        <pt x="344" y="357" on="0"/>
        <pt x="455" y="257" on="0"/>
        <pt x="455" y="172" on="1"/>
        <pt x="455" y="92" on="0"/>
        <pt x="346" y="-1" on="0"/>
        <pt x="272" y="-1" on="1"/>
        <pt x="171" y="-1" on="0"/>
        <pt x="-3" y="185" on="0"/>
        <pt x="-3" y="343" on="1"/>
        <pt x="-3" y="513" on="0"/>
        <pt x="239" y="755" on="0"/>
        <pt x="458" y="755" on="1"/>
        <pt x="821" y="755" on="0"/>
        <pt x="1179" y="235" on="0"/>
        <pt x="1398" y="235" on="1"/>
        <pt x="1491" y="235" on="0"/>
        <pt x="1607" y="342" on="0"/>
        <pt x="1607" y="435" on="1"/>
        <pt x="1607" y="470" on="0"/>
        <pt x="1588" y="547" on="0"/>
        <pt x="1576" y="569" on="1"/>
      </contour>
    </TTGlyph>
    <TTGlyph name="W" xMin="-5" yMin="-34" xMax="429" yMax="788">
      <contour>
        <pt x="195" y="-34" on="1"/>
        <pt x="160" y="40" on="0"/>
        <pt x="43" y="278" on="0"/>
        <pt x="-5" y="372" on="1"/>
        <pt x="-5" y="382" on="1"/>
        <pt x="43" y="476" on="0"/>
        <pt x="160" y="714" on="0"/>
        <pt x="195" y="788" on="1"/>
        <pt x="229" y="788" on="1"/>
        <pt x="264" y="714" on="0"/>
        <pt x="381" y="476" on="0"/>
        <pt x="429" y="382" on="1"/>
        <pt x="429" y="372" on="1"/>
        <pt x="381" y="278" on="0"/>
        <pt x="264" y="40" on="0"/>
        <pt x="229" y="-34" on="1"/>
      </contour>
    </TTGlyph>
    <TTGlyph name="X" xMin="0" yMin="-3" xMax="504" yMax="757">
      <contour>
        <pt x="252" y="757" on="1"/>
        <pt x="347" y="757" on="0"/>
        <pt x="504" y="583" on="0"/>
        <pt x="504" y="377" on="1"/>
        <pt x="504" y="171" on="0"/>
        <pt x="347" y="-3" on="0"/>
        <pt x="252" y="-3" on="1"/>
        <pt x="157" y="-3" on="0"/>
        <pt x="0" y="171" on="0"/>
        <pt x="0" y="377" on="1"/>
        <pt x="0" y="583" on="0"/>
        <pt x="157" y="757" on="0"/>
      </contour>
    </TTGlyph>
    <TTGlyph name="Y" xMin="-17" yMin="117" xMax="693" yMax="637">
      <contour>
        <pt x="350" y="637" on="1"/>
        <pt x="693" y="396" on="1"/>
        <pt x="693" y="358" on="1"/>
        <pt x="350" y="117" on="1"/>
        <pt x="326" y="117" on="1"/>
        <pt x="-17" y="358" on="1"/>
        <pt x="-17" y="396" on="1"/>
        <pt x="326" y="637" on="1"/>
      </contour>
    </TTGlyph>
    <TTGlyph name="Z" xMin="0" yMin="117" xMax="710" yMax="637">
      <contour>
        <pt x="0" y="377" on="1"/>
        <pt x="0" y="475" on="0"/>
        <pt x="159" y="637" on="0"/>
        <pt x="355" y="637" on="1"/>
        <pt x="551" y="637" on="0"/>
        <pt x="710" y="475" on="0"/>
        <pt x="710" y="377" on="1"/>
        <pt x="710" y="279" on="0"/>
        <pt x="551" y="117" on="0"/>
        <pt x="355" y="117" on="1"/>
        <pt x="159" y="117" on="0"/>
        <pt x="0" y="279" on="0"/>
      </contour>
    </TTGlyph>
    <TTGlyph name="a" xMin="-3" yMin="51" xMax="554" yMax="703">
      <contour>
        <pt x="332" y="370" on="1"/>
        <pt x="332" y="384" on="1"/>
        <pt x="173" y="403" on="1"/>
        <pt x="74" y="415" on="0"/>
        <pt x="-3" y="458" on="0"/>
        <pt x="-3" y="488" on="1"/>
        <pt x="-3" y="522" on="0"/>
        <pt x="54" y="556" on="0"/>
        <pt x="92" y="556" on="1"/>
        <pt x="126" y="556" on="0"/>
        <pt x="206" y="530" on="0"/>
        <pt x="260" y="507" on="1"/>
        <pt x="381" y="455" on="1"/>
        <pt x="402" y="469" on="1"/>
        <pt x="310" y="529" on="1"/>
        <pt x="250" y="568" on="0"/>
        <pt x="207" y="612" on="0"/>
        <pt x="207" y="631" on="1"/>
        <pt x="207" y="659" on="0"/>
        <pt x="270" y="703" on="0"/>
        <pt x="309" y="703" on="1"/>
        <pt x="350" y="703" on="0"/>
        <pt x="400" y="669" on="0"/>
        <pt x="431" y="629" on="1"/>
        <pt x="554" y="468" on="1"/>
        <pt x="554" y="448" on="1"/>
        <pt x="510" y="442" on="0"/>
        <pt x="449" y="406" on="0"/>
        <pt x="449" y="377" on="1"/>
        <pt x="449" y="348" on="0"/>
        <pt x="510" y="312" on="0"/>
        <pt x="554" y="306" on="1"/>
        <pt x="554" y="286" on="1"/>
        <pt x="431" y="125" on="1"/>
        <pt x="400" y="85" on="0"/>
        <pt x="350" y="51" on="0"/>
        <pt x="309" y="51" on="1"/>
        <pt x="270" y="51" on="0"/>
        <pt x="207" y="95" on="0"/>
        <pt x="207" y="123" on="1"/>
        <pt x="207" y="142" on="0"/>
        <pt x="250" y="186" on="0"/>
        <pt x="310" y="225" on="1"/>
        <pt x="402" y="285" on="1"/>
        <pt x="381" y="299" on="1"/>
        <pt x="260" y="247" on="1"/>
        <pt x="206" y="224" on="0"/>
        <pt x="126" y="198" on="0"/>
        <pt x="92" y="198" on="1"/>
        <pt x="54" y="198" on="0"/>
        <pt x="-3" y="232" on="0"/>
        <pt x="-3" y="266" on="1"/>
        <pt x="-3" y="296" on="0"/>
        <pt x="74" y="339" on="0"/>
        <pt x="173" y="351" on="1"/>
      </contour>
    </TTGlyph>
    <TTGlyph name="ae" xMin="0" yMin="0" xMax="761" yMax="754">
      <contour>
        <pt x="761" y="0" on="1"/>
        <pt x="0" y="0" on="1"/>
        <pt x="0" y="754" on="1"/>
        <pt x="761" y="754" on="1"/>
      </contour>
    </TTGlyph>
    <TTGlyph name="ampersand" xMin="-3" yMin="-3" xMax="3315" yMax="727">
      <contour>
        <pt x="393" y="535" on="1"/>
        <pt x="427" y="535" on="0"/>
        <pt x="481" y="502" on="0"/>
        <pt x="501" y="474" on="1"/>
        <pt x="485" y="570" on="0"/>
        <pt x="380" y="641" on="0"/>
        <pt x="329" y="641" on="1"/>
        <pt x="229" y="641" on="0"/>
        <pt x="93" y="487" on="0"/>
        <pt x="93" y="372" on="1"/>
        <pt x="93" y="247" on="0"/>
        <pt x="269" y="83" on="0"/>
        <pt x="388" y="83" on="1"/>
        <pt x="583" y="83" on="0"/>
        <pt x="768" y="312" on="0"/>
        <pt x="768" y="449" on="1"/>
        <pt x="768" y="505" on="0"/>
        <pt x="739" y="615" on="0"/>
        <pt x="711" y="662" on="1"/>
        <pt x="730" y="685" on="1"/>
        <pt x="1590" y="498" on="0"/>
        <pt x="2685" y="413" on="0"/>
        <pt x="3315" y="413" on="1"/>
        <pt x="3315" y="341" on="1"/>
        <pt x="2687" y="342" on="0"/>
        <pt x="1582" y="277" on="0"/>
        <pt x="1081" y="156" on="1"/>
        <pt x="865" y="105" on="0"/>
        <pt x="541" y="-3" on="0"/>
        <pt x="404" y="-3" on="1"/>
        <pt x="215" y="-3" on="0"/>
        <pt x="-3" y="216" on="0"/>
        <pt x="-3" y="367" on="1"/>
        <pt x="-3" y="509" on="0"/>
        <pt x="175" y="727" on="0"/>
        <pt x="332" y="727" on="1"/>
        <pt x="447" y="727" on="0"/>
        <pt x="597" y="562" on="0"/>
        <pt x="597" y="466" on="1"/>
        <pt x="597" y="380" on="0"/>
        <pt x="505" y="239" on="0"/>
        <pt x="404" y="239" on="1"/>
        <pt x="329" y="239" on="0"/>
        <pt x="248" y="330" on="0"/>
        <pt x="248" y="390" on="1"/>
        <pt x="248" y="450" on="0"/>
        <pt x="325" y="535" on="0"/>
      </contour>
    </TTGlyph>
    <TTGlyph name="aring" xMin="-3" yMin="-30" xMax="2947" yMax="784">
      <contour>
        <pt x="1472" y="-30" on="1"/>
        <pt x="944" y="143" on="1"/>
        <pt x="779" y="68" on="0"/>
        <pt x="447" y="-16" on="0"/>
        <pt x="319" y="-16" on="1"/>
        <pt x="137" y="-16" on="0"/>
        <pt x="-3" y="126" on="0"/>
        <pt x="-3" y="204" on="1"/>
        <pt x="-3" y="273" on="0"/>
        <pt x="63" y="358" on="0"/>
        <pt x="105" y="377" on="1"/>
        <pt x="63" y="396" on="0"/>
        <pt x="-3" y="481" on="0"/>
        <pt x="-3" y="550" on="1"/>
        <pt x="-3" y="628" on="0"/>
        <pt x="137" y="770" on="0"/>
        <pt x="319" y="770" on="1"/>
        <pt x="447" y="770" on="0"/>
        <pt x="779" y="686" on="0"/>
        <pt x="944" y="611" on="1"/>
        <pt x="1472" y="784" on="1"/>
        <pt x="2000" y="611" on="1"/>
        <pt x="2165" y="686" on="0"/>
        <pt x="2497" y="770" on="0"/>
        <pt x="2625" y="770" on="1"/>
        <pt x="2807" y="770" on="0"/>
        <pt x="2947" y="628" on="0"/>
        <pt x="2947" y="550" on="1"/>
        <pt x="2947" y="481" on="0"/>
        <pt x="2881" y="396" on="0"/>
        <pt x="2839" y="377" on="1"/>
        <pt x="2881" y="358" on="0"/>
        <pt x="2947" y="273" on="0"/>
        <pt x="2947" y="204" on="1"/>
        <pt x="2947" y="126" on="0"/>
        <pt x="2807" y="-16" on="0"/>
        <pt x="2625" y="-16" on="1"/>
        <pt x="2497" y="-16" on="0"/>
        <pt x="2165" y="68" on="0"/>
        <pt x="2000" y="143" on="1"/>
      </contour>
      <contour>
        <pt x="2644" y="611" on="1"/>
        <pt x="2676" y="611" on="0"/>
        <pt x="2728" y="559" on="0"/>
        <pt x="2728" y="511" on="1"/>
        <pt x="2728" y="485" on="0"/>
        <pt x="2703" y="432" on="0"/>
        <pt x="2684" y="407" on="1"/>
        <pt x="2789" y="414" on="0"/>
        <pt x="2853" y="503" on="0"/>
        <pt x="2853" y="543" on="1"/>
        <pt x="2853" y="599" on="0"/>
        <pt x="2748" y="681" on="0"/>
        <pt x="2636" y="681" on="1"/>
        <pt x="2532" y="681" on="0"/>
        <pt x="2262" y="620" on="0"/>
        <pt x="2137" y="567" on="1"/>
        <pt x="2616" y="411" on="1"/>
        <pt x="2594" y="432" on="0"/>
        <pt x="2566" y="486" on="0"/>
        <pt x="2566" y="514" on="1"/>
        <pt x="2566" y="554" on="0"/>
        <pt x="2607" y="611" on="0"/>
      </contour>
      <contour>
        <pt x="300" y="611" on="1"/>
        <pt x="337" y="611" on="0"/>
        <pt x="378" y="554" on="0"/>
        <pt x="378" y="514" on="1"/>
        <pt x="378" y="486" on="0"/>
        <pt x="350" y="432" on="0"/>
        <pt x="328" y="411" on="1"/>
        <pt x="807" y="567" on="1"/>
        <pt x="682" y="620" on="0"/>
        <pt x="412" y="681" on="0"/>
        <pt x="308" y="681" on="1"/>
        <pt x="196" y="681" on="0"/>
        <pt x="91" y="599" on="0"/>
        <pt x="91" y="543" on="1"/>
        <pt x="91" y="503" on="0"/>
        <pt x="155" y="414" on="0"/>
        <pt x="260" y="407" on="1"/>
        <pt x="241" y="432" on="0"/>
        <pt x="216" y="485" on="0"/>
        <pt x="216" y="511" on="1"/>
        <pt x="216" y="559" on="0"/>
        <pt x="268" y="611" on="0"/>
      </contour>
      <contour>
        <pt x="2644" y="143" on="1"/>
        <pt x="2607" y="143" on="0"/>
        <pt x="2566" y="200" on="0"/>
        <pt x="2566" y="240" on="1"/>
        <pt x="2566" y="268" on="0"/>
        <pt x="2594" y="322" on="0"/>
        <pt x="2616" y="343" on="1"/>
        <pt x="2137" y="187" on="1"/>
        <pt x="2262" y="134" on="0"/>
        <pt x="2532" y="73" on="0"/>
        <pt x="2636" y="73" on="1"/>
        <pt x="2748" y="73" on="0"/>
        <pt x="2853" y="155" on="0"/>
        <pt x="2853" y="211" on="1"/>
        <pt x="2853" y="251" on="0"/>
        <pt x="2789" y="340" on="0"/>
        <pt x="2684" y="347" on="1"/>
        <pt x="2703" y="322" on="0"/>
        <pt x="2728" y="269" on="0"/>
        <pt x="2728" y="243" on="1"/>
        <pt x="2728" y="195" on="0"/>
        <pt x="2676" y="143" on="0"/>
      </contour>
      <contour>
        <pt x="300" y="143" on="1"/>
        <pt x="268" y="143" on="0"/>
        <pt x="216" y="195" on="0"/>
        <pt x="216" y="243" on="1"/>
        <pt x="216" y="269" on="0"/>
        <pt x="241" y="322" on="0"/>
        <pt x="260" y="347" on="1"/>
        <pt x="155" y="340" on="0"/>
        <pt x="91" y="251" on="0"/>
        <pt x="91" y="211" on="1"/>
        <pt x="91" y="155" on="0"/>
        <pt x="196" y="73" on="0"/>
        <pt x="308" y="73" on="1"/>
        <pt x="412" y="73" on="0"/>
        <pt x="682" y="134" on="0"/>
        <pt x="807" y="187" on="1"/>
        <pt x="328" y="343" on="1"/>
        <pt x="350" y="322" on="0"/>
        <pt x="378" y="268" on="0"/>
        <pt x="378" y="240" on="1"/>
        <pt x="378" y="200" on="0"/>
        <pt x="337" y="143" on="0"/>
      </contour>
    </TTGlyph>
    <TTGlyph name="asciicircum" xMin="-15" yMin="102" xMax="4180" yMax="650">
      <contour>
        <pt x="-15" y="413" on="1"/>
        <pt x="78" y="450" on="0"/>
        <pt x="302" y="586" on="0"/>
        <pt x="371" y="650" on="1"/>
        <pt x="387" y="650" on="1"/>
        <pt x="624" y="552" on="0"/>
        <pt x="2356" y="413" on="0"/>
        <pt x="4180" y="413" on="1"/>
        <pt x="4180" y="340" on="1"/>
        <pt x="2356" y="340" on="0"/>
        <pt x="624" y="200" on="0"/>
        <pt x="387" y="102" on="1"/>
        <pt x="371" y="102" on="1"/>
        <pt x="302" y="167" on="0"/>
        <pt x="78" y="303" on="0"/>
        <pt x="-15" y="340" on="1"/>
      </contour>
    </TTGlyph>
    <TTGlyph name="asterisk" xMin="-3" yMin="27" xMax="3315" yMax="757">
      <contour>
        <pt x="393" y="219" on="1"/>
        <pt x="325" y="219" on="0"/>
        <pt x="248" y="304" on="0"/>
        <pt x="248" y="364" on="1"/>
        <pt x="248" y="424" on="0"/>
        <pt x="329" y="515" on="0"/>
        <pt x="404" y="515" on="1"/>
        <pt x="505" y="515" on="0"/>
        <pt x="597" y="374" on="0"/>
        <pt x="597" y="288" on="1"/>
        <pt x="597" y="192" on="0"/>
        <pt x="447" y="27" on="0"/>
        <pt x="332" y="27" on="1"/>
        <pt x="175" y="27" on="0"/>
        <pt x="-3" y="245" on="0"/>
        <pt x="-3" y="387" on="1"/>
        <pt x="-3" y="538" on="0"/>
        <pt x="215" y="757" on="0"/>
        <pt x="404" y="757" on="1"/>
        <pt x="541" y="757" on="0"/>
        <pt x="865" y="649" on="0"/>
        <pt x="1081" y="598" on="1"/>
        <pt x="1582" y="477" on="0"/>
        <pt x="2687" y="412" on="0"/>
        <pt x="3315" y="413" on="1"/>
        <pt x="3315" y="341" on="1"/>
        <pt x="2685" y="341" on="0"/>
        <pt x="1590" y="256" on="0"/>
        <pt x="730" y="69" on="1"/>
        <pt x="711" y="92" on="1"/>
        <pt x="739" y="139" on="0"/>
        <pt x="768" y="249" on="0"/>
        <pt x="768" y="305" on="1"/>
        <pt x="768" y="442" on="0"/>
        <pt x="583" y="671" on="0"/>
        <pt x="388" y="671" on="1"/>
        <pt x="269" y="671" on="0"/>
        <pt x="93" y="507" on="0"/>
        <pt x="93" y="382" on="1"/>
        <pt x="93" y="267" on="0"/>
        <pt x="229" y="113" on="0"/>
        <pt x="329" y="113" on="1"/>
        <pt x="380" y="113" on="0"/>
        <pt x="485" y="184" on="0"/>
        <pt x="501" y="280" on="1"/>
        <pt x="481" y="252" on="0"/>
        <pt x="427" y="219" on="0"/>
      </contour>
    </TTGlyph>
    <TTGlyph name="at" xMin="52" yMin="18" xMax="3593" yMax="736">
      <contour>
        <pt x="163" y="736" on="1"/>
        <pt x="209" y="736" on="0"/>
        <pt x="273" y="673" on="0"/>
        <pt x="273" y="627" on="1"/>
        <pt x="273" y="581" on="0"/>
        <pt x="209" y="517" on="0"/>
        <pt x="163" y="517" on="1"/>
        <pt x="117" y="517" on="0"/>
        <pt x="52" y="581" on="0"/>
        <pt x="52" y="627" on="1"/>
        <pt x="52" y="673" on="0"/>
        <pt x="117" y="736" on="0"/>
      </contour>
      <contour>
        <pt x="265" y="377" on="1"/>
        <pt x="265" y="458" on="0"/>
        <pt x="328" y="542" on="0"/>
        <pt x="381" y="542" on="1"/>
        <pt x="432" y="542" on="0"/>
        <pt x="577" y="410" on="0"/>
        <pt x="636" y="398" on="1"/>
        <pt x="639" y="407" on="1"/>
        <pt x="633" y="453" on="0"/>
        <pt x="501" y="544" on="0"/>
        <pt x="501" y="603" on="1"/>
        <pt x="501" y="652" on="0"/>
        <pt x="583" y="713" on="0"/>
        <pt x="661" y="713" on="1"/>
        <pt x="739" y="713" on="0"/>
        <pt x="821" y="652" on="0"/>
        <pt x="821" y="603" on="1"/>
        <pt x="821" y="544" on="0"/>
        <pt x="689" y="453" on="0"/>
        <pt x="683" y="407" on="1"/>
        <pt x="686" y="398" on="1"/>
        <pt x="745" y="410" on="0"/>
        <pt x="890" y="542" on="0"/>
        <pt x="941" y="542" on="1"/>
        <pt x="994" y="542" on="0"/>
        <pt x="1057" y="458" on="0"/>
        <pt x="1057" y="377" on="1"/>
        <pt x="1057" y="296" on="0"/>
        <pt x="994" y="212" on="0"/>
        <pt x="941" y="212" on="1"/>
        <pt x="890" y="212" on="0"/>
        <pt x="745" y="344" on="0"/>
        <pt x="686" y="356" on="1"/>
        <pt x="683" y="347" on="1"/>
        <pt x="689" y="301" on="0"/>
        <pt x="821" y="210" on="0"/>
        <pt x="821" y="151" on="1"/>
        <pt x="821" y="102" on="0"/>
        <pt x="739" y="41" on="0"/>
        <pt x="661" y="41" on="1"/>
        <pt x="583" y="41" on="0"/>
        <pt x="501" y="102" on="0"/>
        <pt x="501" y="151" on="1"/>
        <pt x="501" y="210" on="0"/>
        <pt x="633" y="301" on="0"/>
        <pt x="639" y="347" on="1"/>
        <pt x="636" y="356" on="1"/>
        <pt x="577" y="344" on="0"/>
        <pt x="432" y="212" on="0"/>
        <pt x="381" y="212" on="1"/>
        <pt x="328" y="212" on="0"/>
        <pt x="265" y="296" on="0"/>
      </contour>
      <contour>
        <pt x="1261" y="602" on="1"/>
        <pt x="1261" y="560" on="0"/>
        <pt x="1202" y="502" on="0"/>
        <pt x="1160" y="502" on="1"/>
        <pt x="1118" y="502" on="0"/>
        <pt x="1059" y="560" on="0"/>
        <pt x="1059" y="602" on="1"/>
        <pt x="1059" y="644" on="0"/>
        <pt x="1118" y="702" on="0"/>
        <pt x="1160" y="702" on="1"/>
        <pt x="1202" y="702" on="0"/>
        <pt x="1261" y="644" on="0"/>
      </contour>
      <contour>
        <pt x="2142" y="577" on="1"/>
        <pt x="2142" y="539" on="0"/>
        <pt x="2087" y="485" on="0"/>
        <pt x="2048" y="485" on="1"/>
        <pt x="2009" y="485" on="0"/>
        <pt x="1954" y="539" on="0"/>
        <pt x="1954" y="577" on="1"/>
        <pt x="1954" y="615" on="0"/>
        <pt x="2009" y="669" on="0"/>
        <pt x="2048" y="669" on="1"/>
        <pt x="2087" y="669" on="0"/>
        <pt x="2142" y="615" on="0"/>
      </contour>
      <contour>
        <pt x="1248" y="377" on="1"/>
        <pt x="1248" y="443" on="0"/>
        <pt x="1302" y="517" on="0"/>
        <pt x="1349" y="517" on="1"/>
        <pt x="1395" y="517" on="0"/>
        <pt x="1526" y="406" on="0"/>
        <pt x="1579" y="396" on="1"/>
        <pt x="1582" y="404" on="1"/>
        <pt x="1575" y="444" on="0"/>
        <pt x="1462" y="519" on="0"/>
        <pt x="1462" y="570" on="1"/>
        <pt x="1462" y="615" on="0"/>
        <pt x="1534" y="667" on="0"/>
        <pt x="1603" y="667" on="1"/>
        <pt x="1672" y="667" on="0"/>
        <pt x="1744" y="615" on="0"/>
        <pt x="1744" y="570" on="1"/>
        <pt x="1744" y="519" on="0"/>
        <pt x="1631" y="444" on="0"/>
        <pt x="1624" y="404" on="1"/>
        <pt x="1627" y="396" on="1"/>
        <pt x="1680" y="406" on="0"/>
        <pt x="1811" y="517" on="0"/>
        <pt x="1857" y="517" on="1"/>
        <pt x="1904" y="517" on="0"/>
        <pt x="1958" y="443" on="0"/>
        <pt x="1958" y="377" on="1"/>
        <pt x="1958" y="311" on="0"/>
        <pt x="1904" y="237" on="0"/>
        <pt x="1857" y="237" on="1"/>
        <pt x="1811" y="237" on="0"/>
        <pt x="1680" y="348" on="0"/>
        <pt x="1627" y="358" on="1"/>
        <pt x="1624" y="350" on="1"/>
        <pt x="1631" y="310" on="0"/>
        <pt x="1744" y="235" on="0"/>
        <pt x="1744" y="184" on="1"/>
        <pt x="1744" y="139" on="0"/>
        <pt x="1672" y="87" on="0"/>
        <pt x="1603" y="87" on="1"/>
        <pt x="1534" y="87" on="0"/>
        <pt x="1462" y="139" on="0"/>
        <pt x="1462" y="184" on="1"/>
        <pt x="1462" y="235" on="0"/>
        <pt x="1575" y="310" on="0"/>
        <pt x="1582" y="350" on="1"/>
        <pt x="1579" y="358" on="1"/>
        <pt x="1526" y="348" on="0"/>
        <pt x="1395" y="237" on="0"/>
        <pt x="1349" y="237" on="1"/>
        <pt x="1302" y="237" on="0"/>
        <pt x="1248" y="311" on="0"/>
      </contour>
      <contour>
        <pt x="2920" y="551" on="1"/>
        <pt x="2920" y="516" on="0"/>
        <pt x="2871" y="467" on="0"/>
        <pt x="2836" y="467" on="1"/>
        <pt x="2801" y="467" on="0"/>
        <pt x="2752" y="516" on="0"/>
        <pt x="2752" y="551" on="1"/>
        <pt x="2752" y="586" on="0"/>
        <pt x="2801" y="635" on="0"/>
        <pt x="2836" y="635" on="1"/>
        <pt x="2871" y="635" on="0"/>
        <pt x="2920" y="586" on="0"/>
      </contour>
      <contour>
        <pt x="2126" y="377" on="1"/>
        <pt x="2126" y="428" on="0"/>
        <pt x="2171" y="492" on="0"/>
        <pt x="2213" y="492" on="1"/>
        <pt x="2254" y="492" on="0"/>
        <pt x="2370" y="403" on="0"/>
        <pt x="2418" y="393" on="1"/>
        <pt x="2421" y="400" on="1"/>
        <pt x="2414" y="435" on="0"/>
        <pt x="2318" y="494" on="0"/>
        <pt x="2318" y="538" on="1"/>
        <pt x="2318" y="578" on="0"/>
        <pt x="2381" y="620" on="0"/>
        <pt x="2440" y="620" on="1"/>
        <pt x="2499" y="620" on="0"/>
        <pt x="2562" y="578" on="0"/>
        <pt x="2562" y="538" on="1"/>
        <pt x="2562" y="494" on="0"/>
        <pt x="2466" y="435" on="0"/>
        <pt x="2459" y="400" on="1"/>
        <pt x="2462" y="393" on="1"/>
        <pt x="2510" y="403" on="0"/>
        <pt x="2626" y="492" on="0"/>
        <pt x="2667" y="492" on="1"/>
        <pt x="2709" y="492" on="0"/>
        <pt x="2754" y="428" on="0"/>
        <pt x="2754" y="377" on="1"/>
        <pt x="2754" y="326" on="0"/>
        <pt x="2709" y="262" on="0"/>
        <pt x="2667" y="262" on="1"/>
        <pt x="2626" y="262" on="0"/>
        <pt x="2510" y="351" on="0"/>
        <pt x="2462" y="361" on="1"/>
        <pt x="2459" y="354" on="1"/>
        <pt x="2466" y="319" on="0"/>
        <pt x="2562" y="260" on="0"/>
        <pt x="2562" y="216" on="1"/>
        <pt x="2562" y="176" on="0"/>
        <pt x="2499" y="134" on="0"/>
        <pt x="2440" y="134" on="1"/>
        <pt x="2381" y="134" on="0"/>
        <pt x="2318" y="176" on="0"/>
        <pt x="2318" y="216" on="1"/>
        <pt x="2318" y="260" on="0"/>
        <pt x="2414" y="319" on="0"/>
        <pt x="2421" y="354" on="1"/>
        <pt x="2418" y="361" on="1"/>
        <pt x="2370" y="351" on="0"/>
        <pt x="2254" y="262" on="0"/>
        <pt x="2213" y="262" on="1"/>
        <pt x="2171" y="262" on="0"/>
        <pt x="2126" y="326" on="0"/>
      </contour>
      <contour>
        <pt x="3593" y="526" on="1"/>
        <pt x="3593" y="495" on="0"/>
        <pt x="3548" y="451" on="0"/>
        <pt x="3517" y="451" on="1"/>
        <pt x="3486" y="451" on="0"/>
        <pt x="3441" y="495" on="0"/>
        <pt x="3441" y="526" on="1"/>
        <pt x="3441" y="557" on="0"/>
        <pt x="3486" y="601" on="0"/>
        <pt x="3517" y="601" on="1"/>
        <pt x="3548" y="601" on="0"/>
        <pt x="3593" y="557" on="0"/>
      </contour>
      <contour>
        <pt x="2902" y="377" on="1"/>
        <pt x="2902" y="414" on="0"/>
        <pt x="2938" y="467" on="0"/>
        <pt x="2975" y="467" on="1"/>
        <pt x="3011" y="467" on="0"/>
        <pt x="3113" y="399" on="0"/>
        <pt x="3156" y="391" on="1"/>
        <pt x="3159" y="397" on="1"/>
        <pt x="3150" y="426" on="0"/>
        <pt x="3072" y="469" on="0"/>
        <pt x="3072" y="505" on="1"/>
        <pt x="3072" y="540" on="0"/>
        <pt x="3126" y="574" on="0"/>
        <pt x="3175" y="574" on="1"/>
        <pt x="3224" y="574" on="0"/>
        <pt x="3278" y="540" on="0"/>
        <pt x="3278" y="505" on="1"/>
        <pt x="3278" y="469" on="0"/>
        <pt x="3200" y="426" on="0"/>
        <pt x="3191" y="397" on="1"/>
        <pt x="3194" y="391" on="1"/>
        <pt x="3237" y="399" on="0"/>
        <pt x="3339" y="467" on="0"/>
        <pt x="3375" y="467" on="1"/>
        <pt x="3412" y="467" on="0"/>
        <pt x="3448" y="414" on="0"/>
        <pt x="3448" y="377" on="1"/>
        <pt x="3448" y="340" on="0"/>
        <pt x="3412" y="287" on="0"/>
        <pt x="3375" y="287" on="1"/>
        <pt x="3339" y="287" on="0"/>
        <pt x="3237" y="355" on="0"/>
        <pt x="3194" y="363" on="1"/>
        <pt x="3191" y="357" on="1"/>
        <pt x="3200" y="328" on="0"/>
        <pt x="3278" y="285" on="0"/>
        <pt x="3278" y="249" on="1"/>
        <pt x="3278" y="214" on="0"/>
        <pt x="3224" y="180" on="0"/>
        <pt x="3175" y="180" on="1"/>
        <pt x="3126" y="180" on="0"/>
        <pt x="3072" y="214" on="0"/>
        <pt x="3072" y="249" on="1"/>
        <pt x="3072" y="285" on="0"/>
        <pt x="3150" y="328" on="0"/>
        <pt x="3159" y="357" on="1"/>
        <pt x="3156" y="363" on="1"/>
        <pt x="3113" y="355" on="0"/>
        <pt x="3011" y="287" on="0"/>
        <pt x="2975" y="287" on="1"/>
        <pt x="2938" y="287" on="0"/>
        <pt x="2902" y="340" on="0"/>
      </contour>
      <contour>
        <pt x="3593" y="228" on="1"/>
        <pt x="3593" y="197" on="0"/>
        <pt x="3548" y="153" on="0"/>
        <pt x="3517" y="153" on="1"/>
        <pt x="3486" y="153" on="0"/>
        <pt x="3441" y="197" on="0"/>
        <pt x="3441" y="228" on="1"/>
        <pt x="3441" y="259" on="0"/>
        <pt x="3486" y="303" on="0"/>
        <pt x="3517" y="303" on="1"/>
        <pt x="3548" y="303" on="0"/>
        <pt x="3593" y="259" on="0"/>
      </contour>
      <contour>
        <pt x="2920" y="203" on="1"/>
        <pt x="2920" y="168" on="0"/>
        <pt x="2871" y="119" on="0"/>
        <pt x="2836" y="119" on="1"/>
        <pt x="2801" y="119" on="0"/>
        <pt x="2752" y="168" on="0"/>
        <pt x="2752" y="203" on="1"/>
        <pt x="2752" y="238" on="0"/>
        <pt x="2801" y="287" on="0"/>
        <pt x="2836" y="287" on="1"/>
        <pt x="2871" y="287" on="0"/>
        <pt x="2920" y="238" on="0"/>
      </contour>
      <contour>
        <pt x="2142" y="177" on="1"/>
        <pt x="2142" y="139" on="0"/>
        <pt x="2087" y="85" on="0"/>
        <pt x="2048" y="85" on="1"/>
        <pt x="2009" y="85" on="0"/>
        <pt x="1954" y="139" on="0"/>
        <pt x="1954" y="177" on="1"/>
        <pt x="1954" y="215" on="0"/>
        <pt x="2009" y="269" on="0"/>
        <pt x="2048" y="269" on="1"/>
        <pt x="2087" y="269" on="0"/>
        <pt x="2142" y="215" on="0"/>
      </contour>
      <contour>
        <pt x="1261" y="152" on="1"/>
        <pt x="1261" y="110" on="0"/>
        <pt x="1202" y="52" on="0"/>
        <pt x="1160" y="52" on="1"/>
        <pt x="1118" y="52" on="0"/>
        <pt x="1059" y="110" on="0"/>
        <pt x="1059" y="152" on="1"/>
        <pt x="1059" y="194" on="0"/>
        <pt x="1118" y="252" on="0"/>
        <pt x="1160" y="252" on="1"/>
        <pt x="1202" y="252" on="0"/>
        <pt x="1261" y="194" on="0"/>
      </contour>
      <contour>
        <pt x="163" y="18" on="1"/>
        <pt x="117" y="18" on="0"/>
        <pt x="52" y="81" on="0"/>
        <pt x="52" y="127" on="1"/>
        <pt x="52" y="173" on="0"/>
        <pt x="117" y="237" on="0"/>
        <pt x="163" y="237" on="1"/>
        <pt x="209" y="237" on="0"/>
        <pt x="273" y="173" on="0"/>
        <pt x="273" y="127" on="1"/>
        <pt x="273" y="81" on="0"/>
        <pt x="209" y="18" on="0"/>
      </contour>
    </TTGlyph>
    <TTGlyph name="b" xMin="-3" yMin="38" xMax="1339" yMax="715">
      <contour>
        <pt x="206" y="235" on="1"/>
        <pt x="114" y="235" on="0"/>
        <pt x="-3" y="310" on="0"/>
        <pt x="-3" y="377" on="1"/>
        <pt x="-3" y="444" on="0"/>
        <pt x="114" y="518" on="0"/>
        <pt x="206" y="518" on="1"/>
        <pt x="269" y="518" on="0"/>
        <pt x="370" y="489" on="0"/>
        <pt x="410" y="465" on="1"/>
        <pt x="388" y="509" on="0"/>
        <pt x="367" y="590" on="0"/>
        <pt x="364" y="631" on="1"/>
        <pt x="362" y="662" on="0"/>
        <pt x="379" y="697" on="0"/>
        <pt x="404" y="697" on="1"/>
        <pt x="414" y="697" on="0"/>
        <pt x="434" y="684" on="0"/>
        <pt x="438" y="677" on="1"/>
        <pt x="504" y="569" on="0"/>
        <pt x="700" y="406" on="0"/>
        <pt x="905" y="406" on="1"/>
        <pt x="808" y="435" on="0"/>
        <pt x="702" y="528" on="0"/>
        <pt x="702" y="587" on="1"/>
        <pt x="702" y="640" on="0"/>
        <pt x="783" y="715" on="0"/>
        <pt x="847" y="715" on="1"/>
        <pt x="1009" y="715" on="0"/>
        <pt x="1111" y="413" on="0"/>
        <pt x="1339" y="413" on="1"/>
        <pt x="1339" y="340" on="1"/>
        <pt x="1111" y="340" on="0"/>
        <pt x="1009" y="38" on="0"/>
        <pt x="847" y="38" on="1"/>
        <pt x="783" y="38" on="0"/>
        <pt x="702" y="113" on="0"/>
        <pt x="702" y="166" on="1"/>
        <pt x="702" y="225" on="0"/>
        <pt x="808" y="318" on="0"/>
        <pt x="905" y="347" on="1"/>
        <pt x="700" y="347" on="0"/>
        <pt x="504" y="184" on="0"/>
        <pt x="438" y="76" on="1"/>
        <pt x="434" y="69" on="0"/>
        <pt x="414" y="56" on="0"/>
        <pt x="404" y="56" on="1"/>
        <pt x="379" y="56" on="0"/>
        <pt x="362" y="91" on="0"/>
        <pt x="364" y="122" on="1"/>
        <pt x="367" y="163" on="0"/>
        <pt x="388" y="244" on="0"/>
        <pt x="410" y="288" on="1"/>
        <pt x="370" y="264" on="0"/>
        <pt x="269" y="235" on="0"/>
      </contour>
    </TTGlyph>
    <TTGlyph name="backslash" xMin="-10" yMin="224" xMax="928" yMax="528">
      <contour>
        <pt x="727" y="224" on="1"/>
        <pt x="635" y="224" on="0"/>
        <pt x="288" y="292" on="0"/>
        <pt x="-3" y="341" on="1"/>
        <pt x="-6" y="342" on="0"/>
        <pt x="-10" y="361" on="0"/>
        <pt x="-10" y="377" on="1"/>
        <pt x="-10" y="393" on="0"/>
        <pt x="-6" y="412" on="0"/>
        <pt x="-3" y="413" on="1"/>
        <pt x="288" y="462" on="0"/>
        <pt x="635" y="528" on="0"/>
        <pt x="727" y="528" on="1"/>
        <pt x="819" y="528" on="0"/>
        <pt x="928" y="441" on="0"/>
        <pt x="928" y="376" on="1"/>
        <pt x="928" y="311" on="0"/>
        <pt x="819" y="224" on="0"/>
      </contour>
    </TTGlyph>
    <TTGlyph name="bar" xMin="-3" yMin="224" xMax="935" yMax="528">
      <contour>
        <pt x="198" y="224" on="1"/>
        <pt x="106" y="224" on="0"/>
        <pt x="-3" y="311" on="0"/>
        <pt x="-3" y="376" on="1"/>
        <pt x="-3" y="441" on="0"/>
        <pt x="106" y="528" on="0"/>
        <pt x="198" y="528" on="1"/>
        <pt x="290" y="528" on="0"/>
        <pt x="637" y="462" on="0"/>
        <pt x="928" y="413" on="1"/>
        <pt x="931" y="412" on="0"/>
        <pt x="935" y="393" on="0"/>
        <pt x="935" y="377" on="1"/>
        <pt x="935" y="361" on="0"/>
        <pt x="931" y="342" on="0"/>
        <pt x="928" y="341" on="1"/>
        <pt x="637" y="292" on="0"/>
        <pt x="290" y="224" on="0"/>
      </contour>
    </TTGlyph>
    <TTGlyph name="braceleft" xMin="-3" yMin="201" xMax="4115" yMax="553">
      <contour>
        <pt x="4104" y="414" on="1"/>
        <pt x="4108" y="413" on="0"/>
        <pt x="4115" y="397" on="0"/>
        <pt x="4115" y="377" on="1"/>
        <pt x="4115" y="357" on="0"/>
        <pt x="4108" y="341" on="0"/>
        <pt x="4104" y="340" on="1"/>
        <pt x="2579" y="294" on="0"/>
        <pt x="777" y="201" on="0"/>
        <pt x="261" y="201" on="1"/>
        <pt x="136" y="201" on="0"/>
        <pt x="-3" y="301" on="0"/>
        <pt x="-3" y="376" on="1"/>
        <pt x="-3" y="451" on="0"/>
        <pt x="136" y="553" on="0"/>
        <pt x="261" y="553" on="1"/>
        <pt x="777" y="553" on="0"/>
        <pt x="2579" y="460" on="0"/>
      </contour>
    </TTGlyph>
    <TTGlyph name="braceright" xMin="-3" yMin="213" xMax="2525" yMax="541">
      <contour>
        <pt x="2516" y="414" on="1"/>
        <pt x="2520" y="413" on="0"/>
        <pt x="2525" y="395" on="0"/>
        <pt x="2525" y="377" on="1"/>
        <pt x="2525" y="359" on="0"/>
        <pt x="2520" y="341" on="0"/>
        <pt x="2516" y="340" on="1"/>
        <pt x="1608" y="291" on="0"/>
        <pt x="548" y="213" on="0"/>
        <pt x="229" y="213" on="1"/>
        <pt x="121" y="213" on="0"/>
        <pt x="-3" y="307" on="0"/>
        <pt x="-3" y="376" on="1"/>
        <pt x="-3" y="446" on="0"/>
        <pt x="121" y="541" on="0"/>
        <pt x="229" y="541" on="1"/>
        <pt x="548" y="541" on="0"/>
        <pt x="1608" y="463" on="0"/>
      </contour>
    </TTGlyph>
    <TTGlyph name="bracketleft" xMin="-10" yMin="201" xMax="4108" yMax="553">
      <contour>
        <pt x="1" y="414" on="1"/>
        <pt x="1526" y="460" on="0"/>
        <pt x="3328" y="553" on="0"/>
        <pt x="3844" y="553" on="1"/>
        <pt x="3969" y="553" on="0"/>
        <pt x="4108" y="451" on="0"/>
        <pt x="4108" y="376" on="1"/>
        <pt x="4108" y="301" on="0"/>
        <pt x="3969" y="201" on="0"/>
        <pt x="3844" y="201" on="1"/>
        <pt x="3328" y="201" on="0"/>
        <pt x="1526" y="294" on="0"/>
        <pt x="1" y="340" on="1"/>
        <pt x="-3" y="341" on="0"/>
        <pt x="-10" y="357" on="0"/>
        <pt x="-10" y="377" on="1"/>
        <pt x="-10" y="397" on="0"/>
        <pt x="-3" y="413" on="0"/>
      </contour>
    </TTGlyph>
    <TTGlyph name="bracketright" xMin="-10" yMin="213" xMax="2518" yMax="541">
      <contour>
        <pt x="-1" y="414" on="1"/>
        <pt x="907" y="463" on="0"/>
        <pt x="1967" y="541" on="0"/>
        <pt x="2286" y="541" on="1"/>
        <pt x="2394" y="541" on="0"/>
        <pt x="2518" y="446" on="0"/>
        <pt x="2518" y="376" on="1"/>
        <pt x="2518" y="307" on="0"/>
        <pt x="2394" y="213" on="0"/>
        <pt x="2286" y="213" on="1"/>
        <pt x="1967" y="213" on="0"/>
        <pt x="907" y="291" on="0"/>
        <pt x="-1" y="340" on="1"/>
        <pt x="-5" y="341" on="0"/>
        <pt x="-10" y="359" on="0"/>
        <pt x="-10" y="377" on="1"/>
        <pt x="-10" y="395" on="0"/>
        <pt x="-5" y="413" on="0"/>
      </contour>
    </TTGlyph>
    <TTGlyph name="bullet" xMin="-3" yMin="80" xMax="591" yMax="674">
      <contour>
        <pt x="294" y="80" on="1"/>
        <pt x="172" y="80" on="0"/>
        <pt x="-3" y="255" on="0"/>
        <pt x="-3" y="377" on="1"/>
        <pt x="-3" y="499" on="0"/>
        <pt x="172" y="674" on="0"/>
        <pt x="294" y="674" on="1"/>
        <pt x="416" y="674" on="0"/>
        <pt x="591" y="499" on="0"/>
        <pt x="591" y="377" on="1"/>
        <pt x="591" y="255" on="0"/>
        <pt x="416" y="80" on="0"/>
      </contour>
    </TTGlyph>
    <TTGlyph name="c" xMin="-3" yMin="-16" xMax="1270" yMax="770">
      <contour>
        <pt x="1270" y="413" on="1"/>
        <pt x="1270" y="341" on="1"/>
        <pt x="907" y="341" on="0"/>
        <pt x="760" y="-16" on="0"/>
        <pt x="617" y="-16" on="1"/>
        <pt x="555" y="-16" on="0"/>
        <pt x="542" y="68" on="0"/>
        <pt x="516" y="99" on="1"/>
        <pt x="492" y="128" on="0"/>
        <pt x="434" y="166" on="0"/>
        <pt x="434" y="197" on="1"/>
        <pt x="434" y="234" on="0"/>
        <pt x="567" y="308" on="0"/>
        <pt x="727" y="332" on="1"/>
        <pt x="724" y="352" on="1"/>
        <pt x="573" y="336" on="1"/>
        <pt x="405" y="318" on="0"/>
        <pt x="256" y="208" on="0"/>
        <pt x="177" y="208" on="1"/>
        <pt x="83" y="208" on="0"/>
        <pt x="-3" y="321" on="0"/>
        <pt x="-3" y="377" on="1"/>
        <pt x="-3" y="433" on="0"/>
        <pt x="83" y="546" on="0"/>
        <pt x="177" y="546" on="1"/>
        <pt x="256" y="546" on="0"/>
        <pt x="405" y="436" on="0"/>
        <pt x="573" y="418" on="1"/>
        <pt x="724" y="402" on="1"/>
        <pt x="727" y="422" on="1"/>
        <pt x="567" y="446" on="0"/>
        <pt x="434" y="520" on="0"/>
        <pt x="434" y="557" on="1"/>
        <pt x="434" y="588" on="0"/>
        <pt x="492" y="626" on="0"/>
        <pt x="516" y="655" on="1"/>
        <pt x="542" y="686" on="0"/>
        <pt x="555" y="770" on="0"/>
        <pt x="617" y="770" on="1"/>
        <pt x="760" y="770" on="0"/>
        <pt x="907" y="413" on="0"/>
      </contour>
    </TTGlyph>
    <TTGlyph name="ccedilla" xMin="-10" yMin="35" xMax="1764" yMax="718">
      <contour>
        <pt x="877" y="718" on="1"/>
        <pt x="949" y="718" on="0"/>
        <pt x="1052" y="560" on="0"/>
        <pt x="1058" y="424" on="1"/>
        <pt x="1116" y="446" on="0"/>
        <pt x="1191" y="552" on="0"/>
        <pt x="1218" y="615" on="1"/>
        <pt x="1226" y="618" on="1"/>
        <pt x="1764" y="403" on="1"/>
        <pt x="1764" y="350" on="1"/>
        <pt x="1226" y="135" on="1"/>
        <pt x="1218" y="138" on="1"/>
        <pt x="1191" y="201" on="0"/>
        <pt x="1116" y="307" on="0"/>
        <pt x="1058" y="329" on="1"/>
        <pt x="1052" y="193" on="0"/>
        <pt x="949" y="35" on="0"/>
        <pt x="877" y="35" on="1"/>
        <pt x="805" y="35" on="0"/>
        <pt x="702" y="193" on="0"/>
        <pt x="696" y="329" on="1"/>
        <pt x="638" y="307" on="0"/>
        <pt x="563" y="201" on="0"/>
        <pt x="536" y="138" on="1"/>
        <pt x="528" y="135" on="1"/>
        <pt x="-10" y="350" on="1"/>
        <pt x="-10" y="403" on="1"/>
        <pt x="528" y="618" on="1"/>
        <pt x="536" y="615" on="1"/>
        <pt x="563" y="552" on="0"/>
        <pt x="638" y="446" on="0"/>
        <pt x="696" y="424" on="1"/>
        <pt x="702" y="560" on="0"/>
        <pt x="805" y="718" on="0"/>
      </contour>
    </TTGlyph>
    <TTGlyph name="cent" xMin="-3" yMin="0" xMax="751" yMax="754">
      <contour>
        <pt x="751" y="377" on="1"/>
        <pt x="751" y="222" on="0"/>
        <pt x="529" y="0" on="0"/>
        <pt x="374" y="0" on="1"/>
        <pt x="220" y="0" on="0"/>
        <pt x="-3" y="222" on="0"/>
        <pt x="-3" y="377" on="1"/>
        <pt x="-3" y="531" on="0"/>
        <pt x="220" y="754" on="0"/>
        <pt x="374" y="754" on="1"/>
        <pt x="529" y="754" on="0"/>
        <pt x="751" y="531" on="0"/>
      </contour>
    </TTGlyph>
    <TTGlyph name="colon" xMin="-15" yMin="193" xMax="873" yMax="561">
      <contour>
        <pt x="873" y="396" on="1"/>
        <pt x="873" y="358" on="1"/>
        <pt x="842" y="327" on="0"/>
        <pt x="610" y="193" on="0"/>
        <pt x="429" y="193" on="1"/>
        <pt x="248" y="193" on="0"/>
        <pt x="16" y="327" on="0"/>
        <pt x="-15" y="358" on="1"/>
        <pt x="-15" y="396" on="1"/>
        <pt x="16" y="427" on="0"/>
        <pt x="248" y="561" on="0"/>
        <pt x="429" y="561" on="1"/>
        <pt x="610" y="561" on="0"/>
        <pt x="842" y="427" on="0"/>
      </contour>
    </TTGlyph>
    <TTGlyph name="comma" xMin="-30" yMin="87" xMax="1082" yMax="667">
      <contour>
        <pt x="538" y="87" on="1"/>
        <pt x="514" y="87" on="1"/>
        <pt x="-30" y="356" on="1"/>
        <pt x="-30" y="398" on="1"/>
        <pt x="514" y="667" on="1"/>
        <pt x="538" y="667" on="1"/>
        <pt x="1082" y="398" on="1"/>
        <pt x="1082" y="356" on="1"/>
      </contour>
    </TTGlyph>
    <TTGlyph name="d" xMin="-10" yMin="-7" xMax="1146" yMax="761">
      <contour>
        <pt x="715" y="51" on="1"/>
        <pt x="625" y="14" on="0"/>
        <pt x="400" y="-7" on="0"/>
        <pt x="158" y="-7" on="1"/>
        <pt x="140" y="26" on="1"/>
        <pt x="150" y="35" on="0"/>
        <pt x="252" y="199" on="0"/>
        <pt x="268" y="230" on="1"/>
        <pt x="194" y="245" on="0"/>
        <pt x="9" y="344" on="0"/>
        <pt x="-10" y="369" on="1"/>
        <pt x="-10" y="385" on="1"/>
        <pt x="9" y="410" on="0"/>
        <pt x="194" y="508" on="0"/>
        <pt x="268" y="523" on="1"/>
        <pt x="252" y="554" on="0"/>
        <pt x="150" y="718" on="0"/>
        <pt x="140" y="728" on="1"/>
        <pt x="158" y="761" on="1"/>
        <pt x="400" y="761" on="0"/>
        <pt x="625" y="739" on="0"/>
        <pt x="715" y="702" on="1"/>
        <pt x="783" y="674" on="0"/>
        <pt x="880" y="531" on="0"/>
        <pt x="914" y="438" on="1"/>
        <pt x="930" y="461" on="0"/>
        <pt x="993" y="502" on="0"/>
        <pt x="1027" y="502" on="1"/>
        <pt x="1089" y="502" on="0"/>
        <pt x="1146" y="427" on="0"/>
        <pt x="1146" y="377" on="1"/>
        <pt x="1146" y="327" on="0"/>
        <pt x="1089" y="251" on="0"/>
        <pt x="1027" y="251" on="1"/>
        <pt x="993" y="251" on="0"/>
        <pt x="930" y="293" on="0"/>
        <pt x="914" y="316" on="1"/>
        <pt x="880" y="223" on="0"/>
        <pt x="783" y="79" on="0"/>
      </contour>
    </TTGlyph>
    <TTGlyph name="daggerdbl" xMin="27" yMin="0" xMax="381" yMax="754">
      <contour>
        <pt x="204" y="400" on="1"/>
        <pt x="132" y="400" on="0"/>
        <pt x="27" y="504" on="0"/>
        <pt x="27" y="577" on="1"/>
        <pt x="27" y="649" on="0"/>
        <pt x="132" y="754" on="0"/>
        <pt x="204" y="754" on="1"/>
        <pt x="277" y="754" on="0"/>
        <pt x="381" y="649" on="0"/>
        <pt x="381" y="577" on="1"/>
        <pt x="381" y="504" on="0"/>
        <pt x="277" y="400" on="0"/>
      </contour>
      <contour>
        <pt x="204" y="0" on="1"/>
        <pt x="132" y="0" on="0"/>
        <pt x="27" y="104" on="0"/>
        <pt x="27" y="177" on="1"/>
        <pt x="27" y="249" on="0"/>
        <pt x="132" y="354" on="0"/>
        <pt x="204" y="354" on="1"/>
        <pt x="277" y="354" on="0"/>
        <pt x="381" y="249" on="0"/>
        <pt x="381" y="177" on="1"/>
        <pt x="381" y="104" on="0"/>
        <pt x="277" y="0" on="0"/>
      </contour>
    </TTGlyph>
    <TTGlyph name="divide" xMin="-3" yMin="40" xMax="741" yMax="714">
      <contour>
        <pt x="-3" y="377" on="1"/>
        <pt x="-3" y="394" on="0"/>
        <pt x="75" y="461" on="0"/>
        <pt x="168" y="491" on="1"/>
        <pt x="152" y="550" on="0"/>
        <pt x="160" y="685" on="0"/>
        <pt x="184" y="701" on="1"/>
        <pt x="204" y="714" on="0"/>
        <pt x="326" y="656" on="0"/>
        <pt x="369" y="610" on="1"/>
        <pt x="412" y="656" on="0"/>
        <pt x="534" y="714" on="0"/>
        <pt x="554" y="701" on="1"/>
        <pt x="578" y="685" on="0"/>
        <pt x="586" y="550" on="0"/>
        <pt x="570" y="491" on="1"/>
        <pt x="663" y="461" on="0"/>
        <pt x="741" y="394" on="0"/>
        <pt x="741" y="377" on="1"/>
        <pt x="741" y="360" on="0"/>
        <pt x="663" y="293" on="0"/>
        <pt x="570" y="263" on="1"/>
        <pt x="586" y="204" on="0"/>
        <pt x="578" y="69" on="0"/>
        <pt x="554" y="53" on="1"/>
        <pt x="534" y="40" on="0"/>
        <pt x="412" y="98" on="0"/>
        <pt x="369" y="144" on="1"/>
        <pt x="326" y="98" on="0"/>
        <pt x="204" y="40" on="0"/>
        <pt x="184" y="53" on="1"/>
        <pt x="160" y="69" on="0"/>
        <pt x="152" y="204" on="0"/>
        <pt x="168" y="263" on="1"/>
        <pt x="75" y="293" on="0"/>
        <pt x="-3" y="360" on="0"/>
      </contour>
    </TTGlyph>
    <TTGlyph name="dollar" xMin="72" yMin="78" xMax="2737" yMax="676">
      <contour>
        <pt x="72" y="377" on="1"/>
        <pt x="72" y="450" on="0"/>
        <pt x="142" y="525" on="0"/>
        <pt x="198" y="525" on="1"/>
        <pt x="254" y="525" on="0"/>
        <pt x="409" y="405" on="0"/>
        <pt x="471" y="395" on="1"/>
        <pt x="474" y="403" on="1"/>
        <pt x="462" y="441" on="0"/>
        <pt x="324" y="526" on="0"/>
        <pt x="324" y="579" on="1"/>
        <pt x="324" y="622" on="0"/>
        <pt x="412" y="676" on="0"/>
        <pt x="498" y="676" on="1"/>
        <pt x="584" y="676" on="0"/>
        <pt x="672" y="622" on="0"/>
        <pt x="672" y="579" on="1"/>
        <pt x="672" y="526" on="0"/>
        <pt x="534" y="441" on="0"/>
        <pt x="522" y="403" on="1"/>
        <pt x="525" y="395" on="1"/>
        <pt x="587" y="405" on="0"/>
        <pt x="742" y="525" on="0"/>
        <pt x="798" y="525" on="1"/>
        <pt x="854" y="525" on="0"/>
        <pt x="924" y="450" on="0"/>
        <pt x="924" y="377" on="1"/>
        <pt x="924" y="304" on="0"/>
        <pt x="854" y="229" on="0"/>
        <pt x="798" y="229" on="1"/>
        <pt x="742" y="229" on="0"/>
        <pt x="587" y="349" on="0"/>
        <pt x="525" y="359" on="1"/>
        <pt x="522" y="351" on="1"/>
        <pt x="534" y="313" on="0"/>
        <pt x="672" y="228" on="0"/>
        <pt x="672" y="175" on="1"/>
        <pt x="672" y="132" on="0"/>
        <pt x="584" y="78" on="0"/>
        <pt x="498" y="78" on="1"/>
        <pt x="412" y="78" on="0"/>
        <pt x="324" y="132" on="0"/>
        <pt x="324" y="175" on="1"/>
        <pt x="324" y="228" on="0"/>
        <pt x="462" y="313" on="0"/>
        <pt x="474" y="351" on="1"/>
        <pt x="471" y="359" on="1"/>
        <pt x="409" y="349" on="0"/>
        <pt x="254" y="229" on="0"/>
        <pt x="198" y="229" on="1"/>
        <pt x="142" y="229" on="0"/>
        <pt x="72" y="304" on="0"/>
      </contour>
      <contour>
        <pt x="1027" y="377" on="1"/>
        <pt x="1027" y="430" on="0"/>
        <pt x="1080" y="490" on="0"/>
        <pt x="1126" y="490" on="1"/>
        <pt x="1172" y="490" on="0"/>
        <pt x="1301" y="401" on="0"/>
        <pt x="1353" y="392" on="1"/>
        <pt x="1356" y="398" on="1"/>
        <pt x="1346" y="430" on="0"/>
        <pt x="1238" y="492" on="0"/>
        <pt x="1238" y="534" on="1"/>
        <pt x="1238" y="571" on="0"/>
        <pt x="1309" y="613" on="0"/>
        <pt x="1376" y="613" on="1"/>
        <pt x="1443" y="613" on="0"/>
        <pt x="1514" y="571" on="0"/>
        <pt x="1514" y="534" on="1"/>
        <pt x="1514" y="492" on="0"/>
        <pt x="1406" y="430" on="0"/>
        <pt x="1396" y="398" on="1"/>
        <pt x="1399" y="392" on="1"/>
        <pt x="1451" y="401" on="0"/>
        <pt x="1580" y="490" on="0"/>
        <pt x="1626" y="490" on="1"/>
        <pt x="1672" y="490" on="0"/>
        <pt x="1725" y="430" on="0"/>
        <pt x="1725" y="377" on="1"/>
        <pt x="1725" y="324" on="0"/>
        <pt x="1672" y="264" on="0"/>
        <pt x="1626" y="264" on="1"/>
        <pt x="1580" y="264" on="0"/>
        <pt x="1451" y="353" on="0"/>
        <pt x="1399" y="362" on="1"/>
        <pt x="1396" y="356" on="1"/>
        <pt x="1406" y="324" on="0"/>
        <pt x="1514" y="262" on="0"/>
        <pt x="1514" y="220" on="1"/>
        <pt x="1514" y="183" on="0"/>
        <pt x="1443" y="141" on="0"/>
        <pt x="1376" y="141" on="1"/>
        <pt x="1309" y="141" on="0"/>
        <pt x="1238" y="183" on="0"/>
        <pt x="1238" y="220" on="1"/>
        <pt x="1238" y="262" on="0"/>
        <pt x="1346" y="324" on="0"/>
        <pt x="1356" y="356" on="1"/>
        <pt x="1353" y="362" on="1"/>
        <pt x="1301" y="353" on="0"/>
        <pt x="1172" y="264" on="0"/>
        <pt x="1126" y="264" on="1"/>
        <pt x="1080" y="264" on="0"/>
        <pt x="1027" y="324" on="0"/>
      </contour>
      <contour>
        <pt x="1817" y="377" on="1"/>
        <pt x="1817" y="409" on="0"/>
        <pt x="1853" y="456" on="0"/>
        <pt x="1890" y="456" on="1"/>
        <pt x="1926" y="456" on="0"/>
        <pt x="2028" y="396" on="0"/>
        <pt x="2071" y="389" on="1"/>
        <pt x="2074" y="394" on="1"/>
        <pt x="2065" y="419" on="0"/>
        <pt x="1987" y="458" on="0"/>
        <pt x="1987" y="489" on="1"/>
        <pt x="1987" y="520" on="0"/>
        <pt x="2041" y="550" on="0"/>
        <pt x="2090" y="550" on="1"/>
        <pt x="2139" y="550" on="0"/>
        <pt x="2193" y="520" on="0"/>
        <pt x="2193" y="489" on="1"/>
        <pt x="2193" y="458" on="0"/>
        <pt x="2115" y="419" on="0"/>
        <pt x="2106" y="394" on="1"/>
        <pt x="2109" y="389" on="1"/>
        <pt x="2152" y="396" on="0"/>
        <pt x="2254" y="456" on="0"/>
        <pt x="2290" y="456" on="1"/>
        <pt x="2327" y="456" on="0"/>
        <pt x="2363" y="409" on="0"/>
        <pt x="2363" y="377" on="1"/>
        <pt x="2363" y="345" on="0"/>
        <pt x="2327" y="298" on="0"/>
        <pt x="2290" y="298" on="1"/>
        <pt x="2254" y="298" on="0"/>
        <pt x="2152" y="358" on="0"/>
        <pt x="2109" y="365" on="1"/>
        <pt x="2106" y="360" on="1"/>
        <pt x="2115" y="335" on="0"/>
        <pt x="2193" y="296" on="0"/>
        <pt x="2193" y="265" on="1"/>
        <pt x="2193" y="234" on="0"/>
        <pt x="2139" y="204" on="0"/>
        <pt x="2090" y="204" on="1"/>
        <pt x="2041" y="204" on="0"/>
        <pt x="1987" y="234" on="0"/>
        <pt x="1987" y="265" on="1"/>
        <pt x="1987" y="296" on="0"/>
        <pt x="2065" y="335" on="0"/>
        <pt x="2074" y="360" on="1"/>
        <pt x="2071" y="365" on="1"/>
        <pt x="2028" y="358" on="0"/>
        <pt x="1926" y="298" on="0"/>
        <pt x="1890" y="298" on="1"/>
        <pt x="1853" y="298" on="0"/>
        <pt x="1817" y="345" on="0"/>
      </contour>
      <contour>
        <pt x="2523" y="393" on="1"/>
        <pt x="2512" y="403" on="0"/>
        <pt x="2460" y="446" on="0"/>
        <pt x="2460" y="470" on="1"/>
        <pt x="2460" y="489" on="0"/>
        <pt x="2494" y="520" on="0"/>
        <pt x="2527" y="520" on="1"/>
        <pt x="2560" y="520" on="0"/>
        <pt x="2594" y="489" on="0"/>
        <pt x="2594" y="470" on="1"/>
        <pt x="2594" y="446" on="0"/>
        <pt x="2542" y="403" on="0"/>
        <pt x="2531" y="393" on="1"/>
      </contour>
      <contour>
        <pt x="2570" y="382" on="1"/>
        <pt x="2588" y="392" on="0"/>
        <pt x="2649" y="433" on="0"/>
        <pt x="2686" y="433" on="1"/>
        <pt x="2711" y="433" on="0"/>
        <pt x="2737" y="402" on="0"/>
        <pt x="2737" y="377" on="1"/>
        <pt x="2737" y="352" on="0"/>
        <pt x="2711" y="321" on="0"/>
        <pt x="2686" y="321" on="1"/>
        <pt x="2649" y="321" on="0"/>
        <pt x="2588" y="362" on="0"/>
        <pt x="2570" y="372" on="1"/>
      </contour>
      <contour>
        <pt x="2523" y="361" on="1"/>
        <pt x="2531" y="361" on="1"/>
        <pt x="2542" y="351" on="0"/>
        <pt x="2594" y="308" on="0"/>
        <pt x="2594" y="284" on="1"/>
        <pt x="2594" y="265" on="0"/>
        <pt x="2560" y="234" on="0"/>
        <pt x="2527" y="234" on="1"/>
        <pt x="2494" y="234" on="0"/>
        <pt x="2460" y="265" on="0"/>
        <pt x="2460" y="284" on="1"/>
        <pt x="2460" y="308" on="0"/>
        <pt x="2512" y="351" on="0"/>
      </contour>
    </TTGlyph>
    <TTGlyph name="e" xMin="-3" yMin="20" xMax="938" yMax="734">
      <contour>
        <pt x="938" y="377" on="1"/>
        <pt x="938" y="234" on="0"/>
        <pt x="702" y="20" on="0"/>
        <pt x="538" y="27" on="1"/>
        <pt x="529" y="40" on="1"/>
        <pt x="530" y="132" on="0"/>
        <pt x="611" y="280" on="0"/>
        <pt x="695" y="334" on="1"/>
        <pt x="635" y="330" on="0"/>
        <pt x="513" y="315" on="0"/>
        <pt x="469" y="308" on="1"/>
        <pt x="488" y="281" on="0"/>
        <pt x="482" y="207" on="0"/>
        <pt x="454" y="179" on="1"/>
        <pt x="418" y="143" on="0"/>
        <pt x="331" y="153" on="0"/>
        <pt x="300" y="189" on="1"/>
        <pt x="287" y="149" on="0"/>
        <pt x="217" y="108" on="0"/>
        <pt x="173" y="123" on="1"/>
        <pt x="124" y="140" on="0"/>
        <pt x="95" y="228" on="0"/>
        <pt x="115" y="273" on="1"/>
        <pt x="68" y="266" on="0"/>
        <pt x="-3" y="323" on="0"/>
        <pt x="-3" y="377" on="1"/>
        <pt x="-3" y="431" on="0"/>
        <pt x="68" y="488" on="0"/>
        <pt x="115" y="481" on="1"/>
        <pt x="95" y="526" on="0"/>
        <pt x="124" y="614" on="0"/>
        <pt x="173" y="631" on="1"/>
        <pt x="217" y="646" on="0"/>
        <pt x="287" y="605" on="0"/>
        <pt x="300" y="565" on="1"/>
        <pt x="331" y="601" on="0"/>
        <pt x="418" y="611" on="0"/>
        <pt x="454" y="575" on="1"/>
        <pt x="482" y="547" on="0"/>
        <pt x="488" y="473" on="0"/>
        <pt x="469" y="446" on="1"/>
        <pt x="513" y="439" on="0"/>
        <pt x="635" y="424" on="0"/>
        <pt x="695" y="420" on="1"/>
        <pt x="611" y="474" on="0"/>
        <pt x="530" y="622" on="0"/>
        <pt x="529" y="714" on="1"/>
        <pt x="538" y="727" on="1"/>
        <pt x="702" y="734" on="0"/>
        <pt x="938" y="520" on="0"/>
      </contour>
    </TTGlyph>
    <TTGlyph name="eight" xMin="-10" yMin="27" xMax="3308" yMax="757">
      <contour>
        <pt x="2912" y="219" on="1"/>
        <pt x="2878" y="219" on="0"/>
        <pt x="2824" y="252" on="0"/>
        <pt x="2804" y="280" on="1"/>
        <pt x="2820" y="184" on="0"/>
        <pt x="2925" y="113" on="0"/>
        <pt x="2976" y="113" on="1"/>
        <pt x="3076" y="113" on="0"/>
        <pt x="3212" y="267" on="0"/>
        <pt x="3212" y="382" on="1"/>
        <pt x="3212" y="507" on="0"/>
        <pt x="3036" y="671" on="0"/>
        <pt x="2917" y="671" on="1"/>
        <pt x="2722" y="671" on="0"/>
        <pt x="2537" y="442" on="0"/>
        <pt x="2537" y="305" on="1"/>
        <pt x="2537" y="249" on="0"/>
        <pt x="2566" y="139" on="0"/>
        <pt x="2594" y="92" on="1"/>
        <pt x="2575" y="69" on="1"/>
        <pt x="1715" y="256" on="0"/>
        <pt x="620" y="341" on="0"/>
        <pt x="-10" y="341" on="1"/>
        <pt x="-10" y="413" on="1"/>
        <pt x="618" y="412" on="0"/>
        <pt x="1723" y="477" on="0"/>
        <pt x="2224" y="598" on="1"/>
        <pt x="2440" y="649" on="0"/>
        <pt x="2764" y="757" on="0"/>
        <pt x="2901" y="757" on="1"/>
        <pt x="3090" y="757" on="0"/>
        <pt x="3308" y="538" on="0"/>
        <pt x="3308" y="387" on="1"/>
        <pt x="3308" y="245" on="0"/>
        <pt x="3130" y="27" on="0"/>
        <pt x="2973" y="27" on="1"/>
        <pt x="2858" y="27" on="0"/>
        <pt x="2708" y="192" on="0"/>
        <pt x="2708" y="288" on="1"/>
        <pt x="2708" y="374" on="0"/>
        <pt x="2800" y="515" on="0"/>
        <pt x="2901" y="515" on="1"/>
        <pt x="2976" y="515" on="0"/>
        <pt x="3057" y="424" on="0"/>
        <pt x="3057" y="364" on="1"/>
        <pt x="3057" y="304" on="0"/>
        <pt x="2980" y="219" on="0"/>
      </contour>
    </TTGlyph>
    <TTGlyph name="ellipsis" xMin="0" yMin="0" xMax="620" yMax="754">
      <contour>
        <pt x="620" y="0" on="1"/>
        <pt x="0" y="0" on="1"/>
        <pt x="0" y="754" on="1"/>
        <pt x="620" y="754" on="1"/>
      </contour>
    </TTGlyph>
    <TTGlyph name="emdash" xMin="-10" yMin="-6" xMax="874" yMax="760">
      <contour>
        <pt x="653" y="-6" on="1"/>
        <pt x="211" y="-6" on="1"/>
        <pt x="-10" y="377" on="1"/>
        <pt x="211" y="760" on="1"/>
        <pt x="653" y="760" on="1"/>
        <pt x="874" y="377" on="1"/>
      </contour>
    </TTGlyph>
    <TTGlyph name="endash" xMin="-20" yMin="0" xMax="2157" yMax="754">
      <contour>
        <pt x="2157" y="377" on="1"/>
        <pt x="1782" y="0" on="1"/>
        <pt x="354" y="0" on="1"/>
        <pt x="-20" y="377" on="1"/>
        <pt x="354" y="754" on="1"/>
        <pt x="1782" y="754" on="1"/>
      </contour>
    </TTGlyph>
    <TTGlyph name="equal" xMin="-3" yMin="23" xMax="1169" yMax="731">
      <contour>
        <pt x="-3" y="377" on="1"/>
        <pt x="-3" y="406" on="0"/>
        <pt x="38" y="442" on="0"/>
        <pt x="78" y="442" on="1"/>
        <pt x="108" y="442" on="0"/>
        <pt x="225" y="431" on="0"/>
        <pt x="282" y="424" on="1"/>
        <pt x="433" y="405" on="1"/>
        <pt x="434" y="409" on="1"/>
        <pt x="216" y="477" on="1"/>
        <pt x="167" y="492" on="0"/>
        <pt x="122" y="537" on="0"/>
        <pt x="122" y="559" on="1"/>
        <pt x="122" y="580" on="0"/>
        <pt x="152" y="617" on="0"/>
        <pt x="178" y="617" on="1"/>
        <pt x="197" y="617" on="0"/>
        <pt x="247" y="596" on="0"/>
        <pt x="278" y="577" on="1"/>
        <pt x="483" y="452" on="1"/>
        <pt x="489" y="455" on="1"/>
        <pt x="393" y="542" on="1"/>
        <pt x="361" y="571" on="0"/>
        <pt x="327" y="617" on="0"/>
        <pt x="327" y="644" on="1"/>
        <pt x="327" y="666" on="0"/>
        <pt x="360" y="699" on="0"/>
        <pt x="388" y="699" on="1"/>
        <pt x="418" y="699" on="0"/>
        <pt x="465" y="639" on="0"/>
        <pt x="500" y="570" on="1"/>
        <pt x="549" y="474" on="1"/>
        <pt x="555" y="475" on="1"/>
        <pt x="528" y="619" on="1"/>
        <pt x="524" y="642" on="0"/>
        <pt x="522" y="668" on="0"/>
        <pt x="522" y="677" on="1"/>
        <pt x="522" y="700" on="0"/>
        <pt x="553" y="731" on="0"/>
        <pt x="583" y="731" on="1"/>
        <pt x="613" y="731" on="0"/>
        <pt x="644" y="700" on="0"/>
        <pt x="644" y="677" on="1"/>
        <pt x="644" y="668" on="0"/>
        <pt x="642" y="642" on="0"/>
        <pt x="638" y="619" on="1"/>
        <pt x="611" y="475" on="1"/>
        <pt x="617" y="474" on="1"/>
        <pt x="666" y="570" on="1"/>
        <pt x="701" y="639" on="0"/>
        <pt x="748" y="699" on="0"/>
        <pt x="778" y="699" on="1"/>
        <pt x="806" y="699" on="0"/>
        <pt x="839" y="666" on="0"/>
        <pt x="839" y="644" on="1"/>
        <pt x="839" y="617" on="0"/>
        <pt x="805" y="571" on="0"/>
        <pt x="773" y="542" on="1"/>
        <pt x="677" y="455" on="1"/>
        <pt x="683" y="452" on="1"/>
        <pt x="888" y="577" on="1"/>
        <pt x="919" y="596" on="0"/>
        <pt x="969" y="617" on="0"/>
        <pt x="988" y="617" on="1"/>
        <pt x="1014" y="617" on="0"/>
        <pt x="1044" y="580" on="0"/>
        <pt x="1044" y="559" on="1"/>
        <pt x="1044" y="537" on="0"/>
        <pt x="999" y="492" on="0"/>
        <pt x="950" y="477" on="1"/>
        <pt x="732" y="409" on="1"/>
        <pt x="733" y="405" on="1"/>
        <pt x="884" y="424" on="1"/>
        <pt x="941" y="431" on="0"/>
        <pt x="1058" y="442" on="0"/>
        <pt x="1088" y="442" on="1"/>
        <pt x="1128" y="442" on="0"/>
        <pt x="1169" y="406" on="0"/>
        <pt x="1169" y="377" on="1"/>
        <pt x="1169" y="348" on="0"/>
        <pt x="1128" y="312" on="0"/>
        <pt x="1088" y="312" on="1"/>
        <pt x="1058" y="312" on="0"/>
        <pt x="941" y="323" on="0"/>
        <pt x="884" y="330" on="1"/>
        <pt x="733" y="349" on="1"/>
        <pt x="732" y="345" on="1"/>
        <pt x="950" y="277" on="1"/>
        <pt x="999" y="262" on="0"/>
        <pt x="1044" y="217" on="0"/>
        <pt x="1044" y="195" on="1"/>
        <pt x="1044" y="174" on="0"/>
        <pt x="1014" y="137" on="0"/>
        <pt x="988" y="137" on="1"/>
        <pt x="969" y="137" on="0"/>
        <pt x="919" y="158" on="0"/>
        <pt x="888" y="177" on="1"/>
        <pt x="683" y="302" on="1"/>
        <pt x="677" y="299" on="1"/>
        <pt x="773" y="212" on="1"/>
        <pt x="805" y="183" on="0"/>
        <pt x="839" y="137" on="0"/>
        <pt x="839" y="110" on="1"/>
        <pt x="839" y="88" on="0"/>
        <pt x="806" y="55" on="0"/>
        <pt x="778" y="55" on="1"/>
        <pt x="748" y="55" on="0"/>
        <pt x="701" y="115" on="0"/>
        <pt x="666" y="184" on="1"/>
        <pt x="617" y="280" on="1"/>
        <pt x="611" y="279" on="1"/>
        <pt x="638" y="135" on="1"/>
        <pt x="642" y="112" on="0"/>
        <pt x="644" y="86" on="0"/>
        <pt x="644" y="77" on="1"/>
        <pt x="644" y="54" on="0"/>
        <pt x="613" y="23" on="0"/>
        <pt x="583" y="23" on="1"/>
        <pt x="553" y="23" on="0"/>
        <pt x="522" y="54" on="0"/>
        <pt x="522" y="77" on="1"/>
        <pt x="522" y="86" on="0"/>
        <pt x="524" y="112" on="0"/>
        <pt x="528" y="135" on="1"/>
        <pt x="555" y="279" on="1"/>
        <pt x="549" y="280" on="1"/>
        <pt x="500" y="184" on="1"/>
        <pt x="465" y="115" on="0"/>
        <pt x="418" y="55" on="0"/>
        <pt x="388" y="55" on="1"/>
        <pt x="360" y="55" on="0"/>
        <pt x="327" y="88" on="0"/>
        <pt x="327" y="110" on="1"/>
        <pt x="327" y="137" on="0"/>
        <pt x="361" y="183" on="0"/>
        <pt x="393" y="212" on="1"/>
        <pt x="489" y="299" on="1"/>
        <pt x="483" y="302" on="1"/>
        <pt x="278" y="177" on="1"/>
        <pt x="247" y="158" on="0"/>
        <pt x="197" y="137" on="0"/>
        <pt x="178" y="137" on="1"/>
        <pt x="152" y="137" on="0"/>
        <pt x="122" y="174" on="0"/>
        <pt x="122" y="195" on="1"/>
        <pt x="122" y="217" on="0"/>
        <pt x="167" y="262" on="0"/>
        <pt x="216" y="277" on="1"/>
        <pt x="434" y="345" on="1"/>
        <pt x="433" y="349" on="1"/>
        <pt x="282" y="330" on="1"/>
        <pt x="225" y="323" on="0"/>
        <pt x="108" y="312" on="0"/>
        <pt x="78" y="312" on="1"/>
        <pt x="38" y="312" on="0"/>
        <pt x="-3" y="348" on="0"/>
      </contour>
    </TTGlyph>
    <TTGlyph name="exclam" xMin="110" yMin="35" xMax="3651" yMax="719">
      <contour>
        <pt x="662" y="719" on="1"/>
        <pt x="824" y="719" on="0"/>
        <pt x="1040" y="521" on="0"/>
        <pt x="1040" y="377" on="1"/>
        <pt x="1040" y="233" on="0"/>
        <pt x="824" y="35" on="0"/>
        <pt x="662" y="35" on="1"/>
        <pt x="502" y="35" on="0"/>
        <pt x="285" y="233" on="0"/>
        <pt x="285" y="377" on="1"/>
        <pt x="285" y="521" on="0"/>
        <pt x="502" y="719" on="0"/>
      </contour>
      <contour>
        <pt x="192" y="715" on="1"/>
        <pt x="192" y="39" on="1"/>
        <pt x="110" y="39" on="1"/>
        <pt x="110" y="715" on="1"/>
      </contour>
      <contour>
        <pt x="1947" y="377" on="1"/>
        <pt x="1947" y="254" on="0"/>
        <pt x="1763" y="87" on="0"/>
        <pt x="1626" y="87" on="1"/>
        <pt x="1489" y="87" on="0"/>
        <pt x="1305" y="254" on="0"/>
        <pt x="1305" y="377" on="1"/>
        <pt x="1305" y="500" on="0"/>
        <pt x="1489" y="668" on="0"/>
        <pt x="1626" y="668" on="1"/>
        <pt x="1763" y="668" on="0"/>
        <pt x="1947" y="500" on="0"/>
      </contour>
      <contour>
        <pt x="1212" y="661" on="1"/>
        <pt x="1212" y="93" on="1"/>
        <pt x="1132" y="93" on="1"/>
        <pt x="1132" y="661" on="1"/>
      </contour>
      <contour>
        <pt x="2757" y="377" on="1"/>
        <pt x="2757" y="273" on="0"/>
        <pt x="2600" y="130" on="0"/>
        <pt x="2484" y="130" on="1"/>
        <pt x="2368" y="130" on="0"/>
        <pt x="2211" y="273" on="0"/>
        <pt x="2211" y="377" on="1"/>
        <pt x="2211" y="481" on="0"/>
        <pt x="2368" y="625" on="0"/>
        <pt x="2484" y="625" on="1"/>
        <pt x="2600" y="625" on="0"/>
        <pt x="2757" y="481" on="0"/>
      </contour>
      <contour>
        <pt x="2118" y="616" on="1"/>
        <pt x="2118" y="138" on="1"/>
        <pt x="2039" y="138" on="1"/>
        <pt x="2039" y="616" on="1"/>
      </contour>
      <contour>
        <pt x="3483" y="377" on="1"/>
        <pt x="3483" y="289" on="0"/>
        <pt x="3350" y="167" on="0"/>
        <pt x="3251" y="167" on="1"/>
        <pt x="3152" y="167" on="0"/>
        <pt x="3019" y="289" on="0"/>
        <pt x="3019" y="377" on="1"/>
        <pt x="3019" y="465" on="0"/>
        <pt x="3152" y="588" on="0"/>
        <pt x="3251" y="588" on="1"/>
        <pt x="3350" y="588" on="0"/>
        <pt x="3483" y="465" on="0"/>
      </contour>
      <contour>
        <pt x="2926" y="580" on="1"/>
        <pt x="2926" y="174" on="1"/>
        <pt x="2849" y="174" on="1"/>
        <pt x="2849" y="580" on="1"/>
      </contour>
      <contour>
        <pt x="3651" y="549" on="1"/>
        <pt x="3651" y="205" on="1"/>
        <pt x="3576" y="205" on="1"/>
        <pt x="3576" y="549" on="1"/>
      </contour>
    </TTGlyph>
    <TTGlyph name="exclamdown" xMin="-20" yMin="-22" xMax="2494" yMax="776">
      <contour>
        <pt x="1237" y="776" on="1"/>
        <pt x="1844" y="776" on="0"/>
        <pt x="2494" y="393" on="0"/>
        <pt x="2494" y="393" on="1"/>
        <pt x="2494" y="361" on="1"/>
        <pt x="2494" y="361" on="0"/>
        <pt x="1844" y="-22" on="0"/>
        <pt x="1237" y="-22" on="1"/>
        <pt x="630" y="-22" on="0"/>
        <pt x="-20" y="361" on="0"/>
        <pt x="-20" y="361" on="1"/>
        <pt x="-20" y="393" on="1"/>
        <pt x="-20" y="393" on="0"/>
        <pt x="630" y="776" on="0"/>
      </contour>
    </TTGlyph>
    <TTGlyph name="f" xMin="-15" yMin="-32" xMax="1448" yMax="786">
      <contour>
        <pt x="-15" y="375" on="1"/>
        <pt x="-15" y="379" on="1"/>
        <pt x="57" y="460" on="0"/>
        <pt x="211" y="514" on="0"/>
        <pt x="357" y="485" on="1"/>
        <pt x="360" y="487" on="1"/>
        <pt x="308" y="540" on="0"/>
        <pt x="292" y="634" on="0"/>
        <pt x="292" y="680" on="1"/>
        <pt x="294" y="683" on="1"/>
        <pt x="411" y="709" on="0"/>
        <pt x="553" y="617" on="0"/>
        <pt x="587" y="539" on="1"/>
        <pt x="603" y="561" on="0"/>
        <pt x="659" y="594" on="0"/>
        <pt x="702" y="598" on="1"/>
        <pt x="694" y="614" on="0"/>
        <pt x="679" y="650" on="0"/>
        <pt x="673" y="670" on="1"/>
        <pt x="678" y="678" on="1"/>
        <pt x="804" y="702" on="0"/>
        <pt x="1024" y="640" on="0"/>
        <pt x="1116" y="565" on="1"/>
        <pt x="1120" y="569" on="1"/>
        <pt x="1092" y="627" on="0"/>
        <pt x="1093" y="741" on="0"/>
        <pt x="1121" y="783" on="1"/>
        <pt x="1132" y="786" on="1"/>
        <pt x="1226" y="747" on="0"/>
        <pt x="1331" y="566" on="0"/>
        <pt x="1332" y="444" on="1"/>
        <pt x="1342" y="436" on="0"/>
        <pt x="1417" y="420" on="0"/>
        <pt x="1445" y="413" on="1"/>
        <pt x="1446" y="403" on="0"/>
        <pt x="1448" y="385" on="0"/>
        <pt x="1448" y="377" on="1"/>
        <pt x="1448" y="369" on="0"/>
        <pt x="1446" y="351" on="0"/>
        <pt x="1445" y="341" on="1"/>
        <pt x="1417" y="334" on="0"/>
        <pt x="1342" y="318" on="0"/>
        <pt x="1332" y="310" on="1"/>
        <pt x="1331" y="188" on="0"/>
        <pt x="1226" y="7" on="0"/>
        <pt x="1132" y="-32" on="1"/>
        <pt x="1121" y="-29" on="1"/>
        <pt x="1093" y="13" on="0"/>
        <pt x="1092" y="127" on="0"/>
        <pt x="1120" y="185" on="1"/>
        <pt x="1116" y="189" on="1"/>
        <pt x="1024" y="114" on="0"/>
        <pt x="804" y="52" on="0"/>
        <pt x="678" y="76" on="1"/>
        <pt x="673" y="84" on="1"/>
        <pt x="679" y="104" on="0"/>
        <pt x="694" y="140" on="0"/>
        <pt x="702" y="156" on="1"/>
        <pt x="659" y="160" on="0"/>
        <pt x="603" y="193" on="0"/>
        <pt x="587" y="215" on="1"/>
        <pt x="553" y="137" on="0"/>
        <pt x="411" y="45" on="0"/>
        <pt x="294" y="71" on="1"/>
        <pt x="292" y="74" on="1"/>
        <pt x="292" y="120" on="0"/>
        <pt x="308" y="214" on="0"/>
        <pt x="360" y="267" on="1"/>
        <pt x="357" y="269" on="1"/>
        <pt x="211" y="240" on="0"/>
        <pt x="57" y="294" on="0"/>
      </contour>
      <contour>
        <pt x="991" y="374" on="1"/>
        <pt x="991" y="380" on="1"/>
        <pt x="923" y="388" on="0"/>
        <pt x="797" y="435" on="0"/>
        <pt x="772" y="473" on="1"/>
        <pt x="757" y="441" on="0"/>
        <pt x="700" y="390" on="0"/>
        <pt x="664" y="377" on="1"/>
        <pt x="700" y="364" on="0"/>
        <pt x="757" y="312" on="0"/>
        <pt x="772" y="280" on="1"/>
        <pt x="797" y="318" on="0"/>
        <pt x="923" y="365" on="0"/>
      </contour>
    </TTGlyph>
    <TTGlyph name="five" xMin="-10" yMin="103" xMax="4377" yMax="651">
      <contour>
        <pt x="4377" y="377" on="1"/>
        <pt x="4377" y="280" on="0"/>
        <pt x="4005" y="103" on="0"/>
        <pt x="3708" y="103" on="1"/>
        <pt x="3254" y="103" on="0"/>
        <pt x="1815" y="340" on="0"/>
        <pt x="-10" y="340" on="1"/>
        <pt x="-10" y="413" on="1"/>
        <pt x="1815" y="413" on="0"/>
        <pt x="3254" y="651" on="0"/>
        <pt x="3708" y="651" on="1"/>
        <pt x="4005" y="651" on="0"/>
        <pt x="4377" y="473" on="0"/>
      </contour>
    </TTGlyph>
    <TTGlyph name="four" xMin="53" yMin="78" xMax="2718" yMax="676">
      <contour>
        <pt x="2718" y="377" on="1"/>
        <pt x="2718" y="304" on="0"/>
        <pt x="2648" y="229" on="0"/>
        <pt x="2592" y="229" on="1"/>
        <pt x="2536" y="229" on="0"/>
        <pt x="2381" y="349" on="0"/>
        <pt x="2319" y="359" on="1"/>
        <pt x="2316" y="351" on="1"/>
        <pt x="2328" y="313" on="0"/>
        <pt x="2466" y="228" on="0"/>
        <pt x="2466" y="175" on="1"/>
        <pt x="2466" y="132" on="0"/>
        <pt x="2378" y="78" on="0"/>
        <pt x="2292" y="78" on="1"/>
        <pt x="2206" y="78" on="0"/>
        <pt x="2118" y="132" on="0"/>
        <pt x="2118" y="175" on="1"/>
        <pt x="2118" y="228" on="0"/>
        <pt x="2256" y="313" on="0"/>
        <pt x="2268" y="351" on="1"/>
        <pt x="2265" y="359" on="1"/>
        <pt x="2203" y="349" on="0"/>
        <pt x="2048" y="229" on="0"/>
        <pt x="1992" y="229" on="1"/>
        <pt x="1936" y="229" on="0"/>
        <pt x="1866" y="304" on="0"/>
        <pt x="1866" y="377" on="1"/>
        <pt x="1866" y="450" on="0"/>
        <pt x="1936" y="525" on="0"/>
        <pt x="1992" y="525" on="1"/>
        <pt x="2048" y="525" on="0"/>
        <pt x="2203" y="405" on="0"/>
        <pt x="2265" y="395" on="1"/>
        <pt x="2268" y="403" on="1"/>
        <pt x="2256" y="441" on="0"/>
        <pt x="2118" y="526" on="0"/>
        <pt x="2118" y="579" on="1"/>
        <pt x="2118" y="622" on="0"/>
        <pt x="2206" y="676" on="0"/>
        <pt x="2292" y="676" on="1"/>
        <pt x="2378" y="676" on="0"/>
        <pt x="2466" y="622" on="0"/>
        <pt x="2466" y="579" on="1"/>
        <pt x="2466" y="526" on="0"/>
        <pt x="2328" y="441" on="0"/>
        <pt x="2316" y="403" on="1"/>
        <pt x="2319" y="395" on="1"/>
        <pt x="2381" y="405" on="0"/>
        <pt x="2536" y="525" on="0"/>
        <pt x="2592" y="525" on="1"/>
        <pt x="2648" y="525" on="0"/>
        <pt x="2718" y="450" on="0"/>
      </contour>
      <contour>
        <pt x="1763" y="377" on="1"/>
        <pt x="1763" y="324" on="0"/>
        <pt x="1710" y="264" on="0"/>
        <pt x="1664" y="264" on="1"/>
        <pt x="1618" y="264" on="0"/>
        <pt x="1489" y="353" on="0"/>
        <pt x="1437" y="362" on="1"/>
        <pt x="1434" y="356" on="1"/>
        <pt x="1444" y="324" on="0"/>
        <pt x="1552" y="262" on="0"/>
        <pt x="1552" y="220" on="1"/>
        <pt x="1552" y="183" on="0"/>
        <pt x="1481" y="141" on="0"/>
        <pt x="1414" y="141" on="1"/>
        <pt x="1347" y="141" on="0"/>
        <pt x="1276" y="183" on="0"/>
        <pt x="1276" y="220" on="1"/>
        <pt x="1276" y="262" on="0"/>
        <pt x="1384" y="324" on="0"/>
        <pt x="1394" y="356" on="1"/>
        <pt x="1391" y="362" on="1"/>
        <pt x="1339" y="353" on="0"/>
        <pt x="1210" y="264" on="0"/>
        <pt x="1164" y="264" on="1"/>
        <pt x="1118" y="264" on="0"/>
        <pt x="1065" y="324" on="0"/>
        <pt x="1065" y="377" on="1"/>
        <pt x="1065" y="430" on="0"/>
        <pt x="1118" y="490" on="0"/>
        <pt x="1164" y="490" on="1"/>
        <pt x="1210" y="490" on="0"/>
        <pt x="1339" y="401" on="0"/>
        <pt x="1391" y="392" on="1"/>
        <pt x="1394" y="398" on="1"/>
        <pt x="1384" y="430" on="0"/>
        <pt x="1276" y="492" on="0"/>
        <pt x="1276" y="534" on="1"/>
        <pt x="1276" y="571" on="0"/>
        <pt x="1347" y="613" on="0"/>
        <pt x="1414" y="613" on="1"/>
        <pt x="1481" y="613" on="0"/>
        <pt x="1552" y="571" on="0"/>
        <pt x="1552" y="534" on="1"/>
        <pt x="1552" y="492" on="0"/>
        <pt x="1444" y="430" on="0"/>
        <pt x="1434" y="398" on="1"/>
        <pt x="1437" y="392" on="1"/>
        <pt x="1489" y="401" on="0"/>
        <pt x="1618" y="490" on="0"/>
        <pt x="1664" y="490" on="1"/>
        <pt x="1710" y="490" on="0"/>
        <pt x="1763" y="430" on="0"/>
      </contour>
      <contour>
        <pt x="973" y="377" on="1"/>
        <pt x="973" y="345" on="0"/>
        <pt x="937" y="298" on="0"/>
        <pt x="900" y="298" on="1"/>
        <pt x="864" y="298" on="0"/>
        <pt x="762" y="358" on="0"/>
        <pt x="719" y="365" on="1"/>
        <pt x="716" y="360" on="1"/>
        <pt x="725" y="335" on="0"/>
        <pt x="803" y="296" on="0"/>
        <pt x="803" y="265" on="1"/>
        <pt x="803" y="234" on="0"/>
        <pt x="749" y="204" on="0"/>
        <pt x="700" y="204" on="1"/>
        <pt x="651" y="204" on="0"/>
        <pt x="597" y="234" on="0"/>
        <pt x="597" y="265" on="1"/>
        <pt x="597" y="296" on="0"/>
        <pt x="675" y="335" on="0"/>
        <pt x="684" y="360" on="1"/>
        <pt x="681" y="365" on="1"/>
        <pt x="638" y="358" on="0"/>
        <pt x="536" y="298" on="0"/>
        <pt x="500" y="298" on="1"/>
        <pt x="463" y="298" on="0"/>
        <pt x="427" y="345" on="0"/>
        <pt x="427" y="377" on="1"/>
        <pt x="427" y="409" on="0"/>
        <pt x="463" y="456" on="0"/>
        <pt x="500" y="456" on="1"/>
        <pt x="536" y="456" on="0"/>
        <pt x="638" y="396" on="0"/>
        <pt x="681" y="389" on="1"/>
        <pt x="684" y="394" on="1"/>
        <pt x="675" y="419" on="0"/>
        <pt x="597" y="458" on="0"/>
        <pt x="597" y="489" on="1"/>
        <pt x="597" y="520" on="0"/>
        <pt x="651" y="550" on="0"/>
        <pt x="700" y="550" on="1"/>
        <pt x="749" y="550" on="0"/>
        <pt x="803" y="520" on="0"/>
        <pt x="803" y="489" on="1"/>
        <pt x="803" y="458" on="0"/>
        <pt x="725" y="419" on="0"/>
        <pt x="716" y="394" on="1"/>
        <pt x="719" y="389" on="1"/>
        <pt x="762" y="396" on="0"/>
        <pt x="864" y="456" on="0"/>
        <pt x="900" y="456" on="1"/>
        <pt x="937" y="456" on="0"/>
        <pt x="973" y="409" on="0"/>
      </contour>
      <contour>
        <pt x="267" y="393" on="1"/>
        <pt x="259" y="393" on="1"/>
        <pt x="248" y="403" on="0"/>
        <pt x="196" y="446" on="0"/>
        <pt x="196" y="470" on="1"/>
        <pt x="196" y="489" on="0"/>
        <pt x="230" y="520" on="0"/>
        <pt x="263" y="520" on="1"/>
        <pt x="296" y="520" on="0"/>
        <pt x="330" y="489" on="0"/>
        <pt x="330" y="470" on="1"/>
        <pt x="330" y="446" on="0"/>
        <pt x="278" y="403" on="0"/>
      </contour>
      <contour>
        <pt x="220" y="382" on="1"/>
        <pt x="220" y="372" on="1"/>
        <pt x="202" y="362" on="0"/>
        <pt x="141" y="321" on="0"/>
        <pt x="104" y="321" on="1"/>
        <pt x="79" y="321" on="0"/>
        <pt x="53" y="352" on="0"/>
        <pt x="53" y="377" on="1"/>
        <pt x="53" y="402" on="0"/>
        <pt x="79" y="433" on="0"/>
        <pt x="104" y="433" on="1"/>
        <pt x="141" y="433" on="0"/>
        <pt x="202" y="392" on="0"/>
      </contour>
      <contour>
        <pt x="267" y="361" on="1"/>
        <pt x="278" y="351" on="0"/>
        <pt x="330" y="308" on="0"/>
        <pt x="330" y="284" on="1"/>
        <pt x="330" y="265" on="0"/>
        <pt x="296" y="234" on="0"/>
        <pt x="263" y="234" on="1"/>
        <pt x="230" y="234" on="0"/>
        <pt x="196" y="265" on="0"/>
        <pt x="196" y="284" on="1"/>
        <pt x="196" y="308" on="0"/>
        <pt x="248" y="351" on="0"/>
        <pt x="259" y="361" on="1"/>
      </contour>
    </TTGlyph>
    <TTGlyph name="fraction" xMin="-3" yMin="151" xMax="449" yMax="603">
      <contour>
        <pt x="223" y="151" on="1"/>
        <pt x="130" y="151" on="0"/>
        <pt x="-3" y="284" on="0"/>
        <pt x="-3" y="377" on="1"/>
        <pt x="-3" y="470" on="0"/>
        <pt x="130" y="603" on="0"/>
        <pt x="223" y="603" on="1"/>
        <pt x="316" y="603" on="0"/>
        <pt x="449" y="470" on="0"/>
        <pt x="449" y="377" on="1"/>
        <pt x="449" y="284" on="0"/>
        <pt x="316" y="151" on="0"/>
      </contour>
    </TTGlyph>
    <TTGlyph name="g" xMin="-3" yMin="-9" xMax="1165" yMax="763">
      <contour>
        <pt x="-3" y="377" on="1"/>
        <pt x="-3" y="496" on="0"/>
        <pt x="200" y="649" on="0"/>
        <pt x="367" y="617" on="1"/>
        <pt x="403" y="684" on="0"/>
        <pt x="513" y="763" on="0"/>
        <pt x="591" y="763" on="1"/>
        <pt x="678" y="763" on="0"/>
        <pt x="853" y="664" on="0"/>
        <pt x="971" y="538" on="1"/>
        <pt x="1041" y="463" on="0"/>
        <pt x="1104" y="420" on="0"/>
        <pt x="1165" y="413" on="1"/>
        <pt x="1165" y="341" on="1"/>
        <pt x="1104" y="334" on="0"/>
        <pt x="1041" y="291" on="0"/>
        <pt x="971" y="216" on="1"/>
        <pt x="853" y="90" on="0"/>
        <pt x="678" y="-9" on="0"/>
        <pt x="591" y="-9" on="1"/>
        <pt x="513" y="-9" on="0"/>
        <pt x="403" y="70" on="0"/>
        <pt x="367" y="137" on="1"/>
        <pt x="200" y="105" on="0"/>
        <pt x="-3" y="258" on="0"/>
      </contour>
    </TTGlyph>
    <TTGlyph name="greater" xMin="-20" yMin="46" xMax="536" yMax="708">
      <contour>
        <pt x="536" y="391" on="1"/>
        <pt x="536" y="363" on="1"/>
        <pt x="270" y="46" on="1"/>
        <pt x="246" y="46" on="1"/>
        <pt x="-20" y="363" on="1"/>
        <pt x="-20" y="391" on="1"/>
        <pt x="246" y="708" on="1"/>
        <pt x="270" y="708" on="1"/>
      </contour>
    </TTGlyph>
    <TTGlyph name="guillemotleft" xMin="0" yMin="-50" xMax="766" yMax="834">
      <contour>
        <pt x="0" y="171" on="1"/>
        <pt x="0" y="613" on="1"/>
        <pt x="383" y="834" on="1"/>
        <pt x="766" y="613" on="1"/>
        <pt x="766" y="171" on="1"/>
        <pt x="383" y="-50" on="1"/>
      </contour>
    </TTGlyph>
    <TTGlyph name="guillemotright" xMin="-10" yMin="-6" xMax="874" yMax="760">
      <contour>
        <pt x="653" y="-6" on="1"/>
        <pt x="211" y="-6" on="1"/>
        <pt x="-10" y="377" on="1"/>
        <pt x="211" y="760" on="1"/>
        <pt x="653" y="760" on="1"/>
        <pt x="874" y="377" on="1"/>
      </contour>
    </TTGlyph>
    <TTGlyph name="guilsinglleft" xMin="-15" yMin="228" xMax="589" yMax="527">
      <contour>
        <pt x="589" y="393" on="1"/>
        <pt x="589" y="362" on="1"/>
        <pt x="567" y="337" on="0"/>
        <pt x="410" y="228" on="0"/>
        <pt x="287" y="228" on="1"/>
        <pt x="164" y="228" on="0"/>
        <pt x="6" y="337" on="0"/>
        <pt x="-15" y="362" on="1"/>
        <pt x="-15" y="393" on="1"/>
        <pt x="6" y="418" on="0"/>
        <pt x="164" y="527" on="0"/>
        <pt x="287" y="527" on="1"/>
        <pt x="410" y="527" on="0"/>
        <pt x="567" y="418" on="0"/>
      </contour>
    </TTGlyph>
    <TTGlyph name="guilsinglright" xMin="56" yMin="-32" xMax="416" yMax="786">
      <contour>
        <pt x="291" y="598" on="1"/>
        <pt x="291" y="589" on="1"/>
        <pt x="313" y="587" on="0"/>
        <pt x="364" y="577" on="0"/>
        <pt x="378" y="569" on="1"/>
        <pt x="401" y="556" on="0"/>
        <pt x="416" y="517" on="0"/>
        <pt x="404" y="497" on="1"/>
        <pt x="393" y="478" on="0"/>
        <pt x="351" y="469" on="0"/>
        <pt x="329" y="482" on="1"/>
        <pt x="314" y="490" on="0"/>
        <pt x="280" y="529" on="0"/>
        <pt x="267" y="548" on="1"/>
        <pt x="259" y="543" on="1"/>
        <pt x="269" y="524" on="0"/>
        <pt x="286" y="474" on="0"/>
        <pt x="286" y="457" on="1"/>
        <pt x="286" y="431" on="0"/>
        <pt x="259" y="401" on="0"/>
        <pt x="236" y="401" on="1"/>
        <pt x="213" y="401" on="0"/>
        <pt x="186" y="431" on="0"/>
        <pt x="186" y="457" on="1"/>
        <pt x="186" y="474" on="0"/>
        <pt x="203" y="524" on="0"/>
        <pt x="213" y="543" on="1"/>
        <pt x="205" y="548" on="1"/>
        <pt x="192" y="529" on="0"/>
        <pt x="158" y="490" on="0"/>
        <pt x="143" y="482" on="1"/>
        <pt x="121" y="469" on="0"/>
        <pt x="79" y="478" on="0"/>
        <pt x="68" y="497" on="1"/>
        <pt x="56" y="517" on="0"/>
        <pt x="71" y="556" on="0"/>
        <pt x="94" y="569" on="1"/>
        <pt x="108" y="577" on="0"/>
        <pt x="159" y="587" on="0"/>
        <pt x="181" y="589" on="1"/>
        <pt x="181" y="598" on="1"/>
        <pt x="159" y="601" on="0"/>
        <pt x="108" y="610" on="0"/>
        <pt x="94" y="618" on="1"/>
        <pt x="71" y="631" on="0"/>
        <pt x="56" y="670" on="0"/>
        <pt x="68" y="690" on="1"/>
        <pt x="79" y="709" on="0"/>
        <pt x="121" y="718" on="0"/>
        <pt x="143" y="705" on="1"/>
        <pt x="158" y="697" on="0"/>
        <pt x="192" y="658" on="0"/>
        <pt x="205" y="639" on="1"/>
        <pt x="213" y="644" on="1"/>
        <pt x="203" y="664" on="0"/>
        <pt x="186" y="713" on="0"/>
        <pt x="186" y="730" on="1"/>
        <pt x="186" y="756" on="0"/>
        <pt x="213" y="786" on="0"/>
        <pt x="236" y="786" on="1"/>
        <pt x="259" y="786" on="0"/>
        <pt x="286" y="756" on="0"/>
        <pt x="286" y="730" on="1"/>
        <pt x="286" y="713" on="0"/>
        <pt x="269" y="664" on="0"/>
        <pt x="259" y="644" on="1"/>
        <pt x="267" y="639" on="1"/>
        <pt x="280" y="658" on="0"/>
        <pt x="314" y="697" on="0"/>
        <pt x="329" y="705" on="1"/>
        <pt x="351" y="718" on="0"/>
        <pt x="393" y="709" on="0"/>
        <pt x="404" y="690" on="1"/>
        <pt x="416" y="670" on="0"/>
        <pt x="401" y="631" on="0"/>
        <pt x="378" y="618" on="1"/>
        <pt x="364" y="610" on="0"/>
        <pt x="313" y="601" on="0"/>
      </contour>
      <contour>
        <pt x="291" y="165" on="1"/>
        <pt x="291" y="156" on="1"/>
        <pt x="313" y="153" on="0"/>
        <pt x="364" y="144" on="0"/>
        <pt x="378" y="136" on="1"/>
        <pt x="401" y="123" on="0"/>
        <pt x="416" y="84" on="0"/>
        <pt x="404" y="64" on="1"/>
        <pt x="393" y="45" on="0"/>
        <pt x="351" y="36" on="0"/>
        <pt x="329" y="49" on="1"/>
        <pt x="314" y="57" on="0"/>
        <pt x="280" y="96" on="0"/>
        <pt x="267" y="115" on="1"/>
        <pt x="259" y="110" on="1"/>
        <pt x="269" y="91" on="0"/>
        <pt x="286" y="41" on="0"/>
        <pt x="286" y="24" on="1"/>
        <pt x="286" y="-2" on="0"/>
        <pt x="259" y="-32" on="0"/>
        <pt x="236" y="-32" on="1"/>
        <pt x="213" y="-32" on="0"/>
        <pt x="186" y="-2" on="0"/>
        <pt x="186" y="24" on="1"/>
        <pt x="186" y="41" on="0"/>
        <pt x="203" y="91" on="0"/>
        <pt x="213" y="110" on="1"/>
        <pt x="205" y="115" on="1"/>
        <pt x="192" y="96" on="0"/>
        <pt x="158" y="57" on="0"/>
        <pt x="143" y="49" on="1"/>
        <pt x="121" y="36" on="0"/>
        <pt x="79" y="45" on="0"/>
        <pt x="68" y="64" on="1"/>
        <pt x="56" y="84" on="0"/>
        <pt x="71" y="123" on="0"/>
        <pt x="94" y="136" on="1"/>
        <pt x="108" y="144" on="0"/>
        <pt x="159" y="153" on="0"/>
        <pt x="181" y="156" on="1"/>
        <pt x="181" y="165" on="1"/>
        <pt x="159" y="168" on="0"/>
        <pt x="108" y="177" on="0"/>
        <pt x="94" y="185" on="1"/>
        <pt x="71" y="198" on="0"/>
        <pt x="56" y="237" on="0"/>
        <pt x="68" y="257" on="1"/>
        <pt x="79" y="276" on="0"/>
        <pt x="121" y="285" on="0"/>
        <pt x="143" y="272" on="1"/>
        <pt x="158" y="264" on="0"/>
        <pt x="192" y="225" on="0"/>
        <pt x="205" y="206" on="1"/>
        <pt x="213" y="211" on="1"/>
        <pt x="203" y="230" on="0"/>
        <pt x="186" y="280" on="0"/>
        <pt x="186" y="297" on="1"/>
        <pt x="186" y="323" on="0"/>
        <pt x="213" y="353" on="0"/>
        <pt x="236" y="353" on="1"/>
        <pt x="259" y="353" on="0"/>
        <pt x="286" y="323" on="0"/>
        <pt x="286" y="297" on="1"/>
        <pt x="286" y="280" on="0"/>
        <pt x="269" y="230" on="0"/>
        <pt x="259" y="211" on="1"/>
        <pt x="267" y="206" on="1"/>
        <pt x="280" y="225" on="0"/>
        <pt x="314" y="264" on="0"/>
        <pt x="329" y="272" on="1"/>
        <pt x="351" y="285" on="0"/>
        <pt x="393" y="276" on="0"/>
        <pt x="404" y="257" on="1"/>
        <pt x="416" y="237" on="0"/>
        <pt x="401" y="198" on="0"/>
        <pt x="378" y="185" on="1"/>
        <pt x="364" y="177" on="0"/>
        <pt x="313" y="168" on="0"/>
      </contour>
    </TTGlyph>
    <TTGlyph name="h" xMin="-3" yMin="-9" xMax="1342" yMax="763">
      <contour>
        <pt x="1342" y="341" on="1"/>
        <pt x="1018" y="312" on="0"/>
        <pt x="622" y="126" on="0"/>
        <pt x="489" y="-5" on="1"/>
        <pt x="473" y="-7" on="0"/>
        <pt x="444" y="-9" on="0"/>
        <pt x="434" y="-9" on="1"/>
        <pt x="271" y="-9" on="0"/>
        <pt x="-3" y="216" on="0"/>
        <pt x="-3" y="377" on="1"/>
        <pt x="-3" y="538" on="0"/>
        <pt x="271" y="763" on="0"/>
        <pt x="434" y="763" on="1"/>
        <pt x="444" y="763" on="0"/>
        <pt x="473" y="761" on="0"/>
        <pt x="489" y="759" on="1"/>
        <pt x="622" y="628" on="0"/>
        <pt x="1018" y="442" on="0"/>
        <pt x="1342" y="413" on="1"/>
      </contour>
    </TTGlyph>
    <TTGlyph name="hcoslug" xMin="50" yMin="-100" xMax="644" yMax="700">
      <contour>
        <pt x="644" y="700" on="1"/>
        <pt x="644" y="-100" on="1"/>
        <pt x="50" y="-100" on="1"/>
        <pt x="50" y="700" on="1"/>
      </contour>
      <contour>
        <pt x="382" y="264" on="1"/>
        <pt x="393" y="279" on="0"/>
        <pt x="417" y="299" on="0"/>
        <pt x="428" y="306" on="1"/>
        <pt x="435" y="295" on="0"/>
        <pt x="458" y="281" on="0"/>
        <pt x="471" y="281" on="1"/>
        <pt x="492" y="281" on="0"/>
        <pt x="521" y="312" on="0"/>
        <pt x="521" y="335" on="1"/>
        <pt x="521" y="358" on="0"/>
        <pt x="492" y="387" on="0"/>
        <pt x="471" y="387" on="1"/>
        <pt x="452" y="387" on="0"/>
        <pt x="423" y="367" on="0"/>
        <pt x="411" y="349" on="1"/>
        <pt x="410" y="369" on="0"/>
        <pt x="382" y="387" on="0"/>
        <pt x="362" y="386" on="1"/>
        <pt x="366" y="393" on="0"/>
        <pt x="371" y="410" on="0"/>
        <pt x="371" y="420" on="1"/>
        <pt x="371" y="446" on="0"/>
        <pt x="322" y="494" on="0"/>
        <pt x="276" y="494" on="1"/>
        <pt x="226" y="494" on="0"/>
        <pt x="167" y="441" on="0"/>
        <pt x="167" y="409" on="1"/>
        <pt x="167" y="387" on="0"/>
        <pt x="182" y="356" on="0"/>
        <pt x="198" y="340" on="1"/>
        <pt x="158" y="327" on="0"/>
        <pt x="116" y="280" on="0"/>
        <pt x="116" y="249" on="1"/>
        <pt x="116" y="209" on="0"/>
        <pt x="180" y="156" on="0"/>
        <pt x="225" y="156" on="1"/>
        <pt x="256" y="156" on="0"/>
        <pt x="308" y="178" on="0"/>
        <pt x="329" y="201" on="1"/>
        <pt x="354" y="176" on="0"/>
        <pt x="392" y="156" on="0"/>
        <pt x="414" y="156" on="1"/>
        <pt x="446" y="156" on="0"/>
        <pt x="493" y="207" on="0"/>
        <pt x="494" y="250" on="1"/>
        <pt x="487" y="252" on="1"/>
        <pt x="480" y="239" on="0"/>
        <pt x="460" y="223" on="0"/>
        <pt x="444" y="223" on="1"/>
        <pt x="429" y="223" on="0"/>
        <pt x="401" y="242" on="0"/>
      </contour>
      <contour>
        <pt x="247" y="428" on="1"/>
        <pt x="247" y="441" on="0"/>
        <pt x="262" y="457" on="0"/>
        <pt x="274" y="457" on="1"/>
        <pt x="287" y="457" on="0"/>
        <pt x="303" y="436" on="0"/>
        <pt x="303" y="419" on="1"/>
        <pt x="303" y="406" on="0"/>
        <pt x="293" y="382" on="0"/>
        <pt x="285" y="369" on="1"/>
        <pt x="268" y="385" on="0"/>
        <pt x="247" y="411" on="0"/>
      </contour>
      <contour>
        <pt x="312" y="342" on="1"/>
        <pt x="326" y="352" on="0"/>
        <pt x="347" y="369" on="0"/>
        <pt x="354" y="376" on="1"/>
        <pt x="371" y="359" on="0"/>
        <pt x="367" y="321" on="0"/>
        <pt x="353" y="296" on="1"/>
        <pt x="343" y="307" on="0"/>
        <pt x="324" y="330" on="0"/>
      </contour>
      <contour>
        <pt x="261" y="219" on="1"/>
        <pt x="239" y="219" on="0"/>
        <pt x="209" y="250" on="0"/>
        <pt x="209" y="273" on="1"/>
        <pt x="209" y="284" on="0"/>
        <pt x="217" y="305" on="0"/>
        <pt x="225" y="313" on="1"/>
        <pt x="238" y="300" on="0"/>
        <pt x="278" y="257" on="0"/>
        <pt x="299" y="231" on="1"/>
        <pt x="291" y="224" on="0"/>
        <pt x="272" y="219" on="0"/>
      </contour>
      <contour>
        <pt x="352" y="125" on="1"/>
        <pt x="352" y="73" on="1"/>
        <pt x="358" y="73" on="1"/>
        <pt x="362" y="81" on="1"/>
        <pt x="364" y="77" on="0"/>
        <pt x="371" y="73" on="0"/>
        <pt x="376" y="73" on="1"/>
        <pt x="385" y="73" on="0"/>
        <pt x="392" y="87" on="0"/>
        <pt x="392" y="94" on="1"/>
        <pt x="392" y="103" on="0"/>
        <pt x="384" y="114" on="0"/>
        <pt x="377" y="114" on="1"/>
        <pt x="373" y="114" on="0"/>
        <pt x="365" y="109" on="0"/>
        <pt x="364" y="105" on="1"/>
        <pt x="364" y="132" on="1"/>
        <pt x="346" y="132" on="1"/>
        <pt x="346" y="125" on="1"/>
      </contour>
      <contour>
        <pt x="125" y="81" on="1"/>
        <pt x="125" y="74" on="1"/>
        <pt x="155" y="74" on="1"/>
        <pt x="155" y="81" on="1"/>
        <pt x="145" y="81" on="1"/>
        <pt x="145" y="97" on="1"/>
        <pt x="149" y="97" on="1"/>
        <pt x="153" y="97" on="0"/>
        <pt x="154" y="94" on="0"/>
        <pt x="155" y="89" on="1"/>
        <pt x="162" y="89" on="1"/>
        <pt x="162" y="112" on="1"/>
        <pt x="155" y="112" on="1"/>
        <pt x="154" y="107" on="0"/>
        <pt x="153" y="104" on="0"/>
        <pt x="149" y="104" on="1"/>
        <pt x="145" y="104" on="1"/>
        <pt x="145" y="122" on="1"/>
        <pt x="157" y="122" on="1"/>
        <pt x="162" y="122" on="0"/>
        <pt x="167" y="117" on="0"/>
        <pt x="168" y="109" on="1"/>
        <pt x="176" y="109" on="1"/>
        <pt x="176" y="129" on="1"/>
        <pt x="125" y="129" on="1"/>
        <pt x="125" y="122" on="1"/>
        <pt x="132" y="122" on="1"/>
        <pt x="132" y="81" on="1"/>
      </contour>
      <contour>
        <pt x="286" y="124" on="1"/>
        <pt x="274" y="122" on="1"/>
        <pt x="274" y="113" on="1"/>
        <pt x="267" y="113" on="1"/>
        <pt x="267" y="106" on="1"/>
        <pt x="274" y="106" on="1"/>
        <pt x="274" y="86" on="1"/>
        <pt x="274" y="80" on="0"/>
        <pt x="280" y="73" on="0"/>
        <pt x="286" y="73" on="1"/>
        <pt x="292" y="73" on="0"/>
        <pt x="299" y="79" on="0"/>
        <pt x="300" y="86" on="1"/>
        <pt x="295" y="88" on="1"/>
        <pt x="294" y="84" on="0"/>
        <pt x="291" y="81" on="0"/>
        <pt x="290" y="81" on="1"/>
        <pt x="288" y="81" on="0"/>
        <pt x="286" y="84" on="0"/>
        <pt x="286" y="86" on="1"/>
        <pt x="286" y="106" on="1"/>
        <pt x="299" y="106" on="1"/>
        <pt x="299" y="113" on="1"/>
        <pt x="286" y="113" on="1"/>
      </contour>
      <contour>
        <pt x="174" y="94" on="1"/>
        <pt x="174" y="84" on="0"/>
        <pt x="186" y="73" on="0"/>
        <pt x="195" y="73" on="1"/>
        <pt x="204" y="73" on="0"/>
        <pt x="216" y="85" on="0"/>
        <pt x="216" y="94" on="1"/>
        <pt x="216" y="103" on="0"/>
        <pt x="204" y="114" on="0"/>
        <pt x="195" y="114" on="1"/>
        <pt x="186" y="114" on="0"/>
        <pt x="174" y="103" on="0"/>
      </contour>
      <contour>
        <pt x="219" y="81" on="1"/>
        <pt x="219" y="74" on="1"/>
        <pt x="241" y="74" on="1"/>
        <pt x="241" y="81" on="1"/>
        <pt x="237" y="81" on="1"/>
        <pt x="237" y="96" on="1"/>
        <pt x="237" y="100" on="0"/>
        <pt x="241" y="106" on="0"/>
        <pt x="244" y="106" on="1"/>
        <pt x="247" y="106" on="0"/>
        <pt x="250" y="102" on="0"/>
        <pt x="250" y="99" on="1"/>
        <pt x="250" y="81" on="1"/>
        <pt x="246" y="81" on="1"/>
        <pt x="246" y="74" on="1"/>
        <pt x="268" y="74" on="1"/>
        <pt x="268" y="81" on="1"/>
        <pt x="262" y="81" on="1"/>
        <pt x="262" y="100" on="1"/>
        <pt x="262" y="106" on="0"/>
        <pt x="257" y="114" on="0"/>
        <pt x="250" y="114" on="1"/>
        <pt x="245" y="114" on="0"/>
        <pt x="238" y="108" on="0"/>
        <pt x="236" y="103" on="1"/>
        <pt x="236" y="113" on="1"/>
        <pt x="219" y="113" on="1"/>
        <pt x="219" y="106" on="1"/>
        <pt x="225" y="106" on="1"/>
        <pt x="225" y="81" on="1"/>
      </contour>
      <contour>
        <pt x="302" y="88" on="1"/>
        <pt x="302" y="74" on="1"/>
        <pt x="309" y="74" on="1"/>
        <pt x="310" y="78" on="1"/>
        <pt x="312" y="77" on="0"/>
        <pt x="318" y="73" on="0"/>
        <pt x="323" y="73" on="1"/>
        <pt x="330" y="73" on="0"/>
        <pt x="337" y="81" on="0"/>
        <pt x="337" y="86" on="1"/>
        <pt x="337" y="98" on="0"/>
        <pt x="313" y="98" on="0"/>
        <pt x="313" y="104" on="1"/>
        <pt x="313" y="105" on="0"/>
        <pt x="316" y="108" on="0"/>
        <pt x="318" y="108" on="1"/>
        <pt x="321" y="108" on="0"/>
        <pt x="326" y="104" on="0"/>
        <pt x="328" y="101" on="1"/>
        <pt x="335" y="101" on="1"/>
        <pt x="335" y="114" on="1"/>
        <pt x="329" y="114" on="1"/>
        <pt x="327" y="109" on="1"/>
        <pt x="326" y="111" on="0"/>
        <pt x="320" y="114" on="0"/>
        <pt x="316" y="114" on="1"/>
        <pt x="309" y="114" on="0"/>
        <pt x="302" y="106" on="0"/>
        <pt x="302" y="102" on="1"/>
        <pt x="302" y="90" on="0"/>
        <pt x="326" y="89" on="0"/>
        <pt x="326" y="83" on="1"/>
        <pt x="326" y="82" on="0"/>
        <pt x="323" y="79" on="0"/>
        <pt x="321" y="79" on="1"/>
        <pt x="317" y="79" on="0"/>
        <pt x="312" y="84" on="0"/>
        <pt x="309" y="88" on="1"/>
      </contour>
      <contour>
        <pt x="405" y="65" on="1"/>
        <pt x="407" y="67" on="0"/>
        <pt x="405" y="75" on="0"/>
        <pt x="400" y="75" on="1"/>
        <pt x="397" y="75" on="0"/>
        <pt x="393" y="71" on="0"/>
        <pt x="393" y="68" on="1"/>
        <pt x="393" y="64" on="0"/>
        <pt x="399" y="59" on="0"/>
        <pt x="404" y="59" on="1"/>
        <pt x="411" y="59" on="0"/>
        <pt x="419" y="68" on="0"/>
        <pt x="422" y="75" on="1"/>
        <pt x="435" y="106" on="1"/>
        <pt x="440" y="106" on="1"/>
        <pt x="440" y="113" on="1"/>
        <pt x="423" y="113" on="1"/>
        <pt x="423" y="106" on="1"/>
        <pt x="428" y="106" on="1"/>
        <pt x="420" y="86" on="1"/>
        <pt x="411" y="106" on="1"/>
        <pt x="417" y="106" on="1"/>
        <pt x="417" y="113" on="1"/>
        <pt x="392" y="113" on="1"/>
        <pt x="392" y="106" on="1"/>
        <pt x="397" y="106" on="1"/>
        <pt x="397" y="106" on="0"/>
        <pt x="410" y="80" on="0"/>
        <pt x="413" y="73" on="1"/>
        <pt x="412" y="69" on="0"/>
        <pt x="408" y="65" on="0"/>
      </contour>
      <contour>
        <pt x="203" y="94" on="1"/>
        <pt x="203" y="85" on="0"/>
        <pt x="199" y="78" on="0"/>
        <pt x="195" y="78" on="1"/>
        <pt x="191" y="78" on="0"/>
        <pt x="187" y="85" on="0"/>
        <pt x="187" y="94" on="1"/>
        <pt x="187" y="102" on="0"/>
        <pt x="191" y="109" on="0"/>
        <pt x="195" y="109" on="1"/>
        <pt x="199" y="109" on="0"/>
        <pt x="203" y="102" on="0"/>
      </contour>
      <contour>
        <pt x="379" y="93" on="1"/>
        <pt x="379" y="87" on="0"/>
        <pt x="376" y="80" on="0"/>
        <pt x="372" y="80" on="1"/>
        <pt x="368" y="80" on="0"/>
        <pt x="364" y="87" on="0"/>
        <pt x="364" y="93" on="1"/>
        <pt x="364" y="98" on="0"/>
        <pt x="368" y="106" on="0"/>
        <pt x="372" y="106" on="1"/>
        <pt x="376" y="106" on="0"/>
        <pt x="379" y="99" on="0"/>
      </contour>
      <contour>
        <pt x="276" y="7" on="1"/>
        <pt x="276" y="0" on="1"/>
        <pt x="299" y="0" on="1"/>
        <pt x="299" y="7" on="1"/>
        <pt x="294" y="7" on="1"/>
        <pt x="294" y="32" on="1"/>
        <pt x="308" y="32" on="1"/>
        <pt x="308" y="7" on="1"/>
        <pt x="303" y="7" on="1"/>
        <pt x="303" y="0" on="1"/>
        <pt x="326" y="0" on="1"/>
        <pt x="326" y="7" on="1"/>
        <pt x="320" y="7" on="1"/>
        <pt x="320" y="59" on="1"/>
        <pt x="310" y="57" on="1"/>
        <pt x="309" y="58" on="0"/>
        <pt x="303" y="59" on="0"/>
        <pt x="301" y="59" on="1"/>
        <pt x="294" y="59" on="0"/>
        <pt x="282" y="50" on="0"/>
        <pt x="282" y="40" on="1"/>
        <pt x="282" y="39" on="1"/>
        <pt x="275" y="39" on="1"/>
        <pt x="275" y="32" on="1"/>
        <pt x="282" y="32" on="1"/>
        <pt x="282" y="7" on="1"/>
      </contour>
      <contour>
        <pt x="469" y="27" on="1"/>
        <pt x="469" y="14" on="0"/>
        <pt x="485" y="-1" on="0"/>
        <pt x="498" y="-1" on="1"/>
        <pt x="509" y="-1" on="0"/>
        <pt x="521" y="12" on="0"/>
        <pt x="522" y="22" on="1"/>
        <pt x="514" y="22" on="1"/>
        <pt x="513" y="15" on="0"/>
        <pt x="506" y="6" on="0"/>
        <pt x="500" y="6" on="1"/>
        <pt x="493" y="6" on="0"/>
        <pt x="484" y="17" on="0"/>
        <pt x="484" y="28" on="1"/>
        <pt x="484" y="40" on="0"/>
        <pt x="492" y="50" on="0"/>
        <pt x="498" y="50" on="1"/>
        <pt x="504" y="50" on="0"/>
        <pt x="510" y="43" on="0"/>
        <pt x="513" y="34" on="1"/>
        <pt x="521" y="34" on="1"/>
        <pt x="521" y="56" on="1"/>
        <pt x="513" y="56" on="1"/>
        <pt x="512" y="50" on="1"/>
        <pt x="509" y="53" on="0"/>
        <pt x="501" y="57" on="0"/>
        <pt x="496" y="57" on="1"/>
        <pt x="486" y="57" on="0"/>
        <pt x="469" y="40" on="0"/>
      </contour>
      <contour>
        <pt x="124" y="7" on="1"/>
        <pt x="124" y="0" on="1"/>
        <pt x="153" y="0" on="1"/>
        <pt x="153" y="7" on="1"/>
        <pt x="145" y="7" on="1"/>
        <pt x="145" y="25" on="1"/>
        <pt x="167" y="25" on="1"/>
        <pt x="167" y="7" on="1"/>
        <pt x="159" y="7" on="1"/>
        <pt x="159" y="0" on="1"/>
        <pt x="188" y="0" on="1"/>
        <pt x="188" y="7" on="1"/>
        <pt x="180" y="7" on="1"/>
        <pt x="180" y="48" on="1"/>
        <pt x="188" y="48" on="1"/>
        <pt x="188" y="55" on="1"/>
        <pt x="159" y="55" on="1"/>
        <pt x="159" y="48" on="1"/>
        <pt x="167" y="48" on="1"/>
        <pt x="167" y="32" on="1"/>
        <pt x="145" y="32" on="1"/>
        <pt x="145" y="48" on="1"/>
        <pt x="153" y="48" on="1"/>
        <pt x="153" y="55" on="1"/>
        <pt x="124" y="55" on="1"/>
        <pt x="124" y="48" on="1"/>
        <pt x="132" y="48" on="1"/>
        <pt x="132" y="7" on="1"/>
      </contour>
      <contour>
        <pt x="294" y="39" on="1"/>
        <pt x="294" y="42" on="1"/>
        <pt x="294" y="49" on="0"/>
        <pt x="298" y="54" on="0"/>
        <pt x="300" y="54" on="1"/>
        <pt x="301" y="54" on="0"/>
        <pt x="303" y="53" on="0"/>
        <pt x="303" y="53" on="1"/>
        <pt x="303" y="53" on="0"/>
        <pt x="302" y="51" on="0"/>
        <pt x="302" y="50" on="1"/>
        <pt x="302" y="47" on="0"/>
        <pt x="306" y="44" on="0"/>
        <pt x="308" y="44" on="1"/>
        <pt x="308" y="39" on="1"/>
      </contour>
      <contour>
        <pt x="464" y="33" on="1"/>
        <pt x="446" y="33" on="1"/>
        <pt x="446" y="26" on="1"/>
        <pt x="452" y="26" on="1"/>
        <pt x="451" y="24" on="0"/>
        <pt x="447" y="18" on="0"/>
        <pt x="446" y="17" on="1"/>
        <pt x="443" y="20" on="0"/>
        <pt x="438" y="26" on="0"/>
        <pt x="434" y="30" on="1"/>
        <pt x="439" y="32" on="0"/>
        <pt x="445" y="38" on="0"/>
        <pt x="445" y="42" on="1"/>
        <pt x="445" y="46" on="0"/>
        <pt x="438" y="54" on="0"/>
        <pt x="431" y="54" on="1"/>
        <pt x="424" y="54" on="0"/>
        <pt x="414" y="45" on="0"/>
        <pt x="414" y="40" on="1"/>
        <pt x="414" y="36" on="0"/>
        <pt x="417" y="31" on="0"/>
        <pt x="420" y="28" on="1"/>
        <pt x="415" y="27" on="0"/>
        <pt x="407" y="19" on="0"/>
        <pt x="407" y="13" on="1"/>
        <pt x="407" y="7" on="0"/>
        <pt x="416" y="-1" on="0"/>
        <pt x="425" y="-1" on="1"/>
        <pt x="429" y="-1" on="0"/>
        <pt x="437" y="2" on="0"/>
        <pt x="440" y="5" on="1"/>
        <pt x="443" y="1" on="0"/>
        <pt x="448" y="-1" on="0"/>
        <pt x="452" y="-1" on="1"/>
        <pt x="458" y="-1" on="0"/>
        <pt x="464" y="6" on="0"/>
        <pt x="465" y="11" on="1"/>
        <pt x="460" y="12" on="1"/>
        <pt x="459" y="9" on="0"/>
        <pt x="457" y="7" on="0"/>
        <pt x="456" y="7" on="1"/>
        <pt x="455" y="7" on="0"/>
        <pt x="451" y="10" on="0"/>
        <pt x="450" y="12" on="1"/>
        <pt x="452" y="15" on="0"/>
        <pt x="457" y="22" on="0"/>
        <pt x="459" y="26" on="1"/>
        <pt x="464" y="26" on="1"/>
      </contour>
      <contour>
        <pt x="431" y="33" on="1"/>
        <pt x="428" y="36" on="0"/>
        <pt x="425" y="41" on="0"/>
        <pt x="425" y="43" on="1"/>
        <pt x="425" y="45" on="0"/>
        <pt x="428" y="48" on="0"/>
        <pt x="430" y="48" on="1"/>
        <pt x="433" y="48" on="0"/>
        <pt x="436" y="44" on="0"/>
        <pt x="436" y="42" on="1"/>
        <pt x="436" y="39" on="0"/>
        <pt x="433" y="34" on="0"/>
      </contour>
      <contour>
        <pt x="368" y="7" on="1"/>
        <pt x="368" y="0" on="1"/>
        <pt x="394" y="0" on="1"/>
        <pt x="394" y="7" on="1"/>
        <pt x="386" y="7" on="1"/>
        <pt x="386" y="23" on="1"/>
        <pt x="387" y="27" on="0"/>
        <pt x="392" y="32" on="0"/>
        <pt x="393" y="32" on="1"/>
        <pt x="393" y="31" on="1"/>
        <pt x="393" y="28" on="0"/>
        <pt x="397" y="25" on="0"/>
        <pt x="399" y="25" on="1"/>
        <pt x="402" y="25" on="0"/>
        <pt x="406" y="29" on="0"/>
        <pt x="406" y="32" on="1"/>
        <pt x="406" y="36" on="0"/>
        <pt x="402" y="40" on="0"/>
        <pt x="398" y="40" on="1"/>
        <pt x="394" y="40" on="0"/>
        <pt x="388" y="35" on="0"/>
        <pt x="386" y="29" on="1"/>
        <pt x="386" y="39" on="1"/>
        <pt x="368" y="39" on="1"/>
        <pt x="368" y="32" on="1"/>
        <pt x="374" y="32" on="1"/>
        <pt x="374" y="7" on="1"/>
      </contour>
      <contour>
        <pt x="247" y="18" on="1"/>
        <pt x="273" y="18" on="1"/>
        <pt x="274" y="28" on="0"/>
        <pt x="264" y="40" on="0"/>
        <pt x="254" y="40" on="1"/>
        <pt x="246" y="40" on="0"/>
        <pt x="234" y="28" on="0"/>
        <pt x="234" y="19" on="1"/>
        <pt x="234" y="10" on="0"/>
        <pt x="245" y="-1" on="0"/>
        <pt x="255" y="-1" on="1"/>
        <pt x="263" y="-1" on="0"/>
        <pt x="272" y="7" on="0"/>
        <pt x="273" y="13" on="1"/>
        <pt x="266" y="13" on="1"/>
        <pt x="265" y="9" on="0"/>
        <pt x="261" y="6" on="0"/>
        <pt x="257" y="6" on="1"/>
        <pt x="252" y="6" on="0"/>
        <pt x="247" y="11" on="0"/>
      </contour>
      <contour>
        <pt x="189" y="20" on="1"/>
        <pt x="189" y="10" on="0"/>
        <pt x="201" y="-1" on="0"/>
        <pt x="210" y="-1" on="1"/>
        <pt x="219" y="-1" on="0"/>
        <pt x="231" y="11" on="0"/>
        <pt x="231" y="20" on="1"/>
        <pt x="231" y="29" on="0"/>
        <pt x="219" y="40" on="0"/>
        <pt x="210" y="40" on="1"/>
        <pt x="201" y="40" on="0"/>
        <pt x="189" y="29" on="0"/>
      </contour>
      <contour>
        <pt x="525" y="20" on="1"/>
        <pt x="525" y="10" on="0"/>
        <pt x="537" y="-1" on="0"/>
        <pt x="546" y="-1" on="1"/>
        <pt x="555" y="-1" on="0"/>
        <pt x="567" y="11" on="0"/>
        <pt x="567" y="20" on="1"/>
        <pt x="567" y="29" on="0"/>
        <pt x="555" y="40" on="0"/>
        <pt x="546" y="40" on="1"/>
        <pt x="537" y="40" on="0"/>
        <pt x="525" y="29" on="0"/>
      </contour>
      <contour>
        <pt x="340" y="18" on="1"/>
        <pt x="366" y="18" on="1"/>
        <pt x="367" y="28" on="0"/>
        <pt x="357" y="40" on="0"/>
        <pt x="347" y="40" on="1"/>
        <pt x="339" y="40" on="0"/>
        <pt x="327" y="28" on="0"/>
        <pt x="327" y="19" on="1"/>
        <pt x="327" y="10" on="0"/>
        <pt x="338" y="-1" on="0"/>
        <pt x="348" y="-1" on="1"/>
        <pt x="356" y="-1" on="0"/>
        <pt x="365" y="7" on="0"/>
        <pt x="366" y="13" on="1"/>
        <pt x="359" y="13" on="1"/>
        <pt x="358" y="9" on="0"/>
        <pt x="354" y="6" on="0"/>
        <pt x="350" y="6" on="1"/>
        <pt x="345" y="6" on="0"/>
        <pt x="340" y="11" on="0"/>
      </contour>
      <contour>
        <pt x="340" y="23" on="1"/>
        <pt x="340" y="30" on="0"/>
        <pt x="344" y="35" on="0"/>
        <pt x="347" y="35" on="1"/>
        <pt x="351" y="35" on="0"/>
        <pt x="354" y="29" on="0"/>
        <pt x="354" y="23" on="1"/>
      </contour>
      <contour>
        <pt x="554" y="20" on="1"/>
        <pt x="554" y="11" on="0"/>
        <pt x="550" y="4" on="0"/>
        <pt x="546" y="4" on="1"/>
        <pt x="542" y="4" on="0"/>
        <pt x="538" y="11" on="0"/>
        <pt x="538" y="20" on="1"/>
        <pt x="538" y="28" on="0"/>
        <pt x="542" y="35" on="0"/>
        <pt x="546" y="35" on="1"/>
        <pt x="550" y="35" on="0"/>
        <pt x="554" y="28" on="0"/>
      </contour>
      <contour>
        <pt x="218" y="20" on="1"/>
        <pt x="218" y="11" on="0"/>
        <pt x="214" y="4" on="0"/>
        <pt x="210" y="4" on="1"/>
        <pt x="206" y="4" on="0"/>
        <pt x="202" y="11" on="0"/>
        <pt x="202" y="20" on="1"/>
        <pt x="202" y="28" on="0"/>
        <pt x="206" y="35" on="0"/>
        <pt x="210" y="35" on="1"/>
        <pt x="214" y="35" on="0"/>
        <pt x="218" y="28" on="0"/>
      </contour>
      <contour>
        <pt x="247" y="23" on="1"/>
        <pt x="247" y="30" on="0"/>
        <pt x="251" y="35" on="0"/>
        <pt x="254" y="35" on="1"/>
        <pt x="258" y="35" on="0"/>
        <pt x="261" y="29" on="0"/>
        <pt x="261" y="23" on="1"/>
      </contour>
      <contour>
        <pt x="437" y="9" on="1"/>
        <pt x="435" y="8" on="0"/>
        <pt x="430" y="6" on="0"/>
        <pt x="429" y="6" on="1"/>
        <pt x="425" y="6" on="0"/>
        <pt x="419" y="12" on="0"/>
        <pt x="419" y="16" on="1"/>
        <pt x="419" y="19" on="0"/>
        <pt x="422" y="24" on="0"/>
        <pt x="423" y="25" on="1"/>
        <pt x="427" y="21" on="0"/>
        <pt x="433" y="13" on="0"/>
      </contour>
      <contour>
        <pt x="583" y="6" on="1"/>
        <pt x="583" y="9" on="0"/>
        <pt x="579" y="13" on="0"/>
        <pt x="576" y="13" on="1"/>
        <pt x="573" y="13" on="0"/>
        <pt x="569" y="9" on="0"/>
        <pt x="569" y="6" on="1"/>
        <pt x="569" y="3" on="0"/>
        <pt x="573" y="-1" on="0"/>
        <pt x="576" y="-1" on="1"/>
        <pt x="579" y="-1" on="0"/>
        <pt x="583" y="3" on="0"/>
      </contour>
    </TTGlyph>
    <TTGlyph name="hyphen" xMin="-3" yMin="-52" xMax="2107" yMax="806">
      <contour>
        <pt x="2107" y="377" on="1"/>
        <pt x="2107" y="331" on="0"/>
        <pt x="2027" y="272" on="0"/>
        <pt x="1952" y="272" on="1"/>
        <pt x="1903" y="272" on="0"/>
        <pt x="1735" y="291" on="0"/>
        <pt x="1610" y="307" on="1"/>
        <pt x="1220" y="358" on="1"/>
        <pt x="1218" y="346" on="1"/>
        <pt x="1587" y="268" on="1"/>
        <pt x="1715" y="241" on="0"/>
        <pt x="1804" y="183" on="0"/>
        <pt x="1804" y="142" on="1"/>
        <pt x="1804" y="111" on="0"/>
        <pt x="1748" y="63" on="0"/>
        <pt x="1711" y="63" on="1"/>
        <pt x="1673" y="63" on="0"/>
        <pt x="1583" y="106" on="0"/>
        <pt x="1497" y="155" on="1"/>
        <pt x="1158" y="347" on="1"/>
        <pt x="1154" y="340" on="1"/>
        <pt x="1323" y="217" on="1"/>
        <pt x="1406" y="157" on="0"/>
        <pt x="1465" y="94" on="0"/>
        <pt x="1465" y="60" on="1"/>
        <pt x="1465" y="30" on="0"/>
        <pt x="1413" y="-8" on="0"/>
        <pt x="1379" y="-8" on="1"/>
        <pt x="1345" y="-8" on="0"/>
        <pt x="1259" y="51" on="0"/>
        <pt x="1193" y="156" on="1"/>
        <pt x="1077" y="342" on="1"/>
        <pt x="1070" y="341" on="1"/>
        <pt x="1117" y="212" on="1"/>
        <pt x="1133" y="169" on="0"/>
        <pt x="1155" y="88" on="0"/>
        <pt x="1155" y="53" on="1"/>
        <pt x="1155" y="-7" on="0"/>
        <pt x="1083" y="-52" on="0"/>
        <pt x="1052" y="-52" on="1"/>
        <pt x="1021" y="-52" on="0"/>
        <pt x="949" y="-7" on="0"/>
        <pt x="949" y="53" on="1"/>
        <pt x="949" y="88" on="0"/>
        <pt x="971" y="169" on="0"/>
        <pt x="987" y="212" on="1"/>
        <pt x="1034" y="341" on="1"/>
        <pt x="1027" y="342" on="1"/>
        <pt x="911" y="156" on="1"/>
        <pt x="845" y="51" on="0"/>
        <pt x="759" y="-8" on="0"/>
        <pt x="725" y="-8" on="1"/>
        <pt x="691" y="-8" on="0"/>
        <pt x="639" y="30" on="0"/>
        <pt x="639" y="60" on="1"/>
        <pt x="639" y="94" on="0"/>
        <pt x="698" y="157" on="0"/>
        <pt x="781" y="217" on="1"/>
        <pt x="950" y="340" on="1"/>
        <pt x="946" y="347" on="1"/>
        <pt x="607" y="155" on="1"/>
        <pt x="521" y="106" on="0"/>
        <pt x="431" y="63" on="0"/>
        <pt x="393" y="63" on="1"/>
        <pt x="356" y="63" on="0"/>
        <pt x="300" y="111" on="0"/>
        <pt x="300" y="142" on="1"/>
        <pt x="300" y="183" on="0"/>
        <pt x="389" y="241" on="0"/>
        <pt x="517" y="268" on="1"/>
        <pt x="886" y="346" on="1"/>
        <pt x="884" y="358" on="1"/>
        <pt x="494" y="307" on="1"/>
        <pt x="369" y="291" on="0"/>
        <pt x="201" y="272" on="0"/>
        <pt x="152" y="272" on="1"/>
        <pt x="77" y="272" on="0"/>
        <pt x="-3" y="331" on="0"/>
        <pt x="-3" y="377" on="1"/>
        <pt x="-3" y="423" on="0"/>
        <pt x="77" y="482" on="0"/>
        <pt x="152" y="482" on="1"/>
        <pt x="201" y="482" on="0"/>
        <pt x="369" y="463" on="0"/>
        <pt x="494" y="447" on="1"/>
        <pt x="884" y="396" on="1"/>
        <pt x="886" y="408" on="1"/>
        <pt x="517" y="486" on="1"/>
        <pt x="389" y="513" on="0"/>
        <pt x="300" y="571" on="0"/>
        <pt x="300" y="612" on="1"/>
        <pt x="300" y="643" on="0"/>
        <pt x="356" y="691" on="0"/>
        <pt x="393" y="691" on="1"/>
        <pt x="431" y="691" on="0"/>
        <pt x="521" y="648" on="0"/>
        <pt x="607" y="599" on="1"/>
        <pt x="946" y="407" on="1"/>
        <pt x="950" y="414" on="1"/>
        <pt x="781" y="537" on="1"/>
        <pt x="698" y="597" on="0"/>
        <pt x="639" y="660" on="0"/>
        <pt x="639" y="694" on="1"/>
        <pt x="639" y="724" on="0"/>
        <pt x="691" y="762" on="0"/>
        <pt x="725" y="762" on="1"/>
        <pt x="759" y="762" on="0"/>
        <pt x="845" y="703" on="0"/>
        <pt x="911" y="598" on="1"/>
        <pt x="1027" y="412" on="1"/>
        <pt x="1034" y="413" on="1"/>
        <pt x="987" y="542" on="1"/>
        <pt x="971" y="585" on="0"/>
        <pt x="949" y="666" on="0"/>
        <pt x="949" y="701" on="1"/>
        <pt x="949" y="761" on="0"/>
        <pt x="1021" y="806" on="0"/>
        <pt x="1052" y="806" on="1"/>
        <pt x="1083" y="806" on="0"/>
        <pt x="1155" y="761" on="0"/>
        <pt x="1155" y="701" on="1"/>
        <pt x="1155" y="666" on="0"/>
        <pt x="1133" y="585" on="0"/>
        <pt x="1117" y="542" on="1"/>
        <pt x="1070" y="413" on="1"/>
        <pt x="1077" y="412" on="1"/>
        <pt x="1193" y="598" on="1"/>
        <pt x="1259" y="703" on="0"/>
        <pt x="1345" y="762" on="0"/>
        <pt x="1379" y="762" on="1"/>
        <pt x="1413" y="762" on="0"/>
        <pt x="1465" y="724" on="0"/>
        <pt x="1465" y="694" on="1"/>
        <pt x="1465" y="660" on="0"/>
        <pt x="1406" y="597" on="0"/>
        <pt x="1323" y="537" on="1"/>
        <pt x="1154" y="414" on="1"/>
        <pt x="1158" y="407" on="1"/>
        <pt x="1497" y="599" on="1"/>
        <pt x="1583" y="648" on="0"/>
        <pt x="1673" y="691" on="0"/>
        <pt x="1711" y="691" on="1"/>
        <pt x="1748" y="691" on="0"/>
        <pt x="1804" y="643" on="0"/>
        <pt x="1804" y="612" on="1"/>
        <pt x="1804" y="571" on="0"/>
        <pt x="1715" y="513" on="0"/>
        <pt x="1587" y="486" on="1"/>
        <pt x="1218" y="408" on="1"/>
        <pt x="1220" y="396" on="1"/>
        <pt x="1610" y="447" on="1"/>
        <pt x="1735" y="463" on="0"/>
        <pt x="1903" y="482" on="0"/>
        <pt x="1952" y="482" on="1"/>
        <pt x="2027" y="482" on="0"/>
        <pt x="2107" y="423" on="0"/>
      </contour>
    </TTGlyph>
    <TTGlyph name="i" xMin="-7" yMin="-15" xMax="1191" yMax="769">
      <contour>
        <pt x="-7" y="357" on="1"/>
        <pt x="-7" y="397" on="1"/>
        <pt x="26" y="464" on="0"/>
        <pt x="145" y="553" on="0"/>
        <pt x="227" y="553" on="1"/>
        <pt x="267" y="553" on="0"/>
        <pt x="375" y="524" on="0"/>
        <pt x="448" y="493" on="1"/>
        <pt x="426" y="516" on="0"/>
        <pt x="406" y="566" on="0"/>
        <pt x="406" y="594" on="1"/>
        <pt x="406" y="652" on="0"/>
        <pt x="491" y="743" on="0"/>
        <pt x="560" y="743" on="1"/>
        <pt x="625" y="743" on="0"/>
        <pt x="704" y="667" on="0"/>
        <pt x="704" y="622" on="1"/>
        <pt x="704" y="562" on="0"/>
        <pt x="601" y="496" on="0"/>
        <pt x="532" y="512" on="1"/>
        <pt x="566" y="478" on="0"/>
        <pt x="666" y="441" on="0"/>
        <pt x="727" y="431" on="1"/>
        <pt x="778" y="423" on="0"/>
        <pt x="857" y="416" on="0"/>
        <pt x="964" y="414" on="1"/>
        <pt x="863" y="459" on="0"/>
        <pt x="771" y="622" on="0"/>
        <pt x="771" y="747" on="1"/>
        <pt x="777" y="755" on="1"/>
        <pt x="964" y="769" on="0"/>
        <pt x="1191" y="540" on="0"/>
        <pt x="1191" y="377" on="1"/>
        <pt x="1191" y="214" on="0"/>
        <pt x="964" y="-15" on="0"/>
        <pt x="777" y="-1" on="1"/>
        <pt x="771" y="7" on="1"/>
        <pt x="771" y="132" on="0"/>
        <pt x="863" y="295" on="0"/>
        <pt x="964" y="340" on="1"/>
        <pt x="857" y="338" on="0"/>
        <pt x="778" y="331" on="0"/>
        <pt x="727" y="323" on="1"/>
        <pt x="666" y="313" on="0"/>
        <pt x="566" y="276" on="0"/>
        <pt x="532" y="242" on="1"/>
        <pt x="601" y="258" on="0"/>
        <pt x="704" y="192" on="0"/>
        <pt x="704" y="132" on="1"/>
        <pt x="704" y="87" on="0"/>
        <pt x="625" y="11" on="0"/>
        <pt x="560" y="11" on="1"/>
        <pt x="491" y="11" on="0"/>
        <pt x="406" y="102" on="0"/>
        <pt x="406" y="160" on="1"/>
        <pt x="406" y="188" on="0"/>
        <pt x="426" y="238" on="0"/>
        <pt x="448" y="261" on="1"/>
        <pt x="375" y="230" on="0"/>
        <pt x="267" y="201" on="0"/>
        <pt x="227" y="201" on="1"/>
        <pt x="145" y="201" on="0"/>
        <pt x="26" y="290" on="0"/>
      </contour>
    </TTGlyph>
    <TTGlyph name="infinity" xMin="-3" yMin="-91" xMax="1198" yMax="845">
      <contour>
        <pt x="-3" y="377" on="1"/>
        <pt x="-3" y="562" on="0"/>
        <pt x="333" y="845" on="0"/>
        <pt x="598" y="845" on="1"/>
        <pt x="870" y="845" on="0"/>
        <pt x="1198" y="561" on="0"/>
        <pt x="1198" y="377" on="1"/>
        <pt x="1198" y="193" on="0"/>
        <pt x="863" y="-91" on="0"/>
        <pt x="598" y="-91" on="1"/>
        <pt x="329" y="-91" on="0"/>
        <pt x="-3" y="193" on="0"/>
      </contour>
    </TTGlyph>
    <TTGlyph name="j" xMin="-3" yMin="-16" xMax="2291" yMax="770">
      <contour>
        <pt x="2187" y="377" on="1"/>
        <pt x="2226" y="364" on="0"/>
        <pt x="2291" y="284" on="0"/>
        <pt x="2291" y="215" on="1"/>
        <pt x="2291" y="138" on="0"/>
        <pt x="2147" y="-16" on="0"/>
        <pt x="1967" y="-16" on="1"/>
        <pt x="1683" y="-16" on="0"/>
        <pt x="1215" y="243" on="0"/>
        <pt x="949" y="243" on="1"/>
        <pt x="709" y="243" on="0"/>
        <pt x="482" y="2" on="0"/>
        <pt x="325" y="2" on="1"/>
        <pt x="247" y="2" on="0"/>
        <pt x="187" y="62" on="0"/>
        <pt x="187" y="95" on="1"/>
        <pt x="187" y="130" on="0"/>
        <pt x="239" y="198" on="0"/>
        <pt x="278" y="220" on="1"/>
        <pt x="151" y="214" on="0"/>
        <pt x="-3" y="307" on="0"/>
        <pt x="-3" y="377" on="1"/>
        <pt x="-3" y="447" on="0"/>
        <pt x="151" y="540" on="0"/>
        <pt x="278" y="534" on="1"/>
        <pt x="239" y="556" on="0"/>
        <pt x="187" y="624" on="0"/>
        <pt x="187" y="659" on="1"/>
        <pt x="187" y="692" on="0"/>
        <pt x="247" y="752" on="0"/>
        <pt x="325" y="752" on="1"/>
        <pt x="482" y="752" on="0"/>
        <pt x="709" y="511" on="0"/>
        <pt x="949" y="511" on="1"/>
        <pt x="1215" y="511" on="0"/>
        <pt x="1683" y="770" on="0"/>
        <pt x="1967" y="770" on="1"/>
        <pt x="2147" y="770" on="0"/>
        <pt x="2291" y="616" on="0"/>
        <pt x="2291" y="539" on="1"/>
        <pt x="2291" y="470" on="0"/>
        <pt x="2226" y="390" on="0"/>
      </contour>
      <contour>
        <pt x="1793" y="377" on="1"/>
        <pt x="1793" y="246" on="0"/>
        <pt x="1930" y="81" on="0"/>
        <pt x="2029" y="81" on="1"/>
        <pt x="2116" y="81" on="0"/>
        <pt x="2203" y="173" on="0"/>
        <pt x="2203" y="222" on="1"/>
        <pt x="2203" y="259" on="0"/>
        <pt x="2159" y="319" on="0"/>
        <pt x="2120" y="332" on="1"/>
        <pt x="2114" y="253" on="0"/>
        <pt x="2048" y="164" on="0"/>
        <pt x="2007" y="164" on="1"/>
        <pt x="1967" y="164" on="0"/>
        <pt x="1925" y="212" on="0"/>
        <pt x="1925" y="252" on="1"/>
        <pt x="1925" y="292" on="0"/>
        <pt x="1999" y="367" on="0"/>
        <pt x="2051" y="377" on="1"/>
        <pt x="1999" y="387" on="0"/>
        <pt x="1925" y="462" on="0"/>
        <pt x="1925" y="502" on="1"/>
        <pt x="1925" y="542" on="0"/>
        <pt x="1967" y="590" on="0"/>
        <pt x="2007" y="590" on="1"/>
        <pt x="2048" y="590" on="0"/>
        <pt x="2114" y="501" on="0"/>
        <pt x="2120" y="422" on="1"/>
        <pt x="2159" y="435" on="0"/>
        <pt x="2203" y="495" on="0"/>
        <pt x="2203" y="532" on="1"/>
        <pt x="2203" y="581" on="0"/>
        <pt x="2116" y="673" on="0"/>
        <pt x="2029" y="673" on="1"/>
        <pt x="1930" y="673" on="0"/>
        <pt x="1793" y="508" on="0"/>
      </contour>
    </TTGlyph>
    <TTGlyph name="k" xMin="-3" yMin="-19" xMax="755" yMax="773">
      <contour>
        <pt x="755" y="377" on="1"/>
        <pt x="755" y="221" on="0"/>
        <pt x="527" y="-13" on="0"/>
        <pt x="329" y="-16" on="1"/>
        <pt x="137" y="-19" on="0"/>
        <pt x="-3" y="146" on="0"/>
        <pt x="-3" y="218" on="1"/>
        <pt x="-3" y="267" on="0"/>
        <pt x="65" y="353" on="0"/>
        <pt x="141" y="377" on="1"/>
        <pt x="65" y="401" on="0"/>
        <pt x="-3" y="487" on="0"/>
        <pt x="-3" y="536" on="1"/>
        <pt x="-3" y="608" on="0"/>
        <pt x="137" y="773" on="0"/>
        <pt x="329" y="770" on="1"/>
        <pt x="527" y="767" on="0"/>
        <pt x="755" y="533" on="0"/>
      </contour>
    </TTGlyph>
    <TTGlyph name="l" xMin="-3" yMin="4" xMax="696" yMax="750">
      <contour>
        <pt x="293" y="4" on="1"/>
        <pt x="174" y="4" on="0"/>
        <pt x="-3" y="110" on="0"/>
        <pt x="-3" y="193" on="1"/>
        <pt x="-3" y="197" on="1"/>
        <pt x="-3" y="245" on="0"/>
        <pt x="66" y="313" on="0"/>
        <pt x="114" y="313" on="1"/>
        <pt x="162" y="313" on="0"/>
        <pt x="230" y="245" on="0"/>
        <pt x="230" y="197" on="1"/>
        <pt x="230" y="161" on="0"/>
        <pt x="184" y="103" on="0"/>
        <pt x="159" y="90" on="1"/>
        <pt x="253" y="105" on="0"/>
        <pt x="372" y="261" on="0"/>
        <pt x="372" y="377" on="1"/>
        <pt x="372" y="493" on="0"/>
        <pt x="253" y="650" on="0"/>
        <pt x="158" y="664" on="1"/>
        <pt x="183" y="651" on="0"/>
        <pt x="230" y="593" on="0"/>
        <pt x="230" y="557" on="1"/>
        <pt x="230" y="509" on="0"/>
        <pt x="162" y="441" on="0"/>
        <pt x="114" y="441" on="1"/>
        <pt x="66" y="441" on="0"/>
        <pt x="-3" y="509" on="0"/>
        <pt x="-3" y="557" on="1"/>
        <pt x="-3" y="561" on="1"/>
        <pt x="-3" y="644" on="0"/>
        <pt x="174" y="750" on="0"/>
        <pt x="293" y="750" on="1"/>
        <pt x="463" y="750" on="0"/>
        <pt x="696" y="537" on="0"/>
        <pt x="696" y="377" on="1"/>
        <pt x="696" y="217" on="0"/>
        <pt x="463" y="4" on="0"/>
      </contour>
    </TTGlyph>
    <TTGlyph name="less" xMin="-30" yMin="137" xMax="934" yMax="617">
      <contour>
        <pt x="464" y="137" on="1"/>
        <pt x="440" y="137" on="1"/>
        <pt x="-30" y="356" on="1"/>
        <pt x="-30" y="398" on="1"/>
        <pt x="440" y="617" on="1"/>
        <pt x="464" y="617" on="1"/>
        <pt x="934" y="398" on="1"/>
        <pt x="934" y="356" on="1"/>
      </contour>
    </TTGlyph>
    <TTGlyph name="m" xMin="-3" yMin="-35" xMax="1925" yMax="769">
      <contour>
        <pt x="704" y="417" on="1"/>
        <pt x="738" y="478" on="0"/>
        <pt x="820" y="531" on="0"/>
        <pt x="862" y="531" on="1"/>
        <pt x="916" y="531" on="0"/>
        <pt x="997" y="438" on="0"/>
        <pt x="994" y="349" on="1"/>
        <pt x="1022" y="368" on="0"/>
        <pt x="1086" y="395" on="0"/>
        <pt x="1119" y="395" on="1"/>
        <pt x="1256" y="395" on="0"/>
        <pt x="1345" y="64" on="0"/>
        <pt x="1552" y="64" on="1"/>
        <pt x="1664" y="64" on="0"/>
        <pt x="1829" y="234" on="0"/>
        <pt x="1829" y="359" on="1"/>
        <pt x="1829" y="474" on="0"/>
        <pt x="1683" y="628" on="0"/>
        <pt x="1583" y="628" on="1"/>
        <pt x="1534" y="628" on="0"/>
        <pt x="1425" y="576" on="0"/>
        <pt x="1407" y="504" on="1"/>
        <pt x="1432" y="517" on="0"/>
        <pt x="1479" y="530" on="0"/>
        <pt x="1504" y="530" on="1"/>
        <pt x="1564" y="530" on="0"/>
        <pt x="1643" y="453" on="0"/>
        <pt x="1643" y="395" on="1"/>
        <pt x="1643" y="344" on="0"/>
        <pt x="1572" y="259" on="0"/>
        <pt x="1493" y="259" on="1"/>
        <pt x="1412" y="259" on="0"/>
        <pt x="1302" y="373" on="0"/>
        <pt x="1302" y="459" on="1"/>
        <pt x="1302" y="566" on="0"/>
        <pt x="1465" y="714" on="0"/>
        <pt x="1580" y="714" on="1"/>
        <pt x="1737" y="714" on="0"/>
        <pt x="1925" y="496" on="0"/>
        <pt x="1925" y="354" on="1"/>
        <pt x="1925" y="203" on="0"/>
        <pt x="1705" y="-35" on="0"/>
        <pt x="1479" y="-35" on="1"/>
        <pt x="1351" y="-35" on="0"/>
        <pt x="1058" y="61" on="0"/>
        <pt x="951" y="190" on="1"/>
        <pt x="919" y="133" on="0"/>
        <pt x="833" y="81" on="0"/>
        <pt x="793" y="81" on="1"/>
        <pt x="734" y="81" on="0"/>
        <pt x="661" y="174" on="0"/>
        <pt x="662" y="254" on="1"/>
        <pt x="552" y="262" on="0"/>
        <pt x="400" y="178" on="0"/>
        <pt x="400" y="140" on="1"/>
        <pt x="400" y="129" on="0"/>
        <pt x="416" y="113" on="0"/>
        <pt x="431" y="103" on="1"/>
        <pt x="401" y="39" on="0"/>
        <pt x="269" y="-35" on="0"/>
        <pt x="203" y="-35" on="1"/>
        <pt x="134" y="-35" on="0"/>
        <pt x="21" y="36" on="0"/>
        <pt x="17" y="102" on="1"/>
        <pt x="16" y="136" on="0"/>
        <pt x="58" y="205" on="0"/>
        <pt x="103" y="242" on="1"/>
        <pt x="54" y="259" on="0"/>
        <pt x="-3" y="310" on="0"/>
        <pt x="-3" y="344" on="1"/>
        <pt x="-3" y="377" on="0"/>
        <pt x="44" y="452" on="0"/>
        <pt x="106" y="492" on="1"/>
        <pt x="61" y="506" on="0"/>
        <pt x="17" y="573" on="0"/>
        <pt x="17" y="609" on="1"/>
        <pt x="17" y="678" on="0"/>
        <pt x="138" y="769" on="0"/>
        <pt x="229" y="769" on="1"/>
        <pt x="313" y="769" on="0"/>
        <pt x="422" y="689" on="0"/>
        <pt x="422" y="638" on="1"/>
        <pt x="422" y="622" on="0"/>
        <pt x="415" y="597" on="0"/>
        <pt x="406" y="584" on="1"/>
        <pt x="463" y="516" on="0"/>
        <pt x="618" y="432" on="0"/>
      </contour>
    </TTGlyph>
    <TTGlyph name="n" xMin="-3" yMin="-36" xMax="1925" yMax="768">
      <contour>
        <pt x="704" y="316" on="1"/>
        <pt x="618" y="301" on="0"/>
        <pt x="463" y="217" on="0"/>
        <pt x="406" y="149" on="1"/>
        <pt x="415" y="136" on="0"/>
        <pt x="422" y="111" on="0"/>
        <pt x="422" y="95" on="1"/>
        <pt x="422" y="44" on="0"/>
        <pt x="313" y="-36" on="0"/>
        <pt x="229" y="-36" on="1"/>
        <pt x="138" y="-36" on="0"/>
        <pt x="17" y="55" on="0"/>
        <pt x="17" y="124" on="1"/>
        <pt x="17" y="160" on="0"/>
        <pt x="61" y="227" on="0"/>
        <pt x="106" y="241" on="1"/>
        <pt x="44" y="281" on="0"/>
        <pt x="-3" y="356" on="0"/>
        <pt x="-3" y="389" on="1"/>
        <pt x="-3" y="423" on="0"/>
        <pt x="54" y="474" on="0"/>
        <pt x="103" y="491" on="1"/>
        <pt x="58" y="528" on="0"/>
        <pt x="16" y="597" on="0"/>
        <pt x="17" y="631" on="1"/>
        <pt x="21" y="697" on="0"/>
        <pt x="134" y="768" on="0"/>
        <pt x="203" y="768" on="1"/>
        <pt x="269" y="768" on="0"/>
        <pt x="401" y="694" on="0"/>
        <pt x="431" y="630" on="1"/>
        <pt x="416" y="620" on="0"/>
        <pt x="400" y="604" on="0"/>
        <pt x="400" y="593" on="1"/>
        <pt x="400" y="555" on="0"/>
        <pt x="552" y="471" on="0"/>
        <pt x="662" y="479" on="1"/>
        <pt x="661" y="559" on="0"/>
        <pt x="734" y="652" on="0"/>
        <pt x="793" y="652" on="1"/>
        <pt x="833" y="652" on="0"/>
        <pt x="919" y="600" on="0"/>
        <pt x="951" y="543" on="1"/>
        <pt x="1058" y="672" on="0"/>
        <pt x="1351" y="768" on="0"/>
        <pt x="1479" y="768" on="1"/>
        <pt x="1705" y="768" on="0"/>
        <pt x="1925" y="530" on="0"/>
        <pt x="1925" y="379" on="1"/>
        <pt x="1925" y="237" on="0"/>
        <pt x="1737" y="19" on="0"/>
        <pt x="1580" y="19" on="1"/>
        <pt x="1465" y="19" on="0"/>
        <pt x="1302" y="167" on="0"/>
        <pt x="1302" y="274" on="1"/>
        <pt x="1302" y="360" on="0"/>
        <pt x="1412" y="474" on="0"/>
        <pt x="1493" y="474" on="1"/>
        <pt x="1572" y="474" on="0"/>
        <pt x="1643" y="389" on="0"/>
        <pt x="1643" y="338" on="1"/>
        <pt x="1643" y="280" on="0"/>
        <pt x="1564" y="203" on="0"/>
        <pt x="1504" y="203" on="1"/>
        <pt x="1479" y="203" on="0"/>
        <pt x="1432" y="216" on="0"/>
        <pt x="1407" y="229" on="1"/>
        <pt x="1425" y="157" on="0"/>
        <pt x="1534" y="105" on="0"/>
        <pt x="1583" y="105" on="1"/>
        <pt x="1683" y="105" on="0"/>
        <pt x="1829" y="259" on="0"/>
        <pt x="1829" y="374" on="1"/>
        <pt x="1829" y="499" on="0"/>
        <pt x="1664" y="669" on="0"/>
        <pt x="1552" y="669" on="1"/>
        <pt x="1345" y="669" on="0"/>
        <pt x="1256" y="338" on="0"/>
        <pt x="1119" y="338" on="1"/>
        <pt x="1086" y="338" on="0"/>
        <pt x="1022" y="365" on="0"/>
        <pt x="994" y="384" on="1"/>
        <pt x="997" y="295" on="0"/>
        <pt x="916" y="202" on="0"/>
        <pt x="862" y="202" on="1"/>
        <pt x="820" y="202" on="0"/>
        <pt x="738" y="255" on="0"/>
      </contour>
    </TTGlyph>
    <TTGlyph name="nine" xMin="-10" yMin="103" xMax="2985" yMax="651">
      <contour>
        <pt x="2599" y="103" on="1"/>
        <pt x="2573" y="103" on="1"/>
        <pt x="2336" y="201" on="0"/>
        <pt x="1068" y="340" on="0"/>
        <pt x="-10" y="340" on="1"/>
        <pt x="-10" y="413" on="1"/>
        <pt x="1068" y="413" on="0"/>
        <pt x="2336" y="553" on="0"/>
        <pt x="2573" y="651" on="1"/>
        <pt x="2599" y="651" on="1"/>
        <pt x="2676" y="586" on="0"/>
        <pt x="2907" y="440" on="0"/>
        <pt x="2985" y="403" on="1"/>
        <pt x="2985" y="350" on="1"/>
        <pt x="2907" y="312" on="0"/>
        <pt x="2676" y="166" on="0"/>
      </contour>
    </TTGlyph>
</ttFont>
